<?xml version="1.0" encoding="UTF-8"?>
<svg id="Layer_1" data-name="Layer 1" xmlns="http://www.w3.org/2000/svg" viewBox="0 0 746.04 709.01">
  <defs>
    <style>
      .cls-1 {
        fill: #fcde5d;
      }

      .cls-2 {
        fill: #c07304;
      }

      .cls-3 {
        fill: #fcdd5a;
      }

      .cls-4 {
        fill: #ffd9b3;
      }

      .cls-5 {
        fill: #07335c;
      }

      .cls-6 {
        fill: #f6aa71;
      }

      .cls-7 {
        fill: #4c8d4d;
      }

      .cls-8 {
        fill: #a6c688;
      }

      .cls-9 {
        fill: #d18656;
      }

      .cls-10 {
        fill: #4b8d4d;
      }

      .cls-11 {
        fill: #f9eee2;
      }

      .cls-12 {
        fill: #4a884b;
      }

      .cls-13 {
        fill: #d38757;
      }

      .cls-14 {
        fill: #faba16;
      }

      .cls-15 {
        fill: #faba17;
      }

      .cls-16 {
        fill: #d28104;
      }

      .cls-17 {
        fill: #fcdc5b;
      }

      .cls-18 {
        fill: #e28e03;
      }

      .cls-19 {
        fill: #a8c789;
      }

      .cls-20 {
        fill: #e69002;
      }

      .cls-21 {
        fill: #11243c;
      }

      .cls-22 {
        fill: #f9b98a;
      }

      .cls-23 {
        fill: #fcdd5b;
      }

      .cls-24 {
        fill: #fcdd5c;
      }

      .cls-25 {
        fill: #a7c688;
      }

      .cls-26 {
        fill: #fbdd5d;
      }

      .cls-27 {
        fill: #e18d03;
      }
    </style>
  </defs>
  <g>
    <path class="cls-21" d="M746.04,467.01v242c-70.85-33.84-141.04-69.8-210.77-105.46l9.76-21.05-1.81-.66c-.07-.46.84-.75.82-.82,23.4-48.99,45.57-98.88,66.5-149.68,1.48-2.7,3.31-5.14,5.5-7.32.32-.69,1.65-1.12,1.96-1.77.77-1.62,4.46-10.05,5.52-10.13l122.52,54.9Z"/>
    <path class="cls-11" d="M616.04,424.01c-22.76,49.89-42.88,105.35-69.18,154.37-.75,1.4-.39,3.16-2.82,2.63-.66-2.49-32.42-13.16-35.1-16.42-.83-1-.95-1.56-.76-2.84.15-1.01,4.92-11.63,5.86-13.74,18.69-42.09,38.4-84.29,58-126,1.14-2.44,4.99-13.4,7.47-13.68,4.11-.46,30.2,14.3,36.53,15.68Z"/>
    <g>
      <path class="cls-13" d="M134.04,386.01l73,32c-4.35,1.92-10.77,9.59-13.03,10.54-.7.3-1.27.42-1.99.09-32.49-13.71-64.27-29.48-96.98-42.63h39Z"/>
      <g>
        <path class="cls-6" d="M435.04,367.01c.59-.53,1.2-1.03,1.87-1.42,6.56-3.73,49.91,2.56,54.86,8.42.5.6.9,1.28,1.27,2,13.29,5.86,25.74,15.82,38.33,23.17,13.41,7.83,27.28,14.97,40.67,22.83-1.9,6.34-3.85,12.71-6.59,18.75-13.66,30.06-27.53,60.11-41.52,90.03-2.81,6.01-6.33,11.64-9.89,17.22-21.55-7.96-43.9-28.23-67.55-27.05-55.64,5.44-116.14,28.84-171.08,32.91-9.27.69-18.25-1.78-26.9-4.84-64.15-36.56-128.9-72.66-192.15-110.85-12.81-7.74-48.89-27.16-54.5-39.5-5.94-13.07,3.15-21.21,15.17-23.67,8.96-1.78,17.36-.56,26.1,1.55,16.96,4.09,7.76,2.58-3.15-.74-4.44-.43-8.43-1.36-11.96-2.81,10.31-3.9,20.66-2.49,31,0,7.83-1.52,20.39,3.28,26,9,4.79.02,8.12,1.35,10,4l10.09,1.98,87.75,38.91,10.62-9.09,3.54.2c.03-.54.1-1.06.26-1.56,1.23-3.73,28.13-5.27,33.14-5.38,43.05.43,84.87-1.56,122.72-24.31l7.88-1.75c.76-3.2,4.09-4.87,10-5l1.07-2.62c14.39-5.6,29.44-9.93,44.74-12.15l2.19,1.77c.81-3.08,4.98-2.82,6,0Z"/>
        <path class="cls-9" d="M28.04,373.01c22.87.03,53.61,15.42,74.68,24.82,27.68,12.36,54.83,26.04,82.35,38.75l4.97-.57c-6.52,23.24,15.9,34.49,35.47,36.03,34.41,2.71,75.29-.86,109.99-2.08,19.02-.67,38.03-1.09,57.04-1.96,1.4.69.34,1.75-.53,2.47-2.73,2.24-34.27,4.96-40.47,5.53-23.23,2.14-48.72,4.27-71.95,5.05-19.42.65-56.86,2.51-73.8-4.28-14.9-5.97-24.04-18.01-22.87-34.63-40.52-16.8-79.32-40.25-119.9-56.6-14.87-5.99-29.53-11.63-45.97-10.53,2.69-.55,8.62-2,11-2Z"/>
        <path class="cls-22" d="M243.04,426.01l.96,32.96c-13.29,2.54-31.81,6.92-43.45-1.96-7.81-5.96-7.13-14.27-1.5-21.5,3.24-4.16,11.29-9.5,16.5-9.5h27.5Z"/>
      </g>
    </g>
  </g>
  <g>
    <path class="cls-4" d="M465.04,248.01c.67,16.17,13.61,29.19,30.01,29.5-19.71,2.73-26.57,12.88-30.01,31.5-.98,5.3-.6,10.77-2.01,15.99l-.99-9.99c-2.22-1.2-3.59-4.58-1-6-.9-.18-.87-.52,0-1-3.97-3.77-5.96-12.31-7-18-3.01.32-8.58-5.09-9-8-8.79-.53-23.57-6.63-6.91-8.47,3.12-1.87,5.75-2.38,7.91-1.53,12.17-7.25,14.85-19.73,16.01-32.99l2.99,8.99Z"/>
    <g>
      <path class="cls-20" d="M493.04,376.01c-18.27-8.06-38.2-9.95-58-9l-2.34-.86c-4.75-16.14-9.5-32.29-14.25-48.43l1.58-1.7c-.02-.78.14-1.97.63-2.02,7.9-.67,33.72-2.21,40.15-.96l1.22,1.97,1.22-.43c-.6-3.1-.01-4.96,1.78-5.57,4.13-.47,7.96.86,9.51,4.99,5.77,17.76,12.73,35.24,17.75,53.24.77,2.75,2.51,6.11.74,8.76Z"/>
      <path class="cls-2" d="M303.04,223.01c1.11-.46,2.15-.11,3.14,1.04l50.67-.04,1.19,2c3.78,1.77.78,6.6-3,7l-6.84,1.3c-24.95-1.37-50.04-1.21-74.84,1.06-4.03,2.98-6.61,7.34-7.75,13.07l-5.21,17.74-2.36.83c-.85-1.27-.95-2.3-2.23-3.36-9.8-8.1-22.93-15.79-33.77-22.64-2.49.71-5.65-3.68-6-6-2.71-1-7.65-1.87-10.5-2.01-5.46-.27-12.63.09-18.5,0-.61-.72-1.35-1.32-2-2l1.48-2,109.13.07c1.56.46,2.45-.7,3.38-1.07-.6-2.1,2.27-4.2,4-5Z"/>
      <g>
        <path class="cls-14" d="M417.04,309.01l4.37-2c4.07-.91,22.11-.39,27.01,0,.28.02.51.67.73,1.5,4.11-.23,8.07-.07,11.89.5.27,1.71,1.7,3.76,1,6l-42,1-1.35.42c-2.24-6.15-40.42-4.47-38.46-4.23,10.67.21,21.24.81,31.72,1.81,6.69,16.81,12.88,33.88,18.58,51.22l-1.5,1.78c-13.2,1.27-35.68,7.69-48,13-7.26-.92-59.8,1.59-61.56-.93-1.52-2.17.44-7.49,1.07-10.06,4.36-17.77,12.72-35.84,17.29-53.71,2.27-3.99,5.17-5.78,9.7-6.3,19.89-2.27,48.58,0,69.5,0Z"/>
        <path class="cls-17" d="M420.04,316.01l15,51c-1.97.1-4.05-.19-6,0l-18-51.5-59-2.51,3.47-2.01c17.47-.33,39.85-2.03,57.05,0,3.93.47,5.23,2.02,7.48,5.02Z"/>
      </g>
      <path class="cls-18" d="M418.04,282.01c3.61.87,5.66,10.31,6.09,14.15,1.3,4.42.6,7.04-2.09,7.85l-54-2.01c.44-3.28,2.7-5.74,1.81-9.23-1.19-4.67-7.08-17.54-9.61-22.45-.55-1.07-2.38-4.39-2.19-.31l-2.28-.68c-2.48-9.67-5.49-19.15-9.03-28.44l1.31-1.88c16.02-1.35,34.88,1.79,50.55.05,2.27-.25,3.47-.34,3.45-3.05.71.82,1.27.71,2.05,2.4,4.72,10.16,10.41,31.88,13.95,43.6Z"/>
      <g>
        <path class="cls-16" d="M222.04,241.01l3.94.11c11.12,6.47,21.71,13.68,31.77,21.63l.29,4.26,1.17.72c-3.51,11.13-6.55,22.5-9.13,34.13l110.08.15c.79.27,1.42.93,1.89,2-.03-1.68.59-2.4,2.08-2.56-1.78-10.05-4.32-19.93-7.62-29.64l1.54-1.8c-.45-2.09-.6-4.1,1.88-3.24s15.56,28.85,11.18,33.34l49.83,1.86,1.1,2.04c1.4,2.44-.26,4.1-5,5l-1.63,1.33c-19.8-1.33-39.91-1.8-59.74-.68-4.32.25-14.25,1.5-15.98,6.38-7.11,19.92-14.21,41.13-18.73,61.46,20.09.37,39.97.74,59.62,1.12l.47,1.39c-2.79,1.2-6.92,3.5-10,5-2.43.54-4.86,1.03-7.31,1.38s-4.88.66-7.32.68c-62.91.51-127.06.7-191.04.88-5.22.01-10.43-.3-15.66-.62s-10.45-.8-15.67-1.32c-.01.77-.16,1.92-.67,2-10.73,1.63-27.55-.19-38.33-2-3.28-1.32-6.74-2.74-10-4l1.67-1.38c29.14-.41,58.4-.83,87.77-1.27l3.56,1.64c.07-1.38,1.02-2.38,2.85-3.02,1.92-2.99-15.48-60.48-21.85-66.98-10.34-.36-21-.7-32-1-2.87-2.23-4.58-2.29-6-6,2.24-.79,4.55-1.55,6.94-1.54,33.09.15,66.13.14,99.24-.61,2.41.18,4.66,1.12,6.82,2.16-.02-1.41.93-2.46,2.85-3.17-5.19-19.49-10.76-38.96-16.71-58.39l1.86-1.44Z"/>
        <path class="cls-14" d="M271.04,310.01l-1.3,1.97c-13.35-.34-26.7-.27-40.05.2l53.81,1.7c1.63,0,2.68.78,3.32,2.26l19.92,57.21c.4,2.21.89,6.15-1.71,6.66-24.75,2.8-58.56-.39-84.54-.04-2.12.03-4.09,1-5.97,1.03-3.93.06-22.22.6-24.07-1.92-1.64-2.23,5.05-21.78,6.31-25.84,3.17-10.26,7.99-28.91,12.22-37.78,2.3-4.83,5.45-6.01,10.51-6.49,13.61-1.28,31.94-.13,46.05.02,1.69.02,4.45-.64,5.49,1.02Z"/>
        <path class="cls-3" d="M271.04,310.01c6.42.15,17.22-1.72,20.76,4.74l18.02,59.04c.88,4.56-.62,5.75-4.78,6.22l-.23-6.26-20.17-57.84-60.6-1.91c.14-1.13-.57-2.23.59-3.08,2.24-1.65,40.28-1.06,46.41-.91Z"/>
      </g>
      <g>
        <path class="cls-15" d="M127.04,310.01c8.82,0,17.68-.11,26.51-.02,1.69.02,4.45-.64,5.49,1.02l-1.67,1.47c-18.27.77-36.7.72-55.28-.14,18.58.26,37.05.96,55.42,2.09,7.87,21.32,15.22,42.92,22.05,64.81l-1.53,1.76c-21.53,2.52-51.44.15-74.46,1.04-6.16.24-12.39-.26-18.54-.04-8.44-3.27-17.17-6.87-26-9l18.5-57c1.55-3.52,4.07-5.56,7.98-6.02,11.82-1.38,29.04.02,41.52.02Z"/>
        <path class="cls-23" d="M159.04,311.01c2.83.21,4.34,2.67,5.51,4.99,5.57,11.1,14.17,41.88,17.2,54.8,1.26,5.36,3.46,9.37-3.71,10.21l-21.42-65.08-65.57-1.93c-.28-2.6,1.43-2.81,3.44-3.05,19.81-2.35,44.24,1.86,64.55.05Z"/>
      </g>
      <g>
        <path class="cls-14" d="M187.04,233.01l2.12-1.99c8.88-.71,17.55-.17,26,1.6l.87,2.38c-6.08,1.08-7,2.1-2.77,3.06,7.99,21.09,15.42,42.47,22.28,64.17l-1.51,1.78c-37.66-1.16-75.44,2.9-113,0-1.75-4.57-.42-6.36.74-10.76,3.61-13.7,11.86-41.16,17.48-53.52,1.06-2.33,2.52-4.95,5.04-5.96,5.19-2.09,34.83-.87,42.74-.76Z"/>
        <path class="cls-24" d="M216.04,235.01c2.28-.21,5.31,4.2,6,6,.29.74-.05,2.6.45,4,6.36,17.57,10.69,35.87,16.52,53.62.72,3.65-1.72,4.95-4.97,5.38l-21.47-64.03c-1.8-1.28-3.88-1.73-6.03-1.97-15.28-1.7-33.5,1.32-49.05.05-1.75-.14-3.28.2-4.44-1.57-.48-2.42,1.94-1.42,3.48-1.48,19.76-.84,39.74.62,59.51,0Z"/>
      </g>
      <g>
        <path class="cls-14" d="M355.04,233.01c12.63.06,30.74-1.55,42.55-.05,3.36.43,2.76,1.08,4.45,3.05,1.27,1.9,1.53,2.81-.2,4.31-2.6,2.25-43.39.85-50.46.47l-3.34-1.78c-2.27-2.54-36.63-4.19-35.39-2.89,9.5.26,18.93.91,28.27,1.94,8.04,21.13,15.59,42.52,22.63,64.18l-1.51,1.77-112.36-.14c-.84-.2-1.25-.71-1.52-1.5-1.28-3.82,7.97-29.54,9.87-35.36,2.51-7.69,5.77-21.8,9.23-28.27,1.21-2.27,3.43-4.14,5.71-5.29,27.33-.72,54.73-.57,82.05-.45Z"/>
        <path class="cls-1" d="M348.04,239.01c3.33,6.44,7.67,23.18,10,31,1.47,4.93,9.51,30.2,7.85,32.86-.35.56-2.96.81-3.85,1.14l-22.05-64.45-58.95-3.06c-.48-2.42,1.94-1.43,3.48-1.48,15.72-.61,42.11-1.78,57.03-.02,2.99.35,5.05,1.26,6.48,4.02Z"/>
      </g>
      <path class="cls-27" d="M339.04,162.01c5.44,11.41,16.07,46.3,18.55,58.98.35,1.79.57,3.17.45,5.02l-53.36.04c-.55-.15-1.24-2.22-1.64-3.04-3.94-3.01-6.45-7.74-7.53-14.19-3.46-13.51-7.21-26.92-11.25-40.23l.78-3.57c1.04-1.66,3.79-1,5.49-1.02,16.03-.2,33.05,1.59,48.51-1.98Z"/>
      <g>
        <path class="cls-14" d="M330.04,157.01c4.03-2.14,12.94,0,9,5-.4.6-.83,1.18-1.35,1.66-4.48,4.13-44.08,2.89-52.65,1.34-2.27,1.61-6.81-3.47-6.5-6l-.93,2c-20.16.27-40.28-.04-60.37-.94l-1.21-1.06c6.91,1.57,14.25,2.26,22.03,2.07,13.27-.96,26.2-.47,38.8,1.47,8.15,21.08,16.03,42.3,23.64,63.65l-1.47,1.81-.04,2.34c-37.91.87-75.9,1.09-113.96.66-4.9-5.17-2.62-7.47-1.02-13.52,4.97-18.71,13.54-37.45,18.79-56.21,1.27-2.78,3.56-3,6.23-3.28,15.53-1.62,35.8.19,52,0,2.37-2.5,21.16-3.73,22.62-2.94.7,1.61,1.79,2.34,3.38,1.94,12.7-.1,31.11-1.29,43,0Z"/>
        <path class="cls-26" d="M285.04,165.01c6.97,17.51,9.9,41.42,18,58-.43,3.56-1.16,3.86-4,5l-23.43-64.07c-3.38-2.18-32.32-.61-39.11-.89-2.13-.09-4-.9-5.97-1.03-4.14-.27-13.91,2.02-14.49-3.01h62.5c1.23,0,5.8,4.66,6.5,6Z"/>
      </g>
    </g>
    <path class="cls-5" d="M461.04,308.01h-12s5-18,5-18c3.96,5.57,5.74,11.39,7,18Z"/>
    <g>
      <path class="cls-8" d="M261.04,158.01l-7.93-71.93c16.09-1.72,27.03-17.37,23.95-33.04l62.97-9.03-16.19,67.31c-1.13,2.25-5.12,2.34-7.49,3.51-17.82,8.76-25.53,20.64-30.37,39.63-.48,1.88-2.2,2.88,1.06,2.55-8.17.07-17.41.9-26,1Z"/>
      <path class="cls-12" d="M445.04,282.01c3.66,1.54,6.71,4.79,9,8,.71,5.12-.06,10.39-2.32,15.81,4.56-.59,7.66.14,9.32,2.19.06.32-.05.67,0,1h-44c1.32-2.25,3.71-2.47,5-5,2.21-4.36-2.41-16.73-4-22h27Z"/>
      <g>
        <path class="cls-7" d="M465.04,248.01c-.73.44-1.43.48-2.1.03-.93,4.94-2.23,9.95-4.77,14.34-2.32,4-7.3,11.33-12.13,9.64l-1.8-1.12,43.73-194.11c-15.33-4.93-21.15-18.54-22.03-33.42l-72.13-17.74c-5.75,13.74-17.82,23.69-33.29,22.1l-24.45,106.75c-.91,1.97-2.92,2.82-6.04,2.54l-2.39,1.79c-12.72-.48-25.46-.41-38.21.18l-2.4-1.97c-1.67.16-2.65.22-3.63-1.32-.43-.67,4.05-12.81,5.03-14.99,6.86-15.33,17.94-24.82,33.66-30.26l15.2-64.01-57.34,8.22c.34,15.94-8.42,29.66-24.61,33.41l7.56,68.54-1.86,1.41c-14.54.4-29.16.48-43.85.22-2.29,2.26-5.71,1.93-8.15-.22l38-1-13-113.99,112.86-13.14,6.14-29.87,159.29,36.21,1.63,1.42-48.93,210.38Z"/>
        <g>
          <path class="cls-25" d="M330.04,157.01l4.01-2.49,24.95-109.08c16.28,2.53,28.04-7.62,33.49-22.2l76.11,18.72c-.47,13.49,3.51,24.58,15.76,31.23,2.15,1.17,5.96,1.01,5.73,3.29l-44.05,195.54c-4.99,2.97-8.84,4.66-15,4.01l14,5.99c-.09.78-.35,1.96-.9,2-6.78.53-17.85.52-24.65,0l-1.45-2-2.44-1.17c-3.62-14.7-8.32-28.92-14.11-42.65l.55-2.18c-1.05.56-2.41.23-4.07-.98-13.48-.85-27-.86-40.56-.03l-2.37-1.99c1.85-2.38,2.8-3.92,3-7l-1.97-1.02c-3.7-20.75-10.67-41.32-18.32-60.99l1.28-1.99c-.46-.96-.72-2.54-1.66-3.07-.48-.28-6.6-1.85-7.34-1.93Z"/>
          <g>
            <circle class="cls-10" cx="402.55" cy="146.03" r="54.96"/>
            <path class="cls-19" d="M430.93,126.11c.68.8.49,6.18-1.53,6.82-2.93.92-13.33-4.67-14.26-1.31-2.35,8.49,11.47,6.5,12.76,8.52.63.99.39,6.58-.8,7.45-2.22,1.62-11-2.46-14.05-2.59-1.55,10.55-10.17,14.74-20.01,12.02l11.92,24.57,4.07,1.43c.27,1.65-1.31.97-2.37.88-2.15-.19-11.37-1.32-12.37-2.15-2.1-6.49-18.01-27.56-16.15-33.09,1.48-4.38,14.31,1.86,18.15,1.19,2.17-.38,6.19-4.18,5.71-6.28-1.02-4.52-28.41-2.22-20.47-13.58,2.64-3.78,24.34,9.02,23.34-1.52-.28-3-20.06-4.71-20.84-5.47-.46-.45.29-7.35,1.12-7.88,5.59.91,44.24,9.2,45.77,10.98Z"/>
          </g>
        </g>
      </g>
    </g>
  </g>
</svg>