<?xml version="1.0" encoding="UTF-8"?>
<svg id="Layer_1" data-name="Layer 1" xmlns="http://www.w3.org/2000/svg" xmlns:xlink="http://www.w3.org/1999/xlink" viewBox="0 0 2985.85 2945.24">
  <defs>
    <style>
      .cls-1 {
        fill: none;
      }

      .cls-2 {
        fill: #68272a;
      }

      .cls-3 {
        fill: #0270a0;
      }

      .cls-4 {
        clip-path: url(#clippath-1);
      }

      .cls-5 {
        clip-path: url(#clippath-3);
      }

      .cls-6 {
        clip-path: url(#clippath-4);
      }

      .cls-7 {
        clip-path: url(#clippath-2);
      }

      .cls-8 {
        fill: #fff;
      }

      .cls-9 {
        fill: #b56739;
      }

      .cls-10 {
        fill: #fbc5a9;
      }

      .cls-11 {
        fill: #fece2f;
      }

      .cls-12 {
        fill: #1a1a1a;
      }

      .cls-13 {
        clip-path: url(#clippath);
      }

      .cls-14 {
        fill: #b0dfe5;
      }
    </style>
    <clipPath id="clippath">
      <polygon class="cls-1" points="2515.52 2866.15 127.44 2234.36 597.77 0 2985.85 631.79 2515.52 2866.15"/>
    </clipPath>
    <clipPath id="clippath-1">
      <rect class="cls-1" x="279.83" y="633.17" width="2545.14" height="2123.55" transform="translate(-249.33 267.87) rotate(-9.13)"/>
    </clipPath>
    <clipPath id="clippath-2">
      <rect class="cls-1" x="842.45" y="671.66" width="259.55" height="277.28"/>
    </clipPath>
    <clipPath id="clippath-3">
      <rect class="cls-1" x="1154.46" y="369.78" width="361.06" height="337.42" transform="translate(157.09 1365.97) rotate(-57.06)"/>
    </clipPath>
    <clipPath id="clippath-4">
      <rect class="cls-1" x="1799" y="592.65" width="442.84" height="413.28"/>
    </clipPath>
  </defs>
  <g class="cls-13">
    <path class="cls-14" d="M2812.74,1434.96c-65.85,597.21-786.87,1084.54-1418.09,1085.71-532.4.57-1204.04-305.85-1082.35-1152.99C397.67,773.82,878.52,380.23,1507.2,310.4c630.56-72.96,1371.67,527.88,1305.53,1124.55h0Z"/>
  </g>
  <g class="cls-4">
    <path class="cls-14" d="M347.2,2189.98c-147.49-536.73,372.05-1238.54,976.95-1489.11,510.35-210.99,1262.49-214.52,1444.57,558.01,127.59,541.58-194.7,1068.27-772.95,1376.55-578.94,311.7-1501.55,90.94-1648.57-445.45h0Z"/>
  </g>
  <rect class="cls-1" x="0" y="874.93" width="2934.61" height="1610.64"/>
  <path class="cls-10" d="M859.61,1963.83s-88.81,81.22-110.19,150.96c-21.37,69.74,56.65,143.29,128.57,72.09s119.3-116.42,119.3-116.42l-137.68-106.62Z"/>
  <path class="cls-8" d="M818.66,2007.98s-46.31,100.6-38.21,138.76c8.11,38.16-9.26,49.72-9.26,49.72,0,0-41.23-28.36-20.84-87.88,15.05-43.94,68.31-100.6,68.31-100.6Z"/>
  <path class="cls-12" d="M816.48,2219.23c-12.22,0-24.16-3.3-35.28-10.01-31.37-18.92-46.05-59.04-34.91-95.39,21.39-69.79,107.45-149.08,111.1-152.42,1.18-1.08,2.97-1.15,4.23-.17l137.69,106.62c.75.58,1.22,1.47,1.27,2.42.05.95-.32,1.88-1.01,2.54-.48.46-48.18,46.03-119.26,116.38-20,19.81-42.31,30.03-63.82,30.03h0ZM859.81,1968.13c-13.29,12.56-88.17,85.34-107.25,147.62-10.27,33.51,3.2,70.47,32.03,87.86,27.96,16.87,62,9.74,91.09-19.06,61.46-60.84,105.47-103.17,116.6-113.84l-132.47-102.59Z"/>
  <path class="cls-10" d="M2313.5,1159.43s-97.44,52.38-261.8,94.6c-157.13,40.37-130.71,25.7-597.16,213.31,0,0-148.61,134.54-252.35,218.25l533.36,597.61c213.39-139.3,407.11-306.32,476.15-389.65,106.97-129.09,310.56-215.86,310.56-215.86l-208.77-518.26Z"/>
  <path class="cls-12" d="M1735.56,2286.48c-.91,0-1.81-.38-2.45-1.1l-533.37-597.61c-.6-.67-.89-1.55-.82-2.44.07-.89.51-1.72,1.21-2.28,102.48-82.69,250.73-216.78,252.21-218.13.29-.26.62-.47.98-.61,418.96-168.51,439.64-173.7,554.42-202.52,12.95-3.25,27.09-6.8,43.15-10.93,162.02-41.62,260.09-93.79,261.06-94.31.82-.44,1.79-.51,2.67-.2.88.32,1.57.99,1.93,1.86l208.77,518.26c.67,1.65-.11,3.54-1.75,4.24-2.03.87-204.1,87.96-309.33,214.94-70.08,84.57-267.62,253.68-476.89,390.3-.55.36-1.17.53-1.79.53h0ZM1206.93,1685.98l529.2,592.94c207.86-136,403.55-303.57,473.06-387.45,99.25-119.77,283.36-204.18,308.86-215.5l-206.24-511.97c-18.31,9.34-112.87,55.59-259.29,93.2-16.07,4.13-30.23,7.68-43.19,10.94-114.36,28.71-135,33.89-553.02,202.02-8.93,8.07-149.66,135.1-249.38,215.81h0Z"/>
  <path class="cls-10" d="M414.04,1677.69s203.59,86.77,310.56,215.86,513.17,459.09,828.17,575.64c117.87,50.24,179.19-57.72,171.8-93.77,74.74,23.41,143.17-45.87,132.63-133.86,87.99,27.75,148.87-44.72,123.04-126.58,99.25,38.69,133.43,49.62,186.1,56.55,75.24,9.89,172.89-100.38,59.03-163.56-125.04-69.38-337.72-215.83-419.19-268.27s-324.42-272.38-324.42-272.38l148.8-128.87s-103.84-77.15-210.67-117.63c-106.84-40.48-404.65,58.86-562.61,18.29-164.36-42.22-234.48-79.7-234.48-79.7l-208.77,518.27Z"/>
  <path class="cls-8" d="M2113.64,1943.23s-97.26-20.82-133.72-45.1-92.04-98.87-154.56-109.28c-62.52-10.41-159.77-67.65-194.51-112.74s-72.94-143.97-72.94-143.97c0,0,197.98,173.46,237.93,194.27,39.94,20.82,317.81,216.82,317.81,216.82Z"/>
  <path class="cls-8" d="M819.81,1232.06s62.52,69.38,204.93,55.51c149.66-14.58,291.76-74.58,418.54-53.77-48.63-36.43-126.78-24.28-185.82-15.61-59.05,8.67-265.71,41.63-347.34,27.75-81.63-13.87-90.31-13.87-90.31-13.87h0Z"/>
  <path class="cls-11" d="M1724.56,2375.43c-100.21-28.03-235.26-106.97-235.26-106.97l235.26,106.97Z"/>
  <path class="cls-12" d="M1724.56,2378.7c-.3,0-.59-.04-.89-.12-99.47-27.82-234.68-106.51-236.03-107.3-1.56-.91-2.09-2.92-1.17-4.48.92-1.57,2.93-2.09,4.49-1.17,1.35.79,135.84,79.05,234.49,106.64,1.75.48,2.77,2.3,2.27,4.04-.41,1.44-1.73,2.39-3.16,2.39Z"/>
  <path class="cls-12" d="M1611.75,2485.43c-19.24,0-39.54-4.39-60.27-13.22-309.55-114.53-718.74-443.01-829.41-576.57-105.22-126.98-307.29-214.08-309.32-214.94-1.64-.7-2.42-2.58-1.76-4.24l208.77-518.26c.35-.86,1.05-1.54,1.92-1.85.89-.32,1.85-.25,2.67.19.7.37,71.79,37.81,233.75,79.41,80.75,20.75,196.77,4.85,308.97-10.51,103.57-14.19,201.4-27.58,253.99-7.66,106.04,40.17,210.43,117.28,211.47,118.06.8.6,1.29,1.52,1.32,2.51.04.99-.38,1.95-1.13,2.6l-146,126.45c27.06,24.41,245.58,220.87,321.25,269.57,21.49,13.84,52.21,34.28,87.79,57.95,100.97,67.18,239.24,159.18,331.21,210.21,44.12,24.48,62.31,60.03,49.9,97.55-14.38,43.49-67.23,77.88-110.95,72.12-52.97-6.97-88.81-18.62-180.68-54.34,10.26,39.26,1.34,78.54-23.95,103.78-24.92,24.88-61.27,32.74-100.32,21.88,3.99,45.34-12.19,87.61-43.82,113.84-25.35,21.02-57.43,28.17-88.75,19.99.99,21.46-14.97,56.36-43.36,79.52-21.16,17.26-46.18,25.98-73.29,25.98h0ZM418.27,1675.96c25.51,11.32,209.61,95.73,308.86,215.5,110.29,133.08,518.09,460.44,826.78,574.66,61.15,26.06,102.78,7.99,126.98-11.74,31.18-25.44,43.72-62.45,40.46-78.3-.23-1.14.15-2.31,1.02-3.09.87-.77,2.08-1.05,3.18-.69,30.66,9.6,62.52,3.26,87.41-17.39,31.05-25.75,46.37-67.98,40.98-112.95-.13-1.11.31-2.21,1.16-2.91.86-.71,2.02-.93,3.08-.6,38.44,12.12,74.32,5.25,98.46-18.85,25.32-25.27,32.97-64,20.47-103.62-.38-1.2-.03-2.52.89-3.38.92-.87,2.26-1.11,3.43-.66,95.91,37.39,131.87,49.33,185.34,56.35,40.83,5.35,90.37-26.89,103.87-67.68,6.65-20.12,9.41-58.55-46.85-89.77-92.2-51.16-230.61-143.25-331.66-210.48-35.55-23.66-66.26-44.08-87.71-57.89-80.75-51.98-322.41-270.5-324.84-272.7-.7-.63-1.09-1.53-1.08-2.46s.42-1.83,1.13-2.44l145.68-126.18c-18.54-13.35-111.96-78.94-206.57-114.79-51.02-19.32-148.05-6.04-250.77,8.03-112.83,15.46-229.49,31.43-311.49,10.37-143.6-36.89-216.29-70.62-231.95-78.34l-206.25,512Z"/>
  <path class="cls-11" d="M1593.22,2142.12s219.98,87.88,263.98,99.45l-263.98-99.45Z"/>
  <path class="cls-12" d="M1857.2,2244.84c-.28,0-.56-.04-.84-.11-43.69-11.48-255.37-95.98-264.35-99.57-1.68-.67-2.5-2.58-1.83-4.26.67-1.69,2.6-2.5,4.26-1.83,2.2.88,220.29,87.94,263.59,99.32,1.75.46,2.8,2.25,2.34,4-.39,1.47-1.72,2.44-3.17,2.44Z"/>
  <path class="cls-11" d="M1706.68,1991.79s222.93,98.38,273.56,123.2l-273.56-123.2Z"/>
  <path class="cls-12" d="M1980.24,2118.27c-.48,0-.98-.1-1.44-.34-49.99-24.5-271.21-122.16-273.44-123.14-1.66-.73-2.4-2.67-1.68-4.32.73-1.65,2.67-2.4,4.33-1.67,2.23.99,223.57,98.69,273.68,123.26,1.63.8,2.3,2.76,1.5,4.38-.57,1.16-1.73,1.83-2.95,1.83h0Z"/>
  <path class="cls-10" d="M2221.03,1200.83s-217.95,90.2-366.15,46.25c-110.56-32.78-196.82-25.44-296.39-6.94-84.79,15.76-307.97,69.96-354.86,116.79s-168.66,130.66-201.46,147.44c-94.94,48.57,0,270.59,323.02,38.16,93.78-31.22,224.03-26.02,224.03-26.02,0,0,250.08,277.53,494.67,111.01,269.85-183.71,177.14-426.7,177.14-426.7h0Z"/>
  <path class="cls-10" d="M965.4,2130.56s-27.5,57.24-13.89,107.54c14.85,54.93,66.28,72.85,128.51,45.1,79.54-35.47,62.45-164.44,7.24-201.21-72.94-48.57-121.86,48.57-121.86,48.57Z"/>
  <path class="cls-8" d="M1115.92,2115.82s-30.39-32.09-73.81-25.15c-33.83,5.41-64.26,25.15-83.36,58.11,31.26-65.91,53.84-73.72,71.21-78.05,17.37-4.34,61.65-4.34,85.96,45.1h0Z"/>
  <path class="cls-12" d="M1025.47,2299.33c-13.08,0-25.18-2.52-35.84-7.57-20.27-9.62-34.55-27.88-41.29-52.8-13.76-50.89,12.96-107.43,14.1-109.82,0-.02.02-.04.03-.06,1.04-2.07,26.01-50.82,67.67-61.81,19.45-5.13,39.29-1.1,58.95,11.99,31.88,21.23,52.03,71.99,47.92,120.71-3.47,41.14-23.23,71.76-55.64,86.22-19.59,8.74-38.59,13.14-55.89,13.14h0ZM968.35,2132.01c-.74,1.57-26.67,57.18-13.67,105.24,6.22,23.02,19.29,39.82,37.77,48.59,23,10.91,53.63,8.91,86.24-5.63,40.66-18.13,49.89-58.4,51.78-80.78,3.85-45.73-15.5-95.05-45.03-114.71-18.02-12-36.06-15.74-53.61-11.12-38.41,10.13-62.79,57.04-63.49,58.41h0Z"/>
  <path class="cls-10" d="M1281.48,2376.86s-166.72,79.79-187.56-65.91,69.76-142.23,101.02-131.83c31.26,10.41,79.6,72.85,86.54,197.74Z"/>
  <path class="cls-8" d="M1230.54,2215.55c-37.34-33.82-106.8-24.28-128.51,10.41,6.94-40.76,28.65-45.96,55.57-49.43s52.1-5.2,72.94,39.03h0Z"/>
  <path class="cls-12" d="M1189.72,2402.03c-17.62,0-35.45-3.07-51.22-11.5-26.23-14.01-42.32-40.63-47.83-79.12-8.57-59.95.47-101.5,26.87-123.51,25.72-21.43,61.4-17.56,78.43-11.89,31.79,10.58,81.67,72.76,88.78,200.66.07,1.32-.66,2.56-1.86,3.14-2.56,1.23-47.13,22.21-93.18,22.21h0ZM1166.65,2178.08c-14.7,0-31.36,3.57-44.9,14.86-24.54,20.46-32.81,60.01-24.58,117.55,5.19,36.31,20.13,61.29,44.41,74.26,49.4,26.4,123.46-4.16,136.5-9.93-7.34-122.27-55.41-183-84.18-192.58-6.67-2.22-16.44-4.15-27.25-4.15h0Z"/>
  <path class="cls-10" d="M1483.23,2441.05s-45.44,57.24-160.06,32.96-86.43-130.67-79.89-159.58c17.66-78.05,135.46-72.85,166.72,83.26,38.21,31.22,73.23,43.36,73.23,43.36Z"/>
  <path class="cls-8" d="M1372.95,2307.49c-13.89-22.55-85.97-81.52-128.52-.87,19.11-16.48,62.53-35.56,128.52.87Z"/>
  <path class="cls-12" d="M1696.7,1983.68c24.18,5.16,56.26,22.01,91.47,46.55-31.62-7.82-70.8-15.42-105.77-13.52s-40.47-43.07,14.3-33.03h0Z"/>
  <path class="cls-12" d="M1608.7,2137.48c24.18,5.16,56.26,22.01,91.47,46.55-31.62-7.82-70.8-15.42-105.77-13.52s-40.47-43.07,14.3-33.03h0Z"/>
  <path class="cls-8" d="M2111.91,1237.26s-62.52,58.98-138.93,60.71-209.27-29.97-254.71-28.91c-74.68,1.73-267.29,27.22-408.12,84.99-97.26,39.89-170.51,97.87-196.82,117.37-53.84,39.89-133.72,69.38-133.72,69.38,0,0-10.42-17.35,33-41.63s158.04-105.81,177.14-130.09c19.1-24.28,118.1-64.18,118.1-64.18,0,0,295.24-81.52,373.39-81.52s149.36,8.67,194.51,22.55c45.15,13.88,85.09,36.42,236.19-8.67h0Z"/>
  <g>
    <path class="cls-12" d="M1465,2254.58c24.45,3.69,58.73,25.74,95.37,48.1-32.03-5.89-71.05-9.94-105.79-16.01-34.49-6.03-26.05-43.36,10.42-32.09Z"/>
    <path class="cls-12" d="M1922.42,1726.25c-119.78,0-249.67-69.89-386.75-208.22-13.11-.24-122.14-1.31-208.96,27.45-71.13,51.13-136.24,83.94-193.54,97.53-47.58,11.28-89.17,8.85-120.24-7.04-30.26-15.47-49.06-43.89-49.06-74.17,0-25.99,13.75-48.54,36.81-60.33,30.79-15.75,153.04-99.31,200.63-146.84,47.7-47.65,273.54-101.11,356.54-117.69,109.84-21.94,198.94-19.85,297.9,6.99,194.72,52.81,455.19-86.19,457.8-87.6,1.59-.85,3.59-.27,4.45,1.32.86,1.59.27,3.58-1.32,4.44-2.21,1.2-187.95,100.32-364.23,100.33-33.6,0-66.83-3.6-98.41-12.16-97.93-26.56-186.12-28.62-294.9-6.89-82.45,16.47-306.63,69.4-353.19,115.9-47.97,47.91-171.24,132.16-202.28,148.04-20.82,10.65-33.24,31.02-33.24,54.5,0,27.81,17.43,53.99,45.48,68.34,31.98,16.35,125.94,40.29,307.36-90.26.27-.19.57-.34.88-.45,93.26-31.05,211.82-27.93,213.01-27.92.84.03,1.64.37,2.24.97,149.02,150.69,289.11,219.76,416.31,205.34,143.14-16.23,218.65-135.9,219.4-137.12.95-1.54,2.97-2.02,4.52-1.06,1.54.95,2.02,2.97,1.07,4.51-.76,1.24-77.83,123.53-224.15,140.18-11.28,1.28-22.67,1.92-34.13,1.92h0Z"/>
    <path class="cls-2" d="M1549.22,1523.46s74.68,74.58,130.25,78.05,102.46,1.73,116.36,29.49c13.89,27.75,83.36,54.93,149.36,25.44,56.45-25.22,140.67,16.19,180.61-18.5-60.78,65.91-192.77,112.74-312.6,64.18s-196.24-97.14-263.97-178.66h0Z"/>
    <path class="cls-2" d="M1680.34,1638.81s54.3-22.87,14.76-35.56c-97.26-31.22-90.55-71.2-91.18-88.46-1.42-39.1-23.45-76.9-58.18-56.08s-84.52,50.88-127.36,52.04-62.52-4.63-71.78-19.66-28.94-33.53-65.99,25.44-96.1,98.29-145.88,102.92-134.3,9.25-165.56-65.91c-1.16,105.23,112.42,94.6,167.88,84.41,100.73-18.5,196.82-97.13,196.82-97.13,82.23-18.59,151.74-29.99,199.14-28.91l147.33,126.91Z"/>
    <path class="cls-2" d="M2157.93,1615.4s14.71-14.84,26.05-33.82c29.52-49.43-27.79-64.18-37.34-25.15s-13.89,94.53-66.86,103.21,12.16,11.27,12.16,11.27l65.99-55.51Z"/>
    <path class="cls-2" d="M2491.66,1692.3s-130.83,52.04-167.88,54.35-84.52,1.16-122.72-26.6c-38.21-27.75-46.31-8.1-27.79,18.5,18.52,26.6,38.21,57.82,26.63,87.88s-37.05,53.19-76.41,53.19c-57.16,0-87.99-25.44-100.73-49.72s-12.73-41.63-59.05-41.63-155.15-49.72-100.73-68.22c-79.89-45.1-166.72-65.91-166.72-65.91,0,0,33.6,30.39,91.47,71.69,111.96,79.92,294.82,201.94,361.23,232.43,35.57-26.98,140.09-168.83,342.7-265.96h0Z"/>
    <path class="cls-2" d="M1414.63,2399.42s2.6,101.47-151.96,43.36c38.21,44.23,120.7,39.89,137.2,36.43,16.5-3.47,71.21-20.82,83.36-38.16-26.92-10.41-68.6-41.63-68.6-41.63Z"/>
    <path class="cls-2" d="M1248.78,2299.97s-63.68,131.25-145.3,42.21c25.47,64.76,83.36,56.66,83.36,56.66l49.78-5.78s-5.79-64.18,12.16-93.09h0Z"/>
    <path class="cls-2" d="M1109.26,2200.52s-99.57,132.4-157.75,37.58c23.45,71.69,84.23,59.55,97.54,56.08s43.42-14.46,43.42-14.46c0,0-1.16-53.77,16.79-79.21h0Z"/>
    <path class="cls-2" d="M842.39,2009.14s85.97,98,57.31,152.64c26.05-21.68,57.31-55.51,57.31-55.51l-114.62-97.14Z"/>
    <path class="cls-12" d="M1583.96,2317.89s112.31,63.6,111.15,119.1c18.52-15.03,30.39-24.57,26.92-59.26-27.79-11.56-138.07-59.84-138.07-59.84h0Z"/>
    <path class="cls-12" d="M1721.73,2196.47s123.88,60.13,123.88,108.7c24.31-27.75,6.95-65.91,6.95-65.91l-130.83-42.79Z"/>
    <path class="cls-12" d="M1836.35,2050.77s137.78,79.79,142.41,137.61c9.26-33.53,10.42-64.76-2.32-79.79-32.42-11.56-140.09-57.82-140.09-57.82Z"/>
    <path class="cls-12" d="M2032.76,2096.81c-.91,0-1.81-.37-2.46-1.1-1.2-1.35-1.08-3.43.28-4.63.43-.37,42.45-38.2,44.14-92.17.06-1.81,1.57-3.2,3.38-3.17,1.81.06,3.23,1.57,3.18,3.38-1.78,56.86-44.53,95.26-46.35,96.87-.62.55-1.39.83-2.17.83h0Z"/>
    <path class="cls-12" d="M2003.79,2074.73c-.91,0-1.81-.37-2.46-1.1-1.2-1.35-1.08-3.42.28-4.62.3-.27,29.79-26.83,30.98-64.67.06-1.77,1.51-3.17,3.27-3.17.04,0,.07,0,.1,0,1.81.06,3.23,1.57,3.18,3.37-1.28,40.73-31.88,68.22-33.19,69.37-.62.55-1.4.82-2.17.82h0Z"/>
    <path class="cls-12" d="M2083.83,2099.5c-.91,0-1.81-.37-2.46-1.1-1.2-1.35-1.08-3.42.28-4.62.3-.27,29.79-26.83,30.98-64.67.06-1.81,1.57-3.36,3.38-3.17,1.81.06,3.23,1.57,3.18,3.37-1.28,40.73-31.89,68.22-33.19,69.38-.62.55-1.4.82-2.17.82h0Z"/>
    <path class="cls-12" d="M1032.78,1573.22c-28.04,0-49.38-12.59-60.79-36.8-.77-1.64-.07-3.59,1.57-4.36,1.64-.77,3.6-.07,4.37,1.57,20.9,44.36,71.43,33.24,92.19,26.4,37.16-12.24,67.23-38.05,64.87-49.8-5.39-26.92-58.92-50.59-59.46-50.83-1.66-.73-2.42-2.66-1.69-4.31.73-1.66,2.66-2.43,4.32-1.69,2.34,1.02,57.21,25.31,63.26,55.55,3.71,18.52-33.5,45.53-69.25,57.31-14.18,4.68-27.4,6.98-39.39,6.98h0Z"/>
    <path class="cls-12" d="M1294.51,1390.29c-1.26,0-2.46-.73-3-1.95-21.17-47.85-64.53-43.98-64.98-43.94-1.78.15-3.41-1.12-3.6-2.93-.18-1.8,1.13-3.41,2.93-3.59.46-.05,48.57-4.35,71.64,47.81.73,1.65-.02,3.59-1.68,4.32-.43.19-.88.29-1.32.29h0Z"/>
    <path class="cls-12" d="M1243.57,1383.35c-.95,0-1.89-.41-2.53-1.19-14.85-18.01-43.13-15.05-43.41-15.02-1.82.23-3.42-1.09-3.63-2.88s1.08-3.42,2.88-3.62c1.3-.15,32.08-3.43,49.22,17.36,1.15,1.4.95,3.46-.45,4.61-.62.5-1.35.75-2.09.75h0Z"/>
    <path class="cls-2" d="M1377.29,2307.48s26.05,65.91,33,90.2c29.52,27.75,93.78,56.37,185.82,81.52-114.62-65.92-194.51-138.77-218.82-171.72h0Z"/>
    <path class="cls-2" d="M1104.63,2092.4s53.84,39.89,76.41,81.52c-27.79,3.47-48.63,5.2-48.63,5.2,0,0,1.74-46.83-27.79-86.73Z"/>
    <path class="cls-2" d="M1226.2,2201.67s34.73,53.77,38.21,72.85c20.84-5.2,34.73-10.41,34.73-10.41,0,0-27.79-34.69-72.94-62.45h0Z"/>
    <path class="cls-2" d="M455.11,1695.18s142.41,48.57,218.82,26.02c71.21-21.01,6.95,79.79,86.83,149.17,30.7,26.67,60.78,105.81,64.26,128.36-57.31-48.57-112.75-125.72-175.41-176.92-57.31-46.84-194.51-126.62-194.51-126.62Z"/>
    <path class="cls-12" d="M1042.03,2200.88c-16.03,0-36.24-4.89-51.04-22.23-12.49-14.63-12.3-36.53-8.17-47.41,2.53-6.67,6.03-8.49,8.51-8.84,2.14-.32,5.33.23,8.57,4.39,2.26,2.07,26.81,23.83,64.23,27.39,18.82,1.79,23.42,8.97,23.97,14.69,1.15,11.96-15.73,26.17-27.24,29.55-4.68,1.38-11.29,2.46-18.83,2.46ZM992.31,2128.88s-.04,0-.06,0c-.65.09-2.06,1.41-3.3,4.67-3.45,9.11-3.61,28.38,7.03,40.84,19.57,22.93,49.78,21.63,63.03,17.74,9.94-2.92,23.28-15.12,22.56-22.64-.6-6.21-11.57-8.18-18.06-8.8-41.46-3.94-67.25-28.31-68.33-29.35-.13-.12-.24-.26-.35-.4-1.24-1.65-2.14-2.08-2.53-2.08h0Z"/>
    <path class="cls-12" d="M1156.66,2286.74c-16.03,0-36.25-4.89-51.05-22.23-11.35-13.29-13-32.28-8.79-43.39,1.82-4.78,4.71-7.69,8.14-8.17,2.19-.32,5.5.24,8.92,4.57,3.16,2.24,28,19.03,64.86,22.53,18.82,1.79,23.42,8.97,23.97,14.69,1.15,11.96-15.73,26.17-27.24,29.55-4.68,1.37-11.28,2.45-18.82,2.45ZM1105.98,2219.43s-.06,0-.09,0c-.51.07-1.78,1.01-2.92,4.01-3.04,8.01-2.68,24.73,7.64,36.81,19.58,22.93,49.79,21.63,63.03,17.74,9.94-2.92,23.28-15.12,22.56-22.64-.6-6.21-11.57-8.18-18.06-8.8-41.24-3.92-67.43-23.24-68.52-24.06-.25-.19-.47-.41-.65-.66-1.27-1.69-2.39-2.42-2.98-2.42Z"/>
    <path class="cls-12" d="M1301.67,2379.54c-16.03,0-36.25-4.89-51.05-22.23-12.49-14.63-12.29-36.53-8.17-47.41,2.53-6.67,6.02-8.49,8.51-8.84,2.12-.3,5.33.22,8.57,4.39,2.26,2.07,26.81,23.83,64.23,27.39,18.82,1.79,23.42,8.97,23.97,14.69,1.15,11.96-15.73,26.17-27.24,29.55-4.68,1.38-11.29,2.46-18.82,2.46h0ZM1251.95,2307.54s-.04,0-.06,0c-.65.09-2.06,1.42-3.29,4.68-3.45,9.11-3.61,28.38,7.02,40.84,19.57,22.93,49.79,21.63,63.03,17.74,9.94-2.92,23.28-15.12,22.56-22.64-.6-6.21-11.57-8.18-18.06-8.8-41.46-3.94-67.25-28.31-68.33-29.34-.13-.12-.24-.26-.35-.4-1.25-1.65-2.14-2.08-2.53-2.08h0Z"/>
    <path class="cls-12" d="M1552.72,2045.8c-.3,0-.6-.04-.9-.13-2.62-.75-64.52-18.81-90.52-57.54-1.01-1.5-.61-3.54.9-4.55,1.5-1.01,3.54-.61,4.55.9,24.65,36.73,86.26,54.72,86.87,54.9,1.74.49,2.75,2.31,2.25,4.05-.41,1.44-1.72,2.38-3.15,2.38Z"/>
    <path class="cls-12" d="M1702.08,1875.24c-.3,0-.6-.04-.9-.13-2.62-.75-64.52-18.81-90.52-57.55-1.01-1.5-.61-3.54.9-4.55,1.5-1.01,3.54-.61,4.55.9,24.65,36.73,86.26,54.72,86.87,54.9,1.74.5,2.75,2.31,2.25,4.05-.41,1.44-1.72,2.38-3.15,2.38h0Z"/>
    <path class="cls-12" d="M1438.68,2186.3c-.3,0-.6-.04-.9-.13-2.62-.75-64.52-18.81-90.52-57.54-1.01-1.5-.61-3.54.9-4.55,1.5-1.01,3.54-.61,4.55.9,24.65,36.73,86.26,54.71,86.87,54.89,1.74.49,2.75,2.31,2.25,4.05-.41,1.44-1.72,2.37-3.15,2.37Z"/>
  </g>
  <path class="cls-8" d="M2118.56,1211.25l323.03,620.97,211.87-86.73-270.92-634.85-263.98,100.6Z"/>
  <path class="cls-12" d="M2441.59,1835.49c-1.19,0-2.33-.65-2.91-1.77l-323.03-620.97c-.43-.83-.49-1.8-.15-2.67s1.02-1.57,1.9-1.9l263.98-100.6c1.64-.62,3.5.16,4.19,1.78l270.92,634.85c.34.81.35,1.72.02,2.53-.33.81-.98,1.45-1.79,1.79l-211.87,86.73c-.4.16-.82.24-1.24.24ZM2123.17,1213l319.95,615.06,206.03-84.34-268.38-628.89-257.59,98.17Z"/>
  <path class="cls-9" d="M2247.08,1138.39l402.91,811.77,281.34-104.07-135.46-967.88-548.79,260.18Z"/>
  <path class="cls-12" d="M2649.99,1953.44c-1.21,0-2.37-.68-2.94-1.82l-402.91-811.77c-.39-.79-.45-1.7-.16-2.53.29-.83.9-1.51,1.7-1.89l548.79-260.19c.94-.45,2.04-.42,2.96.08.92.49,1.55,1.4,1.69,2.43l135.46,967.88c.21,1.53-.66,2.99-2.11,3.53l-281.34,104.07c-.37.14-.75.21-1.14.21h0ZM2251.5,1139.92l400.12,806.14,276.1-102.13-134.48-960.85-541.74,256.84Z"/>
  <path class="cls-8" d="M816.05,1211.24l-323.03,620.97-211.87-86.73,270.92-634.85,263.98,100.6Z"/>
  <path class="cls-12" d="M493.02,1835.49c-.42,0-.84-.08-1.24-.25l-211.87-86.73c-.81-.33-1.46-.98-1.79-1.79-.33-.81-.33-1.72.02-2.53l270.92-634.84c.69-1.62,2.55-2.39,4.19-1.78l263.98,100.6c.88.33,1.56,1.03,1.9,1.9s.28,1.84-.15,2.67l-323.03,620.97c-.58,1.12-1.72,1.77-2.91,1.77h0ZM285.47,1743.71l206.02,84.34,319.95-615.06-257.59-98.17-268.38,628.89Z"/>
  <path class="cls-3" d="M138.75,878.21l548.79,260.18-402.91,811.77L3.28,1846.09"/>
  <path class="cls-12" d="M284.63,1953.44c-.38,0-.76-.07-1.14-.21L2.14,1849.16c-1.7-.63-2.57-2.51-1.94-4.21.63-1.7,2.51-2.57,4.22-1.93l278.58,103.05,400.12-806.14L137.34,881.17c-1.64-.77-2.34-2.73-1.56-4.36.78-1.63,2.73-2.33,4.37-1.56l548.79,260.18c.79.38,1.41,1.06,1.7,1.89.29.83.23,1.74-.16,2.53l-402.91,811.77c-.57,1.14-1.72,1.82-2.94,1.82Z"/>
  <path class="cls-12" d="M1377.6,2483.35c-16.28,0-34.6-1.8-55.12-6.14-34.59-7.33-59.62-22.78-74.41-45.94-25.77-40.34-13.76-92.5-8.64-114.78l.64-2.79c7.16-31.63,31.09-51.93,61.09-51.93.28,0,.55,0,.83,0,38.76.48,90.98,35.92,110.99,134.11,36.97,29.96,70.98,41.95,71.32,42.07,1,.34,1.78,1.16,2.07,2.18.3,1.02.08,2.12-.58,2.95-1.56,1.98-33.01,40.27-108.19,40.27ZM1301.13,2268.32c-27.2,0-48.11,17.88-54.66,46.82l-.64,2.81c-4.94,21.47-16.52,71.76,7.77,109.79,13.81,21.61,37.44,36.1,70.23,43.05,94.71,20.07,141.61-16.81,153.64-28.45-10.86-4.4-39.04-17.2-69.56-42.13-.59-.48-.99-1.15-1.14-1.89-19.07-95.23-68.41-129.54-104.88-130-.26,0-.52,0-.77,0h0Z"/>
  <path class="cls-2" d="M1607.4,2483.54s42.55-8.67,44.29-38.16c1.74-29.49,35.6-28.62,7.81-74.58-27.79-45.96,61.65,32.09,61.65,32.09,0,0-17.37,79.79-113.75,80.66Z"/>
  <path class="cls-2" d="M1770.65,2222.49c39.07,25.15,97.06,126.79-11.29,154.38,80.75,0,94.65-71.98,94.65-105.81s-83.36-48.57-83.36-48.57Z"/>
  <path class="cls-2" d="M1904.37,2096.74c39.07,24.59,97.06,123.95-11.29,150.91,80.75,0,94.65-70.37,94.65-103.43s-83.36-47.48-83.36-47.48Z"/>
  <path class="cls-12" d="M2276.89,2067.25s-19.1,66.78-97.26,71.12-129.38-7.8-178.01-15.61c65.99,27.75,170.2,68.51,223.17,34.69s52.1-65.91,52.1-90.2h0Z"/>
  <g class="cls-7">
    <g>
      <path class="cls-11" d="M863.79,915.77c6.07,4.63,13.23,7.62,20.79,8.7,4.32,5.06,12.07,7.07,17.36,11.16,34.05,26.25,101.92-4.46,151.69-68.66,49.77-64.19,62.58-137.52,28.53-163.85-10.55-7.52-22.28-13.23-34.72-16.88-1.09-1.05-2.23-2.04-3.43-2.98-34.05-26.26-101.92,4.46-151.69,68.66-49.76,64.26-62.5,137.6-28.53,163.85h0Z"/>
      <path class="cls-8" d="M1034.33,858.87c-41.35,53.33-95.29,83.6-131.86,77.2,34.19,25.66,101.69-5.13,151.23-69.02,49.77-64.18,62.58-137.52,28.54-163.86-9.81-7.04-20.67-12.48-32.18-16.13,4.48,2.29,8.77,4.96,12.81,7.96,34.05,26.25,21.23,99.66-28.53,163.85h0Z"/>
      <path class="cls-8" d="M931.51,916.36c19.37-8.33,39.78-22.39,58.92-41.13l-68.77-155.53c-10.63,9.94-20.44,20.71-29.35,32.21-6.46,8.32-12.43,17.01-17.88,26.03l57.08,138.42Z"/>
      <path class="cls-8" d="M1051.61,784.56l-47.31-109.93c-13.86,1.86-29.06,7.51-44.55,16.51l63.62,145.26c11.45-16.1,20.92-33.5,28.24-51.84Z"/>
      <g>
        <path class="cls-12" d="M1014.06,671.66c12.22,0,22.87,3.27,31.37,9.89,17.14,13.24,23.54,38.08,17.95,69.84-5.44,31.31-21.83,65.75-46.12,97.14s-53.64,55.78-82.62,68.87c-29.43,13.31-55.13,13.39-72.27.15-17.14-13.23-23.54-38.08-17.96-69.84,5.44-31.31,21.83-65.75,46.12-97.14,24.29-31.31,53.64-55.78,82.62-68.87,14.83-6.7,28.62-10.05,40.91-10.05ZM893.89,922.97c11.62,0,24.81-3.2,38.96-9.59,28.31-12.79,57.07-36.82,80.91-67.61,48.95-63.14,61.91-135.21,28.91-160.72s-99.61,5.13-148.56,68.21c-23.85,30.79-39.93,64.56-45.22,95.13-5.22,30.12.52,53.4,16.31,65.53,7.76,6.1,17.44,9.07,28.69,9.07h0Z"/>
        <path class="cls-12" d="M1006.46,693.23c7.46-.22,14.78,2.06,20.79,6.47,12.59,9.74,16.32,29.23,10.5,54.74-5.74,24.99-19.97,52.96-40,78.92-20.12,25.88-43.73,46.71-66.46,58.46-23.32,12.05-43.06,13.31-55.73,3.57s-16.31-29.23-10.5-54.74c5.74-24.99,19.97-52.96,40.01-78.92,20.12-25.88,43.73-46.71,66.46-58.46,12.95-6.62,24.8-10.04,34.93-10.04h0ZM896.35,897.47c9.38,0,20.56-3.2,32.86-9.59,22.2-11.53,45.3-31.83,64.97-57.2s33.6-52.81,39.19-77.13c5.44-23.73,2.31-41.58-8.87-50.2s-29.28-7.22-50.88,4.02c-22.2,11.53-45.3,31.83-64.97,57.2-19.67,25.44-33.6,52.81-39.19,77.13-5.44,23.73-2.31,41.58,8.87,50.21,5.2,3.84,11.56,5.81,18.03,5.58h0Z"/>
        <path class="cls-12" d="M876.9,893.68c.33.27.68.52,1.04.74-14.15-24.32.52-75.49,36.95-122.43,40.53-52.29,92.9-79.88,118.01-62.4-1.8-3.12-4.17-5.88-7-8.11-24.59-19.05-77.93,8.55-119.05,61.66-41.12,53.11-54.54,111.49-29.95,130.53h0Z"/>
        <path class="cls-12" d="M1039.54,678.05c.39,0,.78.1,1.12.3l48.28,26.85c.27.14.5.34.67.6,24.51,32.06,11.77,98.7-30.25,158.51-19.74,28.11-44.33,51.91-69.06,66.93-24.66,15.03-48.5,20.75-67.13,16.14-.16-.02-.31-.07-.45-.15l-48.72-22.83c-.53-.26-.94-.71-1.14-1.27-.2-.56-.16-1.17.1-1.7.26-.53.72-.94,1.27-1.14.56-.2,1.17-.16,1.71.1l48.5,22.76c36.65,8.93,91.79-25.29,131.2-81.37,19.97-28.34,33.9-59.58,39.26-87.91,5.22-27.45,2.15-50.5-8.64-64.93l-47.9-26.62c-.52-.29-.9-.77-1.07-1.34-.17-.57-.11-1.18.17-1.7.22-.35.53-.65.89-.86.36-.21.77-.32,1.19-.34h0Z"/>
        <path class="cls-12" d="M903.05,922.54c.34,0,.67.08.97.22l20.19,9.59,23.02,10.79c.26.13.5.3.7.52s.35.47.44.75c.1.28.14.57.12.86-.02.29-.09.58-.22.84-.13.26-.3.5-.52.69s-.47.35-.75.44-.57.14-.86.12c-.29-.02-.58-.09-.84-.22l-23.02-10.79-20.19-9.59c-.26-.13-.5-.3-.7-.52s-.35-.47-.44-.75-.14-.57-.12-.86c.02-.29.09-.58.22-.84.19-.37.48-.68.83-.91s.76-.35,1.18-.36h0Z"/>
        <path class="cls-12" d="M930.62,914.35c.34,0,.67.08.97.22l20.04,9.37,23.02,10.79c.52.26.91.72,1.1,1.27.19.55.15,1.15-.1,1.68-.25.52-.7.93-1.25,1.13s-1.15.18-1.68-.06l-23.02-10.79-20.04-9.37c-.53-.26-.94-.71-1.14-1.27-.2-.56-.16-1.17.1-1.7.19-.37.48-.68.83-.91.35-.22.76-.35,1.18-.36Z"/>
        <path class="cls-12" d="M952.37,903.27c.34,0,.67.08.97.22l42.32,19.86c.26.13.5.3.7.52.2.22.35.47.44.75.1.28.14.57.12.86-.02.29-.09.58-.22.84s-.31.5-.52.7c-.22.2-.47.35-.75.44-.28.1-.57.14-.86.12-.29-.02-.58-.09-.84-.22l-42.32-19.86c-.53-.26-.94-.71-1.14-1.27-.2-.56-.16-1.17.1-1.7.18-.38.46-.7.82-.93s.77-.34,1.19-.34h0Z"/>
        <path class="cls-12" d="M968.91,891.96c.34,0,.67.08.97.22l41.8,19.34c.27.12.52.29.73.51s.37.47.48.75.16.58.15.87c0,.3-.08.59-.2.86-.12.27-.3.52-.52.72-.22.2-.48.36-.76.46-.28.1-.58.15-.88.13-.3-.01-.59-.09-.86-.22l-41.8-19.34c-.46-.21-.84-.58-1.07-1.04-.23-.46-.3-.98-.2-1.48s.37-.95.77-1.28c.39-.33.88-.51,1.39-.53h0Z"/>
        <path class="cls-12" d="M987.09,877.46c.33.01.66.09.97.22l41.65,19.19c.52.26.92.71,1.12,1.26.2.55.17,1.15-.07,1.68-.24.53-.68.95-1.22,1.16-.54.21-1.15.21-1.69-.01l-41.65-19.19c-.46-.21-.84-.58-1.07-1.04-.23-.46-.3-.98-.2-1.48s.37-.95.77-1.28c.39-.33.88-.51,1.39-.53h0Z"/>
        <path class="cls-12" d="M1001.62,864.07c.34,0,.67.08.97.22l38.29,18c.53.26.94.71,1.14,1.27.2.56.16,1.17-.1,1.7s-.72.94-1.27,1.14c-.56.2-1.17.16-1.71-.1l-38.29-18c-.26-.13-.5-.3-.7-.52s-.35-.47-.44-.75c-.1-.28-.14-.57-.12-.86s.09-.58.22-.84c.17-.39.45-.71.81-.94.36-.23.78-.34,1.2-.32h0Z"/>
        <path class="cls-12" d="M1015.7,848.08c.34,0,.67.08.97.22l37.48,17.48c.53.25.94.71,1.14,1.26.2.55.18,1.16-.07,1.7s-.69.95-1.24,1.17c-.55.21-1.16.2-1.7-.03l-37.47-17.48c-.46-.21-.84-.58-1.07-1.04-.23-.46-.3-.98-.2-1.48s.37-.95.77-1.28c.39-.33.88-.51,1.39-.53h0Z"/>
        <path class="cls-12" d="M1026.21,832.76c.34,0,.67.08.97.22l37.4,17.55c.26.13.5.3.7.52s.35.47.44.75c.1.28.14.57.12.86s-.09.58-.22.84c-.13.26-.31.5-.52.69s-.47.35-.75.44c-.28.1-.57.14-.86.12-.29-.02-.58-.09-.84-.22l-37.4-17.55c-.26-.13-.5-.3-.7-.52-.2-.22-.35-.47-.44-.75s-.14-.57-.12-.86c.02-.29.09-.58.22-.84.19-.37.48-.69.83-.91.35-.22.76-.35,1.18-.36Z"/>
        <path class="cls-12" d="M1035.07,817.07c.34,0,.67.08.97.22l38.29,17.85c.27.12.51.3.71.51.2.22.36.47.46.75.1.28.15.57.14.87-.01.29-.08.59-.2.85-.12.27-.3.51-.51.71-.22.2-.47.36-.75.46-.28.1-.57.15-.87.14-.3-.01-.59-.08-.85-.2l-38.29-17.85c-.46-.21-.84-.58-1.07-1.04s-.3-.98-.2-1.48.37-.95.77-1.28c.39-.33.88-.51,1.39-.53Z"/>
        <path class="cls-12" d="M1044.24,800.18c.34,0,.67.08.97.22l37.48,17.85c.26.13.5.3.7.52s.35.47.44.75c.1.28.14.57.12.86-.02.29-.09.58-.22.84s-.31.5-.52.69-.47.35-.75.44c-.28.1-.57.14-.86.12-.29-.02-.58-.09-.84-.22l-37.48-17.85c-.26-.13-.5-.3-.7-.52s-.35-.47-.44-.75c-.1-.28-.14-.57-.12-.86.02-.29.09-.58.22-.84.17-.39.45-.71.81-.94.36-.23.78-.34,1.2-.32Z"/>
        <path class="cls-12" d="M1051.46,783.45c.34,0,.67.08.97.22l37.47,17.85c.53.26.94.71,1.14,1.27.2.56.16,1.17-.1,1.7-.26.53-.72.94-1.27,1.14-.56.2-1.17.16-1.71-.1l-37.47-17.85c-.26-.13-.5-.31-.7-.52s-.35-.47-.44-.75c-.1-.27-.14-.57-.12-.86.02-.29.09-.58.22-.84.18-.38.46-.7.82-.93s.77-.34,1.19-.34Z"/>
        <path class="cls-12" d="M1057.27,766.94c.34,0,.67.08.97.22l36.8,17.48c.26.13.5.31.7.52.2.22.35.47.44.75.1.27.14.57.12.86-.02.29-.09.58-.22.84-.13.26-.31.5-.52.69-.22.2-.47.35-.75.44-.28.1-.57.14-.86.12-.29-.02-.58-.09-.84-.22l-36.8-17.48c-.26-.13-.5-.3-.7-.52s-.35-.47-.44-.75c-.1-.28-.14-.57-.12-.86.02-.29.09-.58.22-.84.17-.39.45-.71.81-.94.36-.23.77-.34,1.2-.33h0Z"/>
        <path class="cls-12" d="M1061.44,749.09c.34,0,.67.08.97.22l36.8,17.48c.53.26.94.71,1.14,1.27.2.56.16,1.17-.1,1.7-.26.53-.72.94-1.27,1.14-.56.2-1.17.16-1.71-.1l-36.8-17.48c-.26-.13-.5-.3-.7-.52s-.35-.47-.44-.75c-.1-.28-.14-.57-.12-.86.02-.29.09-.58.22-.84.17-.39.45-.71.81-.94.36-.22.78-.34,1.2-.32h0Z"/>
        <path class="cls-12" d="M1063.16,730.71c.34,0,.67.08.97.22l36.06,17.03c.26.13.5.31.7.52s.35.47.44.75c.1.28.14.57.12.86s-.09.58-.22.84c-.13.26-.31.5-.52.7-.22.2-.47.35-.75.44-.28.1-.57.14-.86.12-.29-.02-.58-.09-.84-.22l-36.06-17.03c-.26-.13-.5-.3-.7-.52s-.35-.47-.44-.75c-.1-.28-.14-.57-.12-.86.02-.29.09-.58.22-.84.18-.38.46-.7.82-.93s.77-.34,1.19-.34h0Z"/>
        <path class="cls-12" d="M1062.49,715.24c.34,0,.67.08.97.22l36.06,17.85c.52.27.91.72,1.1,1.27.19.55.15,1.15-.1,1.68-.25.53-.7.93-1.25,1.13-.55.2-1.15.18-1.68-.06l-36.06-17.85c-.26-.13-.5-.3-.7-.52s-.35-.47-.44-.75-.14-.57-.12-.86c.02-.29.09-.58.22-.84.18-.38.46-.7.82-.93.36-.22.77-.34,1.19-.34h0Z"/>
        <path class="cls-12" d="M1057.94,698.73c.36,0,.71.08,1.04.22l36.28,18.37c.26.13.49.31.68.53.19.22.33.48.42.75.09.28.12.57.1.86-.02.29-.1.57-.23.83-.13.26-.31.49-.54.68s-.48.33-.75.42c-.28.09-.57.12-.86.1-.29-.02-.57-.1-.83-.23l-36.28-18.37c-.26-.13-.5-.31-.69-.53s-.34-.48-.43-.76c-.09-.28-.12-.57-.1-.86.03-.29.11-.57.25-.83.17-.37.45-.67.79-.88.34-.21.74-.32,1.15-.3h0Z"/>
      </g>
    </g>
  </g>
  <g class="cls-5">
    <g>
      <path class="cls-11" d="M1142,577.08c3.35,9.35,9.03,17.68,16.51,24.21,1.13,8.58,8.16,16.25,11.04,24.46,18.55,52.76,114.35,67.18,214.11,32.22,99.76-34.96,165.65-106.04,147.15-158.89-6.18-15.68-14.94-30.21-25.92-42.99-.44-1.92-.99-3.81-1.63-5.67-18.55-52.77-114.35-67.18-214.11-32.22-99.79,35.04-165.62,106.17-147.15,158.88h0Z"/>
      <path class="cls-8" d="M1368.34,635.47c-82.87,29.04-163.16,23.99-198.53-8.86,19.13,52.21,114.58,66.29,213.86,31.49,99.75-34.95,165.66-106.04,147.17-158.89-5.72-14.63-13.71-28.25-23.69-40.38,3.27,5.68,6.06,11.62,8.34,17.76,18.56,52.75-47.41,123.92-147.16,158.88h0Z"/>
      <path class="cls-8" d="M1215.46,625.61c27.03,4.59,59.26,3.66,93.41-3.29l35.11-218.57c-18.63,3.35-36.97,8.18-54.83,14.44-12.94,4.52-25.61,9.8-37.94,15.81l-35.75,191.61Z"/>
      <path class="cls-8" d="M1439.82,566.49l26.23-153.58c-16.43-7.76-37.02-12.33-60.3-13.45l-33.45,203.72c23.89-9.5,46.55-21.82,67.52-36.69Z"/>
      <g>
        <path class="cls-12" d="M1478.81,416.56c13.33,8.64,22.63,19.75,27.21,32.99,9.32,26.58-1.29,58.26-29.87,89.01-28.11,30.37-70.37,56.42-119.1,73.55s-98.02,23.03-138.91,16.85c-41.53-6.25-69.63-24.35-78.95-50.92-9.32-26.58,1.29-58.26,29.87-89.01,28.11-30.37,70.38-56.42,119.1-73.55,48.67-17.05,98.02-23.03,138.9-16.86,20.93,3.16,38.33,9.25,51.74,17.94ZM1169.74,606.24c12.68,8.22,29.33,14.04,49.3,17.06,39.94,6.03,88.33.11,136.15-16.68,98.11-34.39,163.29-103.99,145.35-155.2-17.94-51.21-112.3-64.81-210.37-30.49-47.82,16.79-89.28,42.32-116.7,71.98-27.02,29.23-37.25,58.73-28.61,83.13,4.14,12.15,12.61,22.24,24.88,30.19h0Z"/>
        <path class="cls-12" d="M1455.24,434.76c8.29,5.03,14.66,12.69,18.09,21.77,6.84,19.55-2.9,43.48-27.3,67.25-23.96,23.26-59.28,43.76-99.52,57.96-40.27,14.06-80.79,20.12-113.91,16.9-33.97-3.32-56.41-15.89-63.32-35.5-6.92-19.6,2.91-43.47,27.31-67.25,23.96-23.25,59.28-43.75,99.53-57.95,40.27-14.06,80.79-20.12,113.91-16.9,18.82,1.92,34.17,6.56,45.22,13.73h0ZM1190.48,580.1c10.24,6.63,24.7,11.04,42.64,12.74,32.38,3.1,71.96-2.76,111.38-16.57s74.05-33.95,97.37-56.58c22.74-22.08,31.96-43.8,25.88-61.13s-26.83-28.59-58.36-31.58c-32.38-3.1-71.96,2.76-111.38,16.57-39.47,13.89-74.05,33.95-97.37,56.58-22.74,22.08-31.96,43.8-25.88,61.13,2.95,7.88,8.5,14.52,15.72,18.84h0Z"/>
        <path class="cls-12" d="M1171.95,562.21c.17.53.37,1.05.61,1.55,1.78-36.59,54.03-82.13,127.01-107.66,81.24-28.49,157.92-21.61,172.93,15.24.25-4.68-.39-9.37-1.9-13.81-13.34-38.19-91.07-45.75-173.55-16.79-82.47,28.96-138.45,83.28-125.11,121.47h0Z"/>
        <path class="cls-12" d="M1502.07,441.57c.43.27.78.66,1.01,1.12l33.66,63.47c.2.34.3.73.31,1.12,4.04,52.36-57.05,116.18-145.24,151.83-41.44,16.76-85.12,25.39-122.74,24.32-37.54-1.01-67.61-11.61-84.66-29.82-.16-.13-.29-.3-.38-.48l-36.98-59.39c-.4-.66-.52-1.45-.34-2.19.18-.75.65-1.39,1.31-1.79.66-.4,1.45-.52,2.19-.34.75.18,1.39.65,1.79,1.31l36.79,59.16c33.67,35.67,118.04,37.26,200.75,3.83,41.85-16.85,79.17-41.14,105.09-68.31,25.13-26.31,38.11-53.67,36.55-77.07l-33.41-62.96c-.36-.69-.43-1.48-.21-2.22.22-.74.72-1.36,1.39-1.74.49-.23,1.04-.33,1.58-.3.54.03,1.07.19,1.54.47h0Z"/>
        <path class="cls-12" d="M1180.04,612.24c.36.24.67.56.9.93l15.23,24.76,17.48,28.06c.2.33.33.69.39,1.06s.04.76-.05,1.13c-.09.37-.25.72-.48,1.03-.22.31-.51.57-.83.77-.33.2-.69.33-1.06.39s-.76.04-1.13-.05-.72-.25-1.03-.48c-.31-.22-.57-.51-.77-.83l-17.48-28.06-15.23-24.76c-.2-.33-.33-.69-.39-1.06s-.04-.76.05-1.13.25-.72.48-1.03c.22-.31.51-.57.83-.77.47-.27,1.01-.41,1.55-.4s1.07.16,1.54.44h0Z"/>
        <path class="cls-12" d="M1215.91,622.78c.36.24.67.56.9.93l15.23,24.41,17.48,28.06c.38.66.49,1.44.3,2.17-.19.73-.66,1.37-1.3,1.76-.65.39-1.42.52-2.16.35s-1.38-.62-1.79-1.26l-17.47-28.06-15.23-24.41c-.4-.66-.52-1.45-.34-2.2.18-.75.65-1.39,1.31-1.79.47-.27,1.01-.41,1.55-.41.54,0,1.07.16,1.54.44Z"/>
        <path class="cls-12" d="M1247.49,626.05c.36.24.67.56.9.93l32.1,51.62c.2.33.33.69.39,1.06.06.38.04.76-.05,1.13-.09.37-.25.72-.48,1.03-.22.31-.51.57-.83.77s-.69.33-1.06.39c-.38.06-.76.04-1.13-.05-.37-.09-.72-.25-1.03-.48-.31-.22-.57-.51-.77-.83l-32.1-51.62c-.4-.66-.52-1.45-.34-2.2.18-.75.65-1.39,1.31-1.79.46-.29,1-.44,1.55-.43s1.08.17,1.54.47h0Z"/>
        <path class="cls-12" d="M1273.54,625.39c.36.24.67.56.9.93l31.9,50.68c.22.32.37.69.44,1.07s.07.78,0,1.16-.23.74-.46,1.06c-.22.32-.5.59-.83.8-.33.21-.69.35-1.08.42-.38.07-.78.06-1.16-.03-.38-.09-.74-.25-1.05-.48-.32-.23-.58-.52-.79-.85l-31.9-50.68c-.35-.56-.51-1.23-.44-1.89.07-.66.37-1.28.83-1.75s1.08-.77,1.74-.85c.66-.08,1.33.06,1.89.41h0Z"/>
        <path class="cls-12" d="M1303.64,622.39c.36.25.66.56.9.93l31.85,50.41c.39.65.5,1.43.33,2.17-.18.74-.63,1.38-1.27,1.79-.64.41-1.41.55-2.15.41-.74-.15-1.4-.58-1.83-1.2l-31.85-50.41c-.35-.56-.51-1.23-.44-1.89.07-.66.37-1.28.83-1.75s1.08-.77,1.74-.85c.66-.08,1.33.06,1.89.41h0Z"/>
        <path class="cls-12" d="M1328.97,618.03c.36.24.67.56.9.93l29.03,46.74c.4.66.52,1.45.34,2.19-.18.75-.65,1.39-1.31,1.79s-1.45.52-2.19.34c-.75-.18-1.39-.65-1.79-1.31l-29.03-46.74c-.2-.33-.33-.69-.39-1.06s-.04-.76.05-1.13c.09-.37.25-.72.48-1.03s.51-.57.83-.77c.46-.3,1-.46,1.55-.45.55,0,1.09.18,1.54.49h0Z"/>
        <path class="cls-12" d="M1355.65,610.51c.36.24.67.56.9.93l28.51,45.6c.4.65.53,1.44.36,2.18-.17.75-.63,1.4-1.27,1.81s-1.43.56-2.18.4c-.75-.16-1.41-.6-1.83-1.24l-28.51-45.59c-.35-.56-.51-1.23-.44-1.89.07-.66.37-1.28.83-1.75s1.08-.77,1.74-.85c.66-.08,1.33.06,1.89.41h0Z"/>
        <path class="cls-12" d="M1377.97,601.2c.36.24.67.56.9.93l28.37,45.62c.2.33.33.69.39,1.06s.04.76-.05,1.13c-.09.37-.25.72-.48,1.03s-.51.57-.83.77c-.33.2-.69.33-1.06.39s-.76.04-1.13-.05c-.37-.09-.72-.25-1.03-.48-.31-.22-.57-.51-.77-.83l-28.38-45.62c-.2-.33-.33-.69-.39-1.06-.06-.38-.04-.76.05-1.13s.25-.72.48-1.03c.22-.31.51-.57.83-.77.47-.27,1.01-.41,1.55-.4.54,0,1.08.16,1.54.45Z"/>
        <path class="cls-12" d="M1398.75,590.32c.36.24.67.56.9.93l29.14,46.58c.21.32.35.69.41,1.06.07.38.06.77-.02,1.14-.08.38-.24.73-.46,1.05-.22.31-.5.58-.82.79-.32.21-.69.35-1.06.41-.38.07-.77.06-1.14-.02-.38-.08-.73-.24-1.05-.46-.31-.22-.58-.5-.79-.82l-29.13-46.57c-.35-.56-.51-1.23-.44-1.89s.37-1.28.83-1.75,1.08-.77,1.74-.85c.66-.08,1.33.06,1.89.41Z"/>
        <path class="cls-12" d="M1420.71,578.34c.36.24.67.56.9.93l28.24,46c.2.33.33.69.39,1.06s.04.76-.05,1.13c-.09.37-.25.72-.48,1.03-.22.31-.51.57-.83.77s-.69.33-1.06.39-.76.04-1.13-.05c-.37-.09-.72-.25-1.03-.48-.31-.22-.57-.51-.77-.83l-28.24-46c-.2-.33-.33-.69-.39-1.06s-.04-.76.05-1.13c.09-.37.25-.72.48-1.03.22-.31.51-.57.83-.77.46-.3,1-.46,1.55-.45.55,0,1.09.18,1.54.49Z"/>
        <path class="cls-12" d="M1440.44,565.17c.36.24.67.56.9.93l28.24,46c.4.66.52,1.45.34,2.19-.18.75-.65,1.39-1.31,1.79-.66.4-1.45.52-2.19.34-.75-.18-1.39-.65-1.79-1.31l-28.24-46c-.2-.33-.33-.69-.39-1.06s-.04-.76.05-1.13c.09-.37.25-.72.48-1.03.22-.31.51-.57.83-.77.47-.29,1-.44,1.55-.43s1.08.17,1.54.47Z"/>
        <path class="cls-12" d="M1458.48,551.23c.36.24.67.56.9.93l27.77,45.12c.2.33.33.69.39,1.06.06.38.04.76-.05,1.13-.09.37-.25.72-.48,1.03-.23.31-.51.57-.83.77-.32.2-.69.33-1.06.39-.38.06-.76.04-1.13-.05-.37-.09-.72-.25-1.03-.48-.31-.23-.57-.51-.77-.83l-27.77-45.12c-.2-.33-.33-.69-.39-1.06s-.04-.76.05-1.13c.09-.37.25-.72.48-1.03.22-.31.51-.57.83-.77.46-.3,1-.46,1.55-.45.55,0,1.08.18,1.54.49h0Z"/>
        <path class="cls-12" d="M1475.67,534.67c.36.24.67.56.9.93l27.77,45.12c.4.66.52,1.45.34,2.19-.18.75-.65,1.39-1.31,1.79-.66.4-1.45.52-2.19.34-.75-.18-1.39-.65-1.79-1.31l-27.77-45.12c-.2-.32-.33-.69-.39-1.06s-.04-.76.05-1.13c.09-.37.25-.72.48-1.03.23-.31.51-.57.83-.77.46-.3,1-.46,1.55-.45.55,0,1.09.18,1.54.49h0Z"/>
        <path class="cls-12" d="M1490.55,515.81c.36.24.67.56.9.93l27.28,44.1c.2.33.33.69.39,1.06s.04.76-.05,1.13c-.09.37-.25.72-.48,1.03s-.51.57-.83.77c-.33.2-.69.33-1.06.39-.38.06-.76.04-1.13-.05-.37-.09-.72-.25-1.03-.48-.31-.23-.57-.51-.77-.83l-27.28-44.1c-.2-.32-.33-.69-.39-1.06s-.04-.76.05-1.13c.09-.37.25-.72.48-1.03.23-.31.51-.57.83-.77.46-.29,1-.44,1.55-.43s1.08.17,1.54.48h0Z"/>
        <path class="cls-12" d="M1500.77,498.43c.36.24.67.56.9.93l26.7,45c.38.66.49,1.44.3,2.17-.19.73-.65,1.37-1.3,1.76-.65.4-1.42.52-2.16.35-.74-.17-1.38-.62-1.79-1.26l-26.7-45c-.2-.32-.33-.69-.39-1.06s-.04-.76.05-1.13.25-.72.48-1.03c.22-.31.51-.57.83-.77.46-.29,1-.44,1.55-.43.55,0,1.08.17,1.54.47h0Z"/>
        <path class="cls-12" d="M1507.5,477.17c.39.26.72.59.98.98l26.58,45.72c.19.33.31.69.36,1.06.05.37.03.76-.07,1.12-.1.37-.27.71-.5,1.01-.23.3-.52.55-.84.74-.33.19-.69.31-1.06.36s-.76.02-1.12-.07c-.37-.1-.71-.27-1.01-.5-.3-.23-.55-.52-.74-.84l-26.57-45.73c-.2-.33-.33-.69-.38-1.06s-.03-.76.07-1.13c.1-.37.27-.71.51-1.01.24-.3.53-.55.86-.73.45-.28.96-.42,1.49-.41.52.01,1.03.18,1.47.48h0Z"/>
      </g>
    </g>
  </g>
  <g class="cls-6">
    <g>
      <path class="cls-11" d="M1851.97,626.63c-7.39,9.67-12.17,21.06-13.9,33.1-8.08,6.88-11.28,19.22-17.82,27.64-41.93,54.21,7.13,162.29,109.65,241.54,102.52,79.26,219.64,99.64,261.69,45.42,12.02-16.79,21.13-35.48,26.96-55.28,1.68-1.73,3.26-3.55,4.75-5.46,41.95-54.21-7.13-162.29-109.65-241.54-102.63-79.24-219.76-99.52-261.69-45.42h0Z"/>
      <path class="cls-8" d="M1942.85,898.17c-85.17-65.84-133.52-151.73-123.3-209.96-40.98,54.44,8.2,161.93,110.24,240.81,102.51,79.25,219.64,99.65,261.71,45.44,11.24-15.62,19.94-32.91,25.76-51.25-3.66,7.14-7.92,13.97-12.71,20.4-41.92,54.21-159.17,33.81-261.69-45.43h0Z"/>
      <path class="cls-8" d="M1851.02,734.46c13.31,30.84,35.76,63.35,65.69,93.82l248.39-109.5c-15.87-16.92-33.07-32.55-51.44-46.74-13.29-10.29-27.17-19.8-41.58-28.47l-221.07,90.89Z"/>
      <path class="cls-8" d="M2061.52,925.69l175.57-75.33c-2.97-22.06-12-46.27-26.37-70.94l-232,101.31c25.71,18.23,53.5,33.32,82.8,44.96Z"/>
      <g>
        <path class="cls-12" d="M2241.85,865.9c0,19.46-5.23,36.42-15.8,49.94-21.15,27.28-60.82,37.48-111.54,28.59-50.01-8.66-105.01-34.76-155.14-73.43s-89.09-85.41-110-131.56c-21.27-46.86-21.38-87.79-.25-115.07,21.14-27.28,60.82-37.48,111.54-28.59,50.01,8.66,105.01,34.76,155.14,73.43,50.01,38.67,89.09,85.41,110,131.55,10.7,23.62,16.05,45.56,16.05,65.14ZM1840.46,674.55c0,18.51,5.11,39.5,15.32,62.04,20.43,45.07,58.8,90.87,107.98,128.83,100.84,77.94,215.95,98.58,256.7,46.03s-8.2-158.61-108.93-236.55c-49.18-37.97-103.11-63.58-151.93-72.01-48.11-8.3-85.29.83-104.65,25.97-9.74,12.35-14.48,27.77-14.48,45.68h0Z"/>
        <path class="cls-12" d="M2207.4,853.8c.35,11.88-3.28,23.53-10.33,33.1-15.56,20.05-46.68,25.98-87.43,16.73-39.92-9.13-84.58-31.79-126.04-63.69-41.34-32.03-74.6-69.64-93.37-105.83-19.24-37.13-21.26-68.57-5.7-88.74s46.68-25.97,87.43-16.73c39.91,9.13,84.58,31.79,126.04,63.7,41.34,32.03,74.6,69.63,93.37,105.83,10.57,20.63,16.04,39.49,16.04,55.63h0ZM1881.2,678.47c0,14.94,5.11,32.74,15.32,52.32,18.41,35.35,50.84,72.13,91.35,103.45s84.34,53.5,123.19,62.4c37.89,8.66,66.4,3.67,80.18-14.12s11.53-46.62-6.41-81.02c-18.41-35.35-50.84-72.13-91.35-103.45-40.62-31.32-84.34-53.5-123.18-62.4-37.89-8.66-66.41-3.67-80.18,14.12-6.14,8.28-9.28,18.41-8.91,28.71h0Z"/>
        <path class="cls-12" d="M1887.25,647.51c-.43.52-.83,1.08-1.19,1.66,38.85-22.54,120.57.83,195.53,58.84,83.51,64.53,127.58,147.93,99.66,187.91,4.99-2.86,9.39-6.64,12.95-11.15,30.42-39.15-13.66-124.09-98.48-189.57-84.82-65.48-178.07-86.84-208.48-47.69h0Z"/>
        <path class="cls-12" d="M2231.63,906.47c.01.63-.15,1.24-.48,1.78l-42.88,76.87c-.22.43-.55.8-.95,1.07-51.2,39.03-157.63,18.75-253.15-48.16-44.89-31.43-82.91-70.58-106.9-109.97-24-39.27-33.14-77.23-25.78-106.89.03-.25.11-.49.25-.71l36.46-77.58c.41-.85,1.14-1.5,2.03-1.81.89-.31,1.87-.26,2.72.15.85.41,1.5,1.14,1.82,2.03.31.89.26,1.87-.15,2.72l-36.35,77.22c-14.25,58.36,40.39,146.15,129.96,208.91,45.26,31.79,95.15,53.98,140.41,62.52,43.84,8.3,80.66,3.43,103.7-13.76l42.52-76.28c.47-.82,1.24-1.43,2.15-1.7.91-.27,1.88-.17,2.72.27.57.36,1.04.84,1.37,1.42.33.58.52,1.23.54,1.9h0Z"/>
        <path class="cls-12" d="M1841.16,689.14c0,.53-.13,1.06-.36,1.54l-15.32,32.15-17.23,36.66c-.2.42-.49.8-.84,1.11s-.76.55-1.2.71c-.44.15-.91.22-1.38.19-.47-.03-.92-.14-1.34-.35-.42-.2-.8-.49-1.11-.83s-.55-.75-.71-1.2-.22-.91-.19-1.37c.03-.47.14-.92.35-1.34l17.23-36.66,15.32-32.15c.2-.42.49-.8.84-1.11s.76-.55,1.2-.71.91-.22,1.38-.19c.47.02.92.14,1.35.35.59.3,1.09.76,1.45,1.33s.55,1.21.57,1.88h0Z"/>
        <path class="cls-12" d="M1854.23,733.03c0,.53-.13,1.06-.36,1.54l-14.96,31.91-17.23,36.66c-.42.83-1.15,1.46-2.03,1.75-.88.3-1.84.24-2.68-.17-.84-.4-1.49-1.12-1.8-1.99s-.28-1.84.1-2.68l17.23-36.65,14.96-31.91c.41-.85,1.14-1.5,2.03-1.81.89-.31,1.87-.25,2.72.15.59.3,1.09.76,1.45,1.32.36.56.55,1.21.57,1.87Z"/>
        <path class="cls-12" d="M1871.93,767.68c0,.53-.13,1.06-.36,1.54l-31.72,67.38c-.2.42-.49.8-.84,1.11-.35.31-.76.55-1.2.7-.44.15-.91.22-1.38.19-.47-.03-.92-.14-1.35-.35s-.8-.49-1.11-.83c-.31-.35-.55-.75-.71-1.19-.15-.44-.22-.91-.19-1.37.03-.47.14-.92.35-1.34l31.72-67.38c.41-.85,1.14-1.5,2.03-1.81.89-.31,1.87-.26,2.72.15.61.28,1.12.74,1.48,1.3s.55,1.23.54,1.9h0Z"/>
        <path class="cls-12" d="M1889.99,794.01c0,.53-.13,1.06-.36,1.54l-30.89,66.55c-.19.44-.46.83-.81,1.16s-.75.59-1.2.76-.92.25-1.4.24c-.48-.01-.95-.12-1.38-.32-.43-.2-.83-.48-1.15-.83-.32-.35-.57-.76-.74-1.21-.16-.45-.24-.92-.21-1.4.02-.48.14-.94.35-1.37l30.89-66.55c.34-.74.93-1.34,1.65-1.71.73-.37,1.56-.48,2.36-.31s1.52.59,2.04,1.22c.52.62.82,1.41.84,2.22h0Z"/>
        <path class="cls-12" d="M1913.15,822.96c-.02.53-.14,1.06-.36,1.54l-30.65,66.31c-.41.83-1.13,1.47-2.01,1.78-.88.31-1.84.27-2.69-.11-.85-.38-1.51-1.08-1.85-1.94-.34-.86-.34-1.83.02-2.68l30.65-66.31c.34-.74.93-1.34,1.65-1.71.73-.37,1.56-.48,2.36-.31s1.52.59,2.04,1.22c.52.62.82,1.41.84,2.22h0Z"/>
        <path class="cls-12" d="M1934.53,846.09c0,.53-.13,1.06-.36,1.54l-28.75,60.98c-.41.85-1.14,1.5-2.03,1.81-.89.31-1.87.26-2.72-.15s-1.5-1.14-1.82-2.03c-.31-.89-.26-1.87.15-2.72l28.75-60.98c.2-.42.49-.8.84-1.11s.76-.55,1.2-.7c.44-.15.91-.22,1.38-.19s.92.14,1.35.35c.62.27,1.14.72,1.5,1.29.36.57.54,1.24.52,1.91h0Z"/>
        <path class="cls-12" d="M1960.07,868.5c0,.53-.13,1.06-.36,1.54l-27.92,59.68c-.41.85-1.13,1.5-2.01,1.82-.88.32-1.86.28-2.71-.11s-1.52-1.1-1.86-1.97c-.34-.88-.32-1.85.05-2.71l27.92-59.67c.34-.74.93-1.34,1.65-1.71.73-.37,1.56-.48,2.36-.31s1.52.59,2.04,1.22c.52.62.82,1.41.84,2.22h0Z"/>
        <path class="cls-12" d="M1984.54,885.24c0,.53-.13,1.06-.36,1.54l-28.03,59.55c-.2.42-.49.8-.84,1.11s-.76.55-1.2.7c-.44.15-.91.22-1.38.19s-.92-.14-1.35-.35c-.42-.2-.8-.49-1.11-.83s-.55-.75-.71-1.19c-.15-.44-.22-.91-.19-1.37.03-.47.14-.92.35-1.34l28.03-59.56c.2-.42.49-.8.84-1.11.35-.31.76-.55,1.2-.71s.91-.22,1.38-.19c.47.03.92.14,1.34.35.59.3,1.1.76,1.45,1.33.36.56.55,1.21.57,1.88Z"/>
        <path class="cls-12" d="M2009.61,899.36c0,.53-.13,1.06-.36,1.54l-28.51,60.98c-.2.43-.47.81-.82,1.13-.34.32-.75.57-1.19.74-.44.16-.91.24-1.38.22-.47-.02-.93-.13-1.36-.32-.43-.2-.82-.47-1.14-.82-.32-.34-.57-.75-.74-1.19-.17-.44-.24-.91-.22-1.38.02-.47.13-.93.32-1.36l28.51-60.97c.34-.74.93-1.34,1.65-1.71s1.56-.48,2.36-.31,1.52.59,2.04,1.22c.52.62.82,1.41.84,2.22Z"/>
        <path class="cls-12" d="M2036.57,913.95c0,.53-.13,1.06-.36,1.54l-28.51,59.67c-.2.42-.49.8-.84,1.11s-.76.55-1.2.71c-.44.15-.91.22-1.38.19-.47-.03-.92-.14-1.35-.35s-.8-.49-1.11-.83-.55-.75-.71-1.19c-.15-.44-.22-.91-.19-1.37.03-.47.14-.92.35-1.34l28.51-59.67c.2-.42.49-.8.84-1.11s.76-.55,1.2-.7c.44-.15.91-.22,1.38-.19.47.03.92.14,1.35.35.62.27,1.14.72,1.5,1.29.36.57.54,1.24.52,1.91Z"/>
        <path class="cls-12" d="M2063.3,925.45c0,.53-.13,1.06-.36,1.54l-28.51,59.67c-.41.85-1.14,1.5-2.03,1.81-.89.31-1.87.26-2.72-.15-.85-.41-1.5-1.14-1.82-2.03-.31-.89-.26-1.87.15-2.72l28.51-59.67c.2-.42.49-.8.84-1.11s.76-.55,1.2-.7c.44-.15.91-.22,1.37-.19.47.03.92.14,1.34.35.61.28,1.12.74,1.48,1.3s.54,1.23.54,1.9Z"/>
        <path class="cls-12" d="M2089.67,934.71c0,.53-.13,1.06-.36,1.54l-27.92,58.6c-.2.42-.49.8-.84,1.11-.35.31-.76.55-1.2.7-.44.15-.91.22-1.37.19-.47-.03-.92-.14-1.35-.35-.42-.2-.8-.49-1.11-.83-.31-.35-.55-.75-.71-1.19-.15-.44-.22-.91-.19-1.37.03-.47.14-.92.35-1.34l27.92-58.59c.2-.42.49-.8.83-1.11s.76-.55,1.2-.71c.44-.15.91-.22,1.38-.19.47.03.92.14,1.34.35.62.27,1.14.72,1.5,1.29.36.57.54,1.23.52,1.9h0Z"/>
        <path class="cls-12" d="M2118.18,941.35c0,.53-.13,1.06-.36,1.54l-27.92,58.6c-.41.85-1.14,1.5-2.03,1.81-.89.31-1.87.26-2.72-.15-.85-.41-1.5-1.14-1.82-2.03-.31-.89-.26-1.87.15-2.72l27.92-58.6c.2-.42.49-.8.83-1.11s.76-.55,1.2-.7c.44-.15.91-.22,1.37-.19.47.03.92.14,1.35.35.62.27,1.14.72,1.5,1.29.36.57.54,1.24.52,1.91h0Z"/>
        <path class="cls-12" d="M2147.52,944.08c0,.53-.13,1.06-.36,1.54l-27.2,57.42c-.2.42-.49.8-.84,1.11s-.76.55-1.19.7c-.44.15-.91.22-1.38.19s-.92-.14-1.34-.35c-.42-.2-.8-.49-1.11-.83-.31-.35-.55-.75-.71-1.19-.15-.44-.22-.91-.19-1.37.03-.47.14-.92.35-1.34l27.2-57.42c.2-.42.49-.8.83-1.11s.76-.55,1.2-.7c.44-.15.91-.22,1.37-.19.47.03.92.14,1.35.35.61.28,1.12.74,1.48,1.3s.54,1.23.54,1.9h0Z"/>
        <path class="cls-12" d="M2172.24,943.01c0,.53-.13,1.06-.36,1.54l-28.51,57.42c-.42.83-1.15,1.46-2.04,1.75-.88.3-1.84.24-2.68-.17-.84-.4-1.48-1.12-1.8-1.99-.32-.87-.28-1.84.1-2.68l28.51-57.42c.2-.42.49-.8.83-1.11s.76-.55,1.2-.71.91-.22,1.38-.19c.47.03.92.14,1.34.35.61.28,1.12.74,1.48,1.3.36.57.54,1.23.54,1.9h0Z"/>
        <path class="cls-12" d="M2198.6,935.78c0,.57-.13,1.14-.36,1.66l-29.34,57.77c-.21.41-.5.78-.85,1.08-.35.3-.76.53-1.2.67-.44.14-.91.2-1.37.16-.46-.04-.91-.16-1.33-.37-.41-.21-.78-.5-1.08-.85s-.53-.76-.67-1.2c-.14-.44-.2-.91-.16-1.37.04-.46.16-.91.37-1.32l29.34-57.77c.2-.42.49-.8.84-1.1s.76-.54,1.21-.68c.44-.14.91-.2,1.38-.15.47.04.92.18,1.33.4.58.27,1.07.71,1.41,1.26.34.55.51,1.18.49,1.83h0Z"/>
      </g>
    </g>
  </g>
</svg>