<?xml version="1.0" encoding="UTF-8"?>
<svg id="Illustration" xmlns="http://www.w3.org/2000/svg" viewBox="0 0 1323.55 937.63">
  <defs>
    <style>
      .cls-1, .cls-2, .cls-3, .cls-4, .cls-5, .cls-6, .cls-7, .cls-8, .cls-9, .cls-10, .cls-11, .cls-12 {
        fill: none;
      }

      .cls-1, .cls-3 {
        stroke: #ed6b8a;
      }

      .cls-1, .cls-3, .cls-4, .cls-5, .cls-6, .cls-7, .cls-8, .cls-9, .cls-10, .cls-11, .cls-12 {
        stroke-linecap: round;
        stroke-linejoin: round;
      }

      .cls-1, .cls-10 {
        stroke-width: 4px;
      }

      .cls-2 {
        stroke: #5b1e13;
        stroke-miterlimit: 10;
      }

      .cls-13 {
        fill: #18214c;
      }

      .cls-14 {
        fill: #85a4d8;
      }

      .cls-3, .cls-4, .cls-5, .cls-6, .cls-8, .cls-9, .cls-11, .cls-12 {
        stroke-width: 2px;
      }

      .cls-15 {
        fill: #a36beb;
      }

      .cls-16 {
        fill: #003d82;
      }

      .cls-17 {
        fill: #a3bcf8;
      }

      .cls-4 {
        stroke: #fff;
      }

      .cls-5 {
        stroke: #ecf1fe;
      }

      .cls-18 {
        fill: #bce2f0;
      }

      .cls-19 {
        fill: #25293d;
      }

      .cls-6 {
        stroke: #32449e;
      }

      .cls-7 {
        stroke-width: 8px;
      }

      .cls-7, .cls-9 {
        stroke: #212b6c;
      }

      .cls-8 {
        stroke: #a3bcf8;
      }

      .cls-20 {
        fill: #fff;
      }

      .cls-21 {
        fill: #f2a4d2;
      }

      .cls-22 {
        fill: #5b1e13;
      }

      .cls-23 {
        fill: #e9b371;
      }

      .cls-24 {
        fill: #32449e;
      }

      .cls-25 {
        fill: #f7cb71;
      }

      .cls-26 {
        fill: #fbc5a9;
      }

      .cls-10, .cls-12 {
        stroke: #a36beb;
      }

      .cls-11 {
        stroke: #85a4d8;
      }

      .cls-27 {
        fill: #a1e9fb;
      }

      .cls-28 {
        fill: #ecf1fe;
      }

      .cls-29 {
        fill: #212b6c;
      }

      .cls-30 {
        fill: #002c6b;
      }

      .cls-31 {
        fill: #b0dfe5;
      }
    </style>
  </defs>
  <path class="cls-31" d="M1247.41,68.81L69.85,119.53C27.03,121.37-5,159.55.65,202.05l73.52,553.87c4.73,35.65,34.73,62.54,70.68,63.36l1026.31,23.46c37.47.86,69.49-26.8,74.1-64l77.73-628.05c5.54-44.79-30.48-83.82-75.57-81.88Z"/>
  <g>
    <line class="cls-8" x1="1215.54" y1="390.66" x2="1215.54" y2="635.32"/>
    <line class="cls-8" x1="1215.54" y1="70.19" x2="1215.54" y2="105.12"/>
    <polyline class="cls-8" points="101.22 137.75 101.22 439.25 39.5 439.25"/>
    <polyline class="cls-8" points="82.39 118.92 82.39 420.42 29.63 420.42"/>
    <line class="cls-8" x1="82.39" y1="674.53" x2="1244.86" y2="674.53"/>
    <line class="cls-8" x1="67.05" y1="702.31" x2="1240.36" y2="702.31"/>
  </g>
  <g>
    <path class="cls-17" d="M441.05,76.1c-.48-6.94-6.15-12.37-13.1-12.55l-299.85-7.66c-9.9-.25-17.79,8.21-16.85,18.06l30.56,320.02c1.02,10.66,10.96,18.15,21.49,16.19l285.17-53.09c6.73-1.25,11.45-7.35,10.98-14.18l-18.4-266.79Z"/>
    <path class="cls-20" d="M457.79,72.58c-.49-7.03-6.24-12.55-13.29-12.73l-304.15-7.77c-10.04-.26-18.04,8.32-17.09,18.32l31,324.61c1.03,10.81,11.12,18.41,21.8,16.42l289.26-53.86c6.83-1.27,11.61-7.46,11.14-14.38l-18.66-270.62Z"/>
    <path class="cls-5" d="M140.35,52.09l304.15,7.77c7.05.18,12.8,5.69,13.29,12.73l9.19,133.31"/>
    <path class="cls-27" d="M230.13,86.97h-60.52c-1.86,0-3.31,1.6-3.13,3.45l1.46,15.1c.16,1.65,1.57,2.89,3.23,2.84l60.28-1.89c1.81-.06,3.2-1.63,3.03-3.43l-1.23-13.21c-.15-1.62-1.51-2.85-3.13-2.85Z"/>
    <line class="cls-8" x1="170.23" y1="129.08" x2="287.65" y2="122.32"/>
    <line class="cls-8" x1="171.73" y1="144.52" x2="237.18" y2="140"/>
    <path class="cls-28" d="M370.14,219.07c-1.81,1.46-3.15,3.43-3.85,5.65l-16.07,51.22c-1.91,6.09-8.33,9.56-14.47,7.81l-27.16-7.72c-5.41-1.54-11.15.96-13.71,5.96l-26.03,50.81c-2.73,5.34-9.04,7.77-14.65,5.65l-25.89-9.76c-4.21-1.59-8.95-.64-12.23,2.44l-19.84,18.64c-2.66,2.5-4.01,6.09-3.66,9.73l1.21,12.46,249.43-39.43-12.86-162-60.22,48.54Z"/>
    <line class="cls-5" x1="192.02" y1="353.75" x2="175.5" y2="183.36"/>
    <path class="cls-1" d="M190.77,340.87l24.57-74.76c1.97-6,8.31-9.38,14.39-7.67l19.62,5.52c3.8,1.07,7.88.17,10.87-2.41l31.82-27.34c1.75-1.5,3.9-2.46,6.19-2.75l27.32-3.48c5.08-.65,9.16-4.5,10.1-9.54l6.25-33.56c.99-5.32,5.47-9.28,10.87-9.61l77.6-4.76"/>
    <path class="cls-10" d="M189.33,325.98l27.52-21.4c3.59-2.79,8.46-3.27,12.52-1.23l15.46,7.75c5.96,2.99,13.2.45,15.99-5.6l32.95-71.52c.53-1.16,1.87-1.71,3.07-1.27l30.26,11.24c5.7,2.12,12.07-.45,14.71-5.92l22.51-46.56c.73-1.51,1.78-2.85,3.07-3.92l59.76-49.8"/>
    <path class="cls-21" d="M307.65,193.69l-35.26,2.53c-1.73.12-3.03,1.64-2.89,3.37l1.49,18.44c.14,1.76,1.71,3.05,3.46,2.86l13.66-1.52c1.01-.11,2.01.27,2.68,1.03l2.88,3.25c.35.39.99.29,1.2-.19l1.51-3.44c.45-1.02,1.41-1.73,2.52-1.85l10.57-1.17c1.51-.17,2.62-1.5,2.51-3.02l-1.31-17.69c-.12-1.55-1.47-2.72-3.02-2.61Z"/>
  </g>
  <g>
    <path class="cls-27" d="M847.84,0h-93.74c-2.75,0-4.99,2.23-4.99,4.99v65.21c0,2.08,2.52,3.13,4,1.66l10.51-10.44h84.22c2.75,0,4.99-2.23,4.99-4.99V4.99c0-2.75-2.23-4.99-4.99-4.99Z"/>
    <g>
      <circle class="cls-12" cx="800.97" cy="31.07" r="13.74" transform="translate(5.37 128.7) rotate(-9.22)"/>
      <path class="cls-15" d="M801.68,29.82c-2.21-.92-3.15-1.58-3.15-2.9,0-1.02.74-2.19,2.69-2.19,1.06,0,1.87.24,2.46.49.42.18.89-.02,1.05-.44l.08-.2c.15-.39-.02-.83-.4-1-.53-.23-1.17-.42-1.97-.51-.39-.04-.68-.39-.68-.78v-.95c0-.44-.35-.79-.79-.79s-.79.35-.79.79v1.12c0,.35-.22.68-.57.78-2.01.53-3.27,2.04-3.27,3.97,0,2.21,1.6,3.38,4.19,4.4,1.88.76,2.87,1.63,2.87,3.03s-1.22,2.49-3.03,2.49c-1.06,0-2.06-.27-2.88-.66-.43-.2-.93,0-1.09.44l-.08.21c-.13.37.02.79.38.97.72.36,1.65.62,2.6.72.4.04.69.38.69.78v1.04c0,.44.35.79.79.79h.03c.44,0,.79-.35.79-.79v-1.22c0-.35.22-.67.56-.75,2.26-.59,3.46-2.34,3.46-4.2,0-2.26-1.32-3.58-3.94-4.65Z"/>
    </g>
  </g>
  <g>
    <path class="cls-17" d="M1288.3,134.64l-8.69-7.6-2.6,4.91h-295.38c-6.76,0-13.26,5.48-14.5,12.25l-40.43,219.15c-.05.27-.08.54-.11.81l-5.6,1.28,8.94,7.82h.01c1.75,1.46,4.06,2.33,6.74,2.33h299.51c6.76,0,13.26-5.48,14.5-12.25l40.43-219.15c.71-3.86-.45-7.31-2.83-9.55h0Z"/>
    <path class="cls-20" d="M1272.74,124.62h-299.51c-6.76,0-13.26,5.48-14.5,12.25l-40.43,219.15c-1.25,6.76,3.22,12.25,9.99,12.25h299.51c6.76,0,13.26-5.48,14.5-12.25l40.43-219.15c1.25-6.76-3.22-12.25-9.99-12.25Z"/>
    <path class="cls-18" d="M997.64,203.53h-10.77c-2.25,0-4.18,1.61-4.59,3.82l-23.36,126.64c-.53,2.87,1.67,5.51,4.59,5.51h10.77c2.25,0,4.18-1.61,4.59-3.82l23.36-126.64c.53-2.87-1.67-5.51-4.59-5.51Z"/>
    <path class="cls-18" d="M1040.08,223.53h-10.77c-2.25,0-4.18,1.61-4.59,3.82l-19.67,106.64c-.53,2.87,1.67,5.51,4.59,5.51h10.77c2.25,0,4.18-1.61,4.59-3.82l19.67-106.64c.53-2.87-1.67-5.51-4.59-5.51Z"/>
    <line class="cls-8" x1="992.25" y1="153.39" x2="1012.5" y2="153.39"/>
    <line class="cls-8" x1="1038.37" y1="153.39" x2="1058.62" y2="153.39"/>
    <path class="cls-27" d="M990.99,239.6h-10.77c-2.25,0-4.18,1.61-4.59,3.82l-16.71,90.57c-.53,2.87,1.67,5.51,4.59,5.51h10.77c2.25,0,4.18-1.61,4.59-3.82l16.71-90.57c.53-2.87-1.67-5.51-4.59-5.51Z"/>
    <path class="cls-27" d="M1033.42,259.6h-10.77c-2.25,0-4.18,1.61-4.59,3.82l-13.02,70.57c-.53,2.87,1.67,5.51,4.59,5.51h10.77c2.25,0,4.18-1.61,4.59-3.82l13.02-70.57c.53-2.87-1.67-5.51-4.59-5.51Z"/>
    <path class="cls-18" d="M1224.58,223.53h-10.77c-2.25,0-4.18,1.61-4.59,3.82l-19.67,106.64c-.53,2.87,1.67,5.51,4.59,5.51h10.77c2.25,0,4.18-1.61,4.59-3.82l19.67-106.64c.53-2.87-1.67-5.51-4.59-5.51Z"/>
    <path class="cls-21" d="M1217.92,259.6h-10.77c-2.25,0-4.18,1.61-4.59,3.82l-13.02,70.57c-.53,2.87,1.67,5.51,4.59,5.51h10.77c2.25,0,4.18-1.61,4.59-3.82l13.02-70.57c.53-2.87-1.67-5.51-4.59-5.51Z"/>
    <path class="cls-18" d="M1095.43,173.53h-10.77c-2.25,0-4.18,1.61-4.59,3.82l-28.9,156.64c-.53,2.87,1.67,5.51,4.59,5.51h10.77c2.25,0,4.18-1.61,4.59-3.82l28.9-156.64c.53-2.87-1.67-5.51-4.59-5.51Z"/>
    <path class="cls-15" d="M1088.77,209.6h-10.77c-2.25,0-4.18,1.61-4.59,3.82l-22.24,120.57c-.53,2.87,1.67,5.51,4.59,5.51h10.77c2.25,0,4.18-1.61,4.59-3.82l22.24-120.57c.53-2.87-1.67-5.51-4.59-5.51Z"/>
    <path class="cls-18" d="M1139.71,183.53h-10.77c-2.25,0-4.18,1.61-4.59,3.82l-27.05,146.64c-.53,2.87,1.67,5.51,4.59,5.51h10.77c2.25,0,4.18-1.61,4.59-3.82l27.05-146.64c.53-2.87-1.67-5.51-4.59-5.51Z"/>
    <path class="cls-15" d="M1133.05,219.6h-10.77c-2.25,0-4.18,1.61-4.59,3.82l-20.4,110.57c-.53,2.87,1.67,5.51,4.59,5.51h10.77c2.25,0,4.18-1.61,4.59-3.82l20.4-110.57c.53-2.87-1.67-5.51-4.59-5.51Z"/>
    <path class="cls-18" d="M1189.52,163.53h-10.77c-2.25,0-4.18,1.61-4.59,3.82l-30.74,166.64c-.53,2.87,1.67,5.51,4.59,5.51h10.77c2.25,0,4.18-1.61,4.59-3.82l30.74-166.64c.53-2.87-1.67-5.51-4.59-5.51Z"/>
    <path class="cls-15" d="M1175.03,242.1h-10.77c-2.25,0-4.18,1.61-4.59,3.82l-16.25,88.07c-.53,2.87,1.67,5.51,4.59,5.51h10.77c2.25,0,4.18-1.61,4.59-3.82l16.25-88.07c.53-2.87-1.67-5.51-4.59-5.51Z"/>
  </g>
  <g>
    <path class="cls-23" d="M845.33,114.19c0,1.69,6.84,3.05,15.27,3.05s15.27-1.37,15.27-3.05v-6.01h-30.54v6.01Z"/>
    <ellipse class="cls-25" cx="860.59" cy="108.18" rx="15.27" ry="3.05"/>
  </g>
  <g>
    <path class="cls-23" d="M798.12,161.2c-1.19,1.2,2.71,6.98,8.71,12.91,6,5.93,11.82,9.76,13,8.56l4.23-4.27-21.71-21.47-4.23,4.27Z"/>
    <path class="cls-25" d="M802.35,156.92c-1.19,1.2,2.71,6.98,8.71,12.91,6,5.93,11.82,9.76,13,8.56,1.19-1.2-2.71-6.98-8.71-12.91-6-5.93-11.82-9.76-13-8.56Z"/>
  </g>
  <g>
    <path class="cls-23" d="M1213.91,649.88l-29.43,8.13,1.6,5.79c.45,1.63,7.4,1.12,15.53-1.12,8.13-2.24,14.35-5.38,13.9-7.01l-1.6-5.79Z"/>
    <path class="cls-25" d="M1198.38,651c-8.13,2.24-14.35,5.38-13.9,7.01.45,1.63,7.4,1.12,15.53-1.12s14.35-5.38,13.9-7.01c-.45-1.63-7.4-1.12-15.53,1.12Z"/>
  </g>
  <g>
    <path class="cls-23" d="M131.79,518.68l-21.47,21.71,4.27,4.23c1.2,1.19,6.98-2.71,12.91-8.71,5.93-6,9.76-11.82,8.56-13l-4.27-4.23Z"/>
    <path class="cls-25" d="M118.88,527.39c-5.93,6-9.76,11.82-8.56,13,1.2,1.19,6.98-2.71,12.91-8.71s9.76-11.82,8.56-13c-1.2-1.19-6.98,2.71-12.91,8.71Z"/>
  </g>
  <g>
    <path class="cls-26" d="M683.57,898.49c-3.34-1.34-16.38-7.46-26.44-13.55-2.88-1.74-5.52-3.48-7.61-5.1-9.43-7.28-22.21-17-22.42-18.71-.22-1.72.48-21.7.48-21.7l-41.58-3.54s.13,17.61-.08,26.39c-.06,2.44-.14,4.2-.26,4.71-.55,2.35-3.85,33-1.93,40.07.49,1.76,11.58,3,18.74,3.21,4.66.14,68.66,2.34,73.59.41s11.82-10.48,7.51-12.19Z"/>
    <path class="cls-26" d="M586.02,854.34c12.6,6.24,27.35,7.35,41.04,3.99.06-5.94.52-18.9.52-18.9l-41.58-3.54s.07,9.82.02,18.45Z"/>
    <path class="cls-26" d="M471.75,882.02c-4.98-9.48-7.55-19.61-7.55-19.61l2.89-24.37-41.53-3.86s-2.26,17.06-3.58,25.47c-.03.23-.07.45-.1.67-1.29,8.15-5.43,24.87-6.82,35.15-.2,1.48,2.53,2.35,6.82,2.35,0,0,.43,4.29,0,9.75-.43,5.47,1.98,15.11,11.79,17.04,9.8,1.93,51.75,1.77,58.5,0s6.26-7.39,6.1-7.88c-.16-.48-21.53-25.23-26.52-34.71Z"/>
    <path class="cls-19" d="M423.27,850.94c13.28,6.32,27.24,7.86,41.44,7.18l2.38-20.09-41.53-3.86s-1.16,8.72-2.3,16.76Z"/>
    <path class="cls-30" d="M590.35,429.6c-19.07-11.57-154.5-6.75-133.29,37.61,21.21,44.36,62.39,58.58,64.53,66.59,3.86,14.46,49.76,98.51,49.76,98.51.96,4.82,11.82,215.58,11.82,215.58,32.09,12.54,47.46-.75,47.46-.75,0,0,13.32-192.59,8.59-225.32-10.09-69.75-48.87-192.21-48.87-192.21Z"/>
    <path class="cls-30" d="M415.67,408.12l-2.05,7.5c-7.3,26.74-8.32,54.79-2.99,81.98,6.78,34.59,23.42,78.48,39.36,141.15,0,0-21.72,121.36-30.47,202.98,0,0,7.39,8.94,26.68,10.23s22.18-7.39,22.18-7.39c0,0,35.35-133.88,49.31-181.02,3.13-10.58,4.78-21.52,4.9-32.54.28-27.04.68-77.4-.04-97.52-.08-2.27.47-4.51,1.62-6.46,2.23-3.76,10.66-4.24,11.97-13.42,1.93-13.52,3-70.71,3-70.71,0,0-58.69-44.68-123.47-34.77Z"/>
    <path class="cls-6" d="M522.55,533.48c-.08-2.27.47-4.51,1.62-6.46,2.23-3.76,10.66-4.24,11.97-13.42,1.93-13.52,3-70.71,3-70.71"/>
    <path class="cls-6" d="M489.5,619.05c-13.11,1.37-23.12,13.8-22.35,27.75s12.01,24.15,25.12,22.78c13.11-1.37,23.12-13.8,22.35-27.75-.77-13.95-12.01-24.15-25.12-22.78Z"/>
    <path class="cls-6" d="M615.48,616.77c-11.73,2.19-19.77,14.83-17.97,28.24s12.78,22.51,24.5,20.33c11.73-2.19,19.77-14.83,17.97-28.24s-12.78-22.51-24.5-20.33Z"/>
    <path class="cls-6" d="M449.99,454.03s-1.37,15.65-6.25,24.86c-4.03,7.61-10.46,13.07-23,17.57"/>
    <path class="cls-29" d="M471.75,882.02c-4.98-9.48-7.55-19.61-7.55-19.61-.44.95-1.07,1.75-1.85,2.43-.74.64-1.02,1.65-.77,2.59.48,1.82,1.34,4.78,2.4,7.35.99,2.42,4.06,9.06,5.92,12.71.48.95-.39,2-1.41,1.72-11.55-3.18-23.43-1.81-30.2-.5-3.08.59-6.08-1.34-6.79-4.4-1.38-5.93-3.52-14.12-3.52-14.68,0-.16.15-1.18.38-2.7.19-1.26-.42-2.51-1.54-3.13-3.6-1.99-4.83-4.16-4.83-4.16-.03.23-.07.45-.1.67-1.29,8.15-5.43,24.87-6.82,35.15-.2,1.48,2.53,2.35,6.82,2.35,0,0,.43,4.29,0,9.75-.43,5.47,1.98,15.11,11.79,17.04,9.8,1.93,51.75,1.77,58.5,0s6.26-7.39,6.1-7.88c-.16-.48-21.53-25.23-26.52-34.71Z"/>
    <path class="cls-8" d="M421.88,897.82s.06-3.64-1.23-12.63"/>
    <path class="cls-29" d="M683.57,898.49c-3.34-1.34-16.38-7.46-26.44-13.55-17.21-5.27-22.32,6.24-28.75,2.06s-26.03-13.5-26.35-19.88c0,0,0,0,0-.01-.04-.79-.65-1.44-1.44-1.54-6.43-.84-11.19-2.04-14.67-3.28-.06,2.44-.14,4.2-.26,4.71-.55,2.35-3.85,33-1.93,40.07.49,1.76,11.58,3,18.74,3.21,4.66.14,68.66,2.34,73.59.41,4.93-1.93,11.82-10.48,7.51-12.19Z"/>
  </g>
  <g>
    <path class="cls-16" d="M795.12,299.47c-5-6.54-13.99-8.52-21.27-4.69-27.73,14.59-82.16,41.21-82.16,41.21l-.32-93.37c-.05-15.52-12.11-28.36-27.6-29.38h0c-17.86-1.17-32.66,13.69-31.4,31.55l9.29,132.07c1.64,23.29,28.28,35.65,47.12,21.86l102.92-75.35c7.64-5.6,9.19-16.38,3.44-23.9h0Z"/>
    <line class="cls-9" x1="691.69" y1="335.99" x2="671.46" y2="345.07"/>
    <path class="cls-26" d="M829.49,235.46c-3.77.82-19.51,6.39-26.72,8.98-2.39.86-4.52,2.29-6.22,4.18l-13.42,14.92c-2.53,2.81-4.04,6.4-4.23,10.18-.58,11.78-4.27,23.03-4.27,23.03,2.74,13.32,9.74,18.13,14.03,19.84,1.95.78,4.16.35,5.68-1.1l6.86-6.53c13.93-6.21,16.37-26.36,16.37-26.36l11.31-10.2c1.68-1.52,1.97-4.05.68-5.91l-2.65-3.82.59-2.05c.43-1.52.04-3.16-1.04-4.31l-8.26-8.82c14.39-6.78,16.21-13.1,11.28-12.03Z"/>
    <path class="cls-9" d="M788.56,262.46s16.89-6.96,20.57-8.14c.67-.21,1.34,3.16-.44,5.65-3,4.19-10.91,10.04-10.91,10.04,0,0,9.64,7.88,4.29,21.38"/>
    <path class="cls-9" d="M826.92,262.68l-11.8,14.32c-1.07,1.3-.82,3.24.55,4.23h0c1.12.8,2.64.72,3.67-.2l2.31-2.09"/>
    <path class="cls-9" d="M822.83,267.63l-6.85,7.39c-1.37,1.48-3.69,1.56-5.16.17l-.31-.29c-1.29-1.22-1.52-3.2-.52-4.67l10.65-15.85c.98-1.46.83-3.41-.38-4.7l-.29-.31"/>
    <line class="cls-9" x1="818.21" y1="247.49" x2="809.14" y2="254.32"/>
    <path class="cls-9" d="M802.89,265.27l1.87,1.66c1.36,1.2,3.43,1.09,4.65-.25l11.23-12.31"/>
    <path class="cls-4" d="M766.38,298.67s-1.07,8.79,6.32,18.3c6.98,8.98,14.17,9.46,17.49,7.49"/>
  </g>
  <path class="cls-22" d="M726.57,84.38c-10.24-6.47-22.37-2.71-39.06-5.74-15.64-2.84-26.8-7.01-34.06-6.54-15.01.97-38.11,21.04-39.3,25.33s.95,11.84-1.67,15.45c-2.62,3.6-9.53,7.99-6.67,17.43,2.86,9.44,9.77,10.43,8.81,16.18-.95,5.75-1.43,16.19,9.05,21.23,10.48,5.04,8.81,8.15,18.82,4.19,10-3.96,63.39-11,67.2-14.39,0,0,5.03.31,9.6-2.92,5.67-4.01,7.01-9.82,5.41-15.96,0,0,15.91-12.25,15.92-21.76.03-19.21-11.35-30.78-14.05-32.49Z"/>
  <path class="cls-30" d="M631.6,182.75c-38.72-15.18-81.3-1.48-97.67,5.03-5.76,2.29-11.08,5.61-15.54,9.92-29.98,29.03-38.8,92.97-69.04,130.97-23.58,29.63-36.23,58.24-41.1,70.76-1.77,4.55-1.11,9.69,1.84,13.58,13.69,18.1,51.06,41.37,105.05,44.01,43.47,2.13,65.59-10.83,74.78-18.55,3.43-2.88,5.33-7.17,5.28-11.65-.16-13.95-.4-46.95.94-51.66,1.71-6,11.36-16.93,11.36-16.93,44.36-50.14,71.36-88.71,76.48-110.89,5.13-22.18-3.2-45.32-52.38-64.61Z"/>
  <path class="cls-20" d="M648.64,235.34s-12.62,1.73-15.48-2.77-13.15-17.04-13.15-17.04c0,0,.47,75.78-14.87,118.57,0,0,37.37-36.64,49.91-59.28,12.54-22.64,11.39-29.4,8.75-34.06-2.64-4.66-15.15-5.42-15.15-5.42Z"/>
  <path class="cls-16" d="M670.27,210.94c3.63,21.44-7.71,41.66-7.71,41.66,0,0-24.37,45.15-55.9,77.75l-7.1,14.71c52.93-39.96,74.14-80.84,74.14-80.84,0,0-.17-3.56-.54-6.21-.38-2.73-1.1-5.41-1.1-5.41l6.94-9.75c2.2-18.75-5.09-36.96-5.09-36.96-8.79-1.77-3.65,5.05-3.65,5.05Z"/>
  <path class="cls-29" d="M485.38,256.32c-5.99,14.88-11.88,30.32-18.93,44.56v.02s84.66-46.59,84.66-46.59l-23.55-7.62-42.18,9.63Z"/>
  <path class="cls-26" d="M630.33,165.02s-2.48,23.29-5.7,34.22,5.68,37.79,24.23,40.05c16.05,1.95,17.38-18.19,17.38-18.19,0,0,3.38-25.71,5.1-32.14,1.71-6.43-24.82-32.44-41.02-23.94Z"/>
  <path class="cls-29" d="M636.19,193.53s7.4,23.93,30.07,27.57l2.22-11.79s-20.95-3.72-32.29-15.79Z"/>
  <g>
    <path class="cls-23" d="M633.15,242.96l3.48,21.21s8.36,2.57,16.07,0l6.21-19.71-10.29-9.12-15.48,7.62Z"/>
    <path class="cls-20" d="M625.42,196.28l1.27-5.97s-10.2,8.51-8.91,24.75c1.06,13.36,7.92,28.55,10.32,33.52.41.85,1.51,1.08,2.23.47,9.02-7.6,18.31-13.71,18.31-13.71-24.43-17.48-23.22-39.06-23.22-39.06Z"/>
    <path class="cls-20" d="M668.09,207.94l-1.83,7.08c-4.88,14.91-17.62,20.33-17.62,20.33,2.13,1.6,9.72,11.63,12.71,15.62.61.81,1.84.76,2.37-.1,2.12-3.43,6.52-11.75,7.71-23.34,1.44-14.03,0-23.5,0-23.5l-3.34,3.91Z"/>
  </g>
  <path class="cls-16" d="M590.32,211.03s8.39,15.62,12.03,24.31c0,0-6.61,4.21-11.54,7.21,0,0,6.4,27.31,8.76,62.98,1.34,20.34,0,39.54,0,39.54,0,0,11.72-16.86,20.14-63.29,6.22-34.28-2.29-66.82,5.71-85.49,0,0,2.7-9.54,3.82-21.67,0,0-20.94,8.67-38.92,36.42Z"/>
  <path class="cls-9" d="M602.35,235.34s14.02-8.45,19.33-10.38"/>
  <path class="cls-9" d="M599.56,345.07l-15,17.25-4.94,4.94c-1.44,1.44-1.94,3.57-1.3,5.5h0c.66,1.97.12,4.14-1.38,5.58-2.64,2.52-6.55,6.46-7.38,8.41-1.29,3-4.1,38.63-15.76,67.74"/>
  <path class="cls-9" d="M672.07,252.6s-2.08-8.23-3.59-11.84"/>
  <path class="cls-29" d="M577.76,388.35c-1.27,0-2.3,1.03-2.3,2.3s1.03,2.3,2.3,2.3,2.3-1.03,2.3-2.3-1.03-2.3-2.3-2.3Z"/>
  <circle class="cls-29" cx="570.85" cy="426.54" r="2.3"/>
  <path class="cls-16" d="M521.27,381.88c-21.52-4.59-36.22-12.39-41.88-15.77-1.42-.84-3.25-.3-3.96,1.19l-1.16,2.44c-.61,1.29-.16,2.84,1.06,3.58,5.41,3.29,20.94,11.78,44.05,16.66,1.46.31,2.91-.57,3.29-2.01l.71-2.65c.41-1.54-.55-3.11-2.1-3.44Z"/>
  <g>
    <path class="cls-26" d="M329.13,402.66s-.97,10.43,1.12,14.54c1.76,3.46,5.18,3.31,5.83,1.56.64-1.75-.22-8.85,3.11-15.37,3.32-6.52,4.01-12.31,4.42-14.88.41-2.57-16.89-6.21-14.47,14.14Z"/>
    <path class="cls-20" d="M209.42,459.44l128.71,69.35c19.19-36.32,61.71-94.11,61.71-94.11-37.97-19.48-138.14-58.89-138.14-58.89-31.92,37.42-52.28,83.65-52.28,83.65Z"/>
    <path class="cls-16" d="M565.41,212.26c-7.43-18.58-29.17-26.81-47.04-17.8-33.18,16.71-80.87,41.28-92.71,50.27-14.09,10.69-66.03,74.29-90.54,104.69-7.16,8.88-5.68,21.9,3.28,28.95h0c8.01,6.31,19.44,5.77,26.82-1.28,27.47-26.24,89.72-85.65,93.22-88.65,2.89-2.48,51.74-19.41,86.31-31.21,18.5-6.31,27.92-26.83,20.67-44.97h0Z"/>
    <path class="cls-26" d="M332.85,358.73l-8.35,5.36-26.46,7.36c-2.74.76-4.92,2.84-5.82,5.54-3.01,9.07-9.66,29.9-10.06,37.95-.19,3.78,2.61,3.83,2.61,3.83,0,0-3.99,14.26-2.63,16.4,1.87,2.96,5.33-.41,6.97-2.45,0,0,3.07,2.86,7.36-1.43.82.94,3.4,2.29,6.71-.12,9.96-7.29,26.4-28.28,26.4-28.28,0,0,7.38-3.48,14.58-11.89,2.58-3.02,6.95-5.99,8.41-10.61,0,0,.91-20.25-19.72-21.64Z"/>
    <path class="cls-9" d="M289.12,432.71h0c-1.12-.79-1.48-2.28-.86-3.49l16.37-31.69"/>
    <line class="cls-9" x1="284.78" y1="418.77" x2="293.94" y2="392.47"/>
    <path class="cls-15" d="M370.89,439.85c-1.7-.92-3.52-1.84-4.82-2.49-1.07-.53-2.36-.26-3.12.66-5.69,6.85-12.06,16.43-14.86,20.73-.79,1.22-.41,2.86.84,3.6l4.72,2.81c1.17.69,2.67.36,3.44-.77,5.48-8.07,11.72-16.74,14.65-20.78.91-1.25.51-3.02-.85-3.76Z"/>
    <path class="cls-8" d="M352.38,429.86s-20.04,26.83-39.3,57.1"/>
    <path class="cls-8" d="M338.39,423.73s-9.85,13.18-22.37,31.49"/>
    <path class="cls-9" d="M296.48,431.28h0c-.89-.87-1.01-2.26-.29-3.28,3.84-5.43,15.39-21.79,18.15-25.88"/>
    <path class="cls-4" d="M335.11,349.42s8.97-.5,18.29,7.7c9.32,8.2,9.42,20.15,7.28,23.25"/>
    <path class="cls-17" d="M239.53,444.18c-3.79-.5-7.43,2.39-7.87,6.47-.43,4.06,2.52,7.35,6.34,7.35,3.56,0,6.6-2.89,7.01-6.47.41-3.59-1.95-6.88-5.48-7.35Z"/>
  </g>
  <path class="cls-26" d="M631.17,115.78c-7.95,22.14,0,40.54-.51,51.79-.51,11.25,3,32.99,24.04,43.87,22.04,11.4,42.65-.25,48.39-19,7.44-24.31,6.54-24.28,12.45-47.01,6.59-25.34-2.04-31.64-6.41-36.66-19.39-22.33-68.59-19.08-77.96,7.02Z"/>
  <path class="cls-22" d="M680.83,84.62c-31.92-6.33-53.21,5.57-58.02,19.51-4.82,13.93-2.02,41.55,2.29,43.07,4.31,1.52,7.35,10.39,10.64,7.72,3.29-2.67,7.09-20.14,7.09-20.14,12.67-4.31,18.24-17.1,18.24-17.1,0,0,5.83,10.01,26.1,18.88,23.53,10.29,36.74,0,36.74,0,8.36-28.63-11.15-45.6-43.07-51.94Z"/>
  <path class="cls-26" d="M622.31,142.39c-6.84-1.01-6.43,17.25,1.52,23.31,5.32,4.05,8.87,0,8.87,0v-9.88s-3.55-12.41-10.39-13.43Z"/>
  <path class="cls-25" d="M636.64,264.18l-21.64,144.84c-.23,1.55.12,3.14,1,4.44l20.53,30.66c1.12,1.67,3.57,1.66,4.68-.01l17.85-26.93c.74-1.12,1.11-2.45,1.04-3.8l-7.4-149.21c-8.68,2.14-16.07,0-16.07,0Z"/>
  <line class="cls-3" x1="653.83" y1="286.78" x2="630.14" y2="307.65"/>
  <line class="cls-3" x1="655.53" y1="321.06" x2="623.99" y2="348.81"/>
  <line class="cls-3" x1="657.65" y1="363.9" x2="616.37" y2="399.78"/>
  <line class="cls-3" x1="659.77" y1="406.69" x2="629.24" y2="433.24"/>
  <g>
    <path class="cls-22" d="M668.14,150.43c-1.66,1.38-1.88,3.84-.5,5.5,1.38,1.66,3.84,1.88,5.5.5,1.66-1.38,1.88-3.84.5-5.5-1.38-1.66-3.84-1.88-5.5-.5Z"/>
    <path class="cls-2" d="M689.49,178.22c8.61-1.65,11.05-7.94,5.74-11.45l.62-4.44"/>
    <path class="cls-2" d="M687.27,188.16s-12.5,1.76-18.14-9.55"/>
    <path class="cls-22" d="M701.6,153.77c-1.87-.29-3.64,1.11-3.95,3.13-.31,2.02.96,3.88,2.83,4.17,1.87.29,3.64-1.11,3.95-3.13.31-2.02-.96-3.88-2.83-4.17Z"/>
    <path class="cls-22" d="M678.93,138.28c-3.55-1.69-10.18-2.98-16.95,1.01-9.25,5.45,10.4,2.7,14.42,5.57,4.02,2.86,6.87-4.51,2.53-6.58Z"/>
    <path class="cls-22" d="M701.86,142.47c-2.43,1.13-4.05,7.06-.57,5.93,3.49-1.12,10.41,2.9,7.61-3.09-.77-1.64-4.37-4.09-7.04-2.85Z"/>
  </g>
  <path class="cls-22" d="M695.46,199.82c-8.16,5.49-5.97-2.59-22.68,0-9.56,1.48-26.59-1-32.06-16.38s-3.42-31.47-2.32-41.31c1.1-9.85-9.02,3.37-6.27,11.99,0,0,.5,10.53.57,24.1.07,13.57,6.29,26.58,22.5,34,16.21,7.42,30.7,5.52,40.97-5.86,6.42-7.11,9.24-16.63,11.42-24.75,2.48-9.21,1.81-11.29,1.81-11.29,0,0-5.44,23.77-13.94,29.5Z"/>
  <path class="cls-22" d="M738.63,117.49s1.99,11.36-9.43,21.15"/>
  <g>
    <rect class="cls-13" x="275.75" y="603.18" width="10.29" height="28.29"/>
    <rect class="cls-29" x="275.75" y="631.46" width="10.29" height="163.29"/>
    <path class="cls-29" d="M200.86,601.37c0,5.06,35.83,9.16,80.04,9.16s80.04-4.1,80.04-9.16v-13.79h-160.07v13.79Z"/>
    <path class="cls-7" d="M217.9,876.71v-27.96c0-34.79,28.21-63,63-63h0c34.79,0,63,28.21,63,63v27.96"/>
    <line class="cls-7" x1="280.9" y1="785.75" x2="280.9" y2="880.08"/>
    <circle class="cls-29" cx="217.9" cy="876.71" r="14.14" transform="translate(-556.11 410.86) rotate(-45)"/>
    <circle class="cls-29" cx="343.9" cy="876.71" r="14.14" transform="translate(-519.2 499.95) rotate(-45)"/>
    <circle class="cls-29" cx="280.9" cy="880.08" r="14.14" transform="translate(-194.69 88.08) rotate(-13.28)"/>
    <ellipse class="cls-24" cx="280.9" cy="587.59" rx="80.04" ry="9.16"/>
    <rect class="cls-29" x="271.42" y="770.64" width="18.96" height="30.21" rx="4.1" ry="4.1"/>
  </g>
  <g>
    <rect class="cls-18" x="534.18" y="537.6" width="662.46" height="14.46" rx="3.21" ry="3.21"/>
    <rect class="cls-20" x="534.18" y="537.6" width="227.04" height="14.46" rx="3.21" ry="3.21"/>
    <g>
      <rect class="cls-18" x="557.54" y="552.07" width="10.61" height="25.39"/>
      <rect class="cls-20" x="557.54" y="577.46" width="10.61" height="343.93"/>
      <rect class="cls-18" x="727.25" y="552.07" width="10.61" height="25.39"/>
      <rect class="cls-20" x="727.25" y="577.46" width="10.61" height="343.93"/>
    </g>
    <g>
      <rect class="cls-17" x="992.97" y="552.07" width="10.61" height="25.39"/>
      <rect class="cls-18" x="992.97" y="577.46" width="10.61" height="343.93"/>
      <rect class="cls-18" x="1162.68" y="577.46" width="10.61" height="343.93"/>
      <rect class="cls-17" x="1162.68" y="552.07" width="10.61" height="25.39"/>
    </g>
  </g>
  <g>
    <path class="cls-20" d="M978.48,927.94c0,4.8,27.11,8.69,60.55,8.69s60.55-3.89,60.55-8.69l19.49-184.32h-160.07l19.49,184.32Z"/>
    <path class="cls-5" d="M978.48,927.94c0,4.8,27.11,8.69,60.55,8.69s60.55-3.89,60.55-8.69l19.49-184.32"/>
    <path class="cls-20" d="M971.48,729.83l-12.49,13.79c0,5.06,35.83,9.16,80.04,9.16s80.04-4.1,80.04-9.16l-12.49-13.79h-135.09Z"/>
    <path class="cls-5" d="M958.99,743.62c0,5.06,35.83,9.16,80.04,9.16s80.04-4.1,80.04-9.16"/>
    <ellipse class="cls-18" cx="1039.03" cy="729.83" rx="67.54" ry="7.73"/>
    <path class="cls-18" d="M1113.7,746.11c-.54-1.78-2.34-2.85-4.17-2.51-8.16,1.53-17.21,2.45-22.48,2.9-2.11.18-3.67,2.12-3.3,4.2.08.47.14.91.18,1.34.18,1.93,1.88,3.36,3.82,3.26,10.02-.56,19.14-2.34,23.51-3.31,1.8-.4,3.05-2.08,2.86-3.91-.08-.73-.22-1.38-.4-1.97Z"/>
  </g>
  <g>
    <rect class="cls-20" x="1042.79" y="398.18" width="89.14" height="139.43"/>
    <path class="cls-17" d="M1148.71,398.18h-16.78v139.43h21.43v-134.78c0-2.57-2.08-4.65-4.65-4.65Z"/>
    <rect class="cls-5" x="1056.93" y="462.6" width="60.86" height="59"/>
    <line class="cls-8" x1="1117.79" y1="411.18" x2="1108.79" y2="411.18"/>
    <rect class="cls-20" x="1139.65" y="408.18" width="6" height="18.21"/>
    <g>
      <path class="cls-15" d="M1170.14,431.21h-16.78v106.39h21.43v-101.75c0-2.57-2.08-4.65-4.65-4.65Z"/>
      <rect class="cls-18" x="1161.08" y="441.21" width="6" height="18.21"/>
    </g>
  </g>
  <g>
    <path class="cls-17" d="M1141.46,235.46h-275.86c-3.85,0-7.26,2.49-8.43,6.15l-61.5,191.7c-1.25,3.89,1.65,7.86,5.73,7.86h275.86c3.85,0,7.26-2.49,8.43-6.15l61.5-191.7c1.25-3.89-1.65-7.86-5.73-7.86Z"/>
    <path class="cls-17" d="M998.67,371.92c-.22-1.93-1.86-3.38-3.8-3.38h-37.98c-2.13,0-3.85,1.75-3.82,3.88l1.91,133.23c.08,5.27-1.71,10.13-4.74,13.96h64.63c.39-2.1.48-4.3.22-6.54l-16.41-141.15Z"/>
    <path class="cls-14" d="M932.97,527.96h-72.22c-2.66,0-4.82,2.16-4.82,4.82h0c0,2.66,2.16,4.82,4.82,4.82h132.47c10.9,0,19.77-7.87,21.63-18h-64.63c-4.03,5.09-10.25,8.36-17.25,8.36Z"/>
    <path class="cls-14" d="M953.13,371.64l-22.31,69.54h23.23l-.99-68.76c0-.27.02-.53.07-.78Z"/>
    <path class="cls-20" d="M865.61,235.47c-3.85,0-7.26,2.48-8.44,6.15l-61.5,191.7c-1.25,3.89,1.65,7.86,5.73,7.86,3.64,0,6.87-2.35,7.98-5.82l61.78-192.29c1.21-3.76-1.6-7.61-5.55-7.61Z"/>
    <line class="cls-11" x1="832.31" y1="425.75" x2="840.67" y2="425.75"/>
    <line class="cls-11" x1="855.85" y1="425.75" x2="864.21" y2="425.75"/>
    <line class="cls-11" x1="879.39" y1="425.75" x2="887.75" y2="425.75"/>
    <path class="cls-11" d="M953.06,372.41c-.03-2.13,1.69-3.88,3.82-3.88h37.98c1.94,0,3.57,1.45,3.8,3.38l16.41,141.15"/>
  </g>
  <g>
    <path class="cls-20" d="M697.71,475.25h-39.45c-2.15,0-3.85,1.8-3.74,3.95l3.02,54.87c.11,1.98,1.75,3.54,3.74,3.54h33.41c1.99,0,3.63-1.55,3.74-3.54l3.02-54.87c.12-2.14-1.59-3.95-3.74-3.95Z"/>
    <line class="cls-5" x1="654.78" y1="483.82" x2="701.13" y2="483.82"/>
    <path class="cls-4" d="M701,487.26h9.72c3.17,0,5.65,2.75,5.31,5.91l-2.14,20.23c-.41,3.85-2.81,7.21-6.33,8.84l-8.71,4.05"/>
  </g>
  <g>
    <path class="cls-18" d="M753.29,521.97h-25.71c-8.64,0-15.65,7-15.65,15.64h57c0-4.32-1.75-8.23-4.58-11.06s-6.74-4.58-11.06-4.58Z"/>
    <path class="cls-20" d="M733.04,521.97h-5.46c-8.64,0-15.65,7-15.65,15.64h36.75c0-4.32-1.75-8.23-4.58-11.06s-6.74-4.58-11.06-4.58Z"/>
  </g>
</svg>