<?xml version="1.0" encoding="UTF-8"?>
<svg id="_05" data-name="05" xmlns="http://www.w3.org/2000/svg" viewBox="0 0 4680 3120">
  <defs>
    <style>
      .cls-1 {
        fill: #ef4623;
      }

      .cls-2 {
        fill: #113d75;
      }

      .cls-3 {
        fill: #b468d6;
      }

      .cls-4 {
        fill: #c68217;
      }

      .cls-5 {
        fill: #f57977;
      }

      .cls-6 {
        fill: #f9692e;
      }

      .cls-7 {
        fill: #3e2312;
      }

      .cls-8 {
        fill: #f4ad2e;
      }

      .cls-9 {
        fill: #dbd9d0;
      }

      .cls-10 {
        fill: #ee6a4a;
      }

      .cls-11 {
        fill: #f7a18a;
      }

      .cls-12 {
        fill: #0077b4;
      }

      .cls-13 {
        fill: #08bfad;
      }

      .cls-14 {
        fill: #f3888a;
      }

      .cls-15 {
        fill: #e7d84b;
      }

      .cls-16, .cls-17 {
        fill: #fff;
      }

      .cls-18 {
        fill: #8ee4fd;
      }

      .cls-19 {
        fill: #b56739;
      }

      .cls-17 {
        opacity: 0;
      }

      .cls-20 {
        fill: #5b1e13;
      }

      .cls-21 {
        fill: #fe4565;
      }

      .cls-22 {
        fill: #ffdd28;
      }

      .cls-23 {
        fill: #eef6f9;
      }

      .cls-24 {
        fill: #fbc5a9;
      }

      .cls-25 {
        fill: #383838;
      }

      .cls-26 {
        fill: #e57075;
      }

      .cls-27 {
        fill: #40cef4;
      }

      .cls-28 {
        fill: #daf6fe;
      }

      .cls-29 {
        fill: #008c83;
      }

      .cls-30 {
        fill: #232033;
      }

      .cls-31 {
        fill: #25615b;
      }

      .cls-32 {
        fill: #ffb2a6;
      }

      .cls-33 {
        fill: #b0dfe5;
      }
    </style>
  </defs>
  <g>
    <rect id="_05-2" data-name="05" class="cls-17" width="4680" height="3120"/>
    <g>
      <path class="cls-33" d="M3659.37,2645.58s494.95-291.81,257.5-733.6c-105.57-196.41-354.59-161.9-153.36-612.43,201.23-450.53-257.34-998.81-852.07-792.86-639.59,221.49-514.66,111.09-658.37-2.93-287.18-227.86-1203.65-233.44-1365.68,344.08-190.14,677.71,392.44,800.45,92.79,904.47-427.99,148.57-393.16,479.42-69.86,860.75l2749.05,32.52Z"/>
      <g>
        <path class="cls-6" d="M1019.09,2261.26c-13.68,10.71-33.46,8.29-44.16-5.4l-576.51-737.25c-10.7-13.69-8.28-33.46,5.4-44.16l452.09-353.51c13.68-10.7,33.45-8.28,44.16,5.4l576.51,737.26c10.7,13.69,8.29,33.46-5.4,44.16l-452.09,353.51Z"/>
        <path class="cls-15" d="M912.95,1508.1c-13.69,10.7-33.45,8.28-44.16-5.4l-107.94-138.04c-10.7-13.69-8.29-33.45,5.4-44.16l59.64-46.64c13.68-10.7,33.45-8.28,44.16,5.4l107.94,138.04c10.7,13.69,8.29,33.46-5.4,44.16l-59.64,46.64Z"/>
        <rect class="cls-16" x="665.16" y="1401.69" width="56.87" height="180.93" transform="translate(-771.94 743.96) rotate(-38.02)"/>
        <rect class="cls-16" x="617.89" y="1460.87" width="56.88" height="345.89" transform="translate(-869.24 744.91) rotate(-38.02)"/>
        <rect class="cls-16" x="791.73" y="1563.54" width="56.87" height="180.93" transform="translate(-844.79 856.29) rotate(-38.02)"/>
        <rect class="cls-16" x="918.29" y="1725.39" width="56.87" height="180.93" transform="translate(-917.63 968.61) rotate(-38.02)"/>
        <rect class="cls-16" x="1044.85" y="1887.24" width="56.87" height="180.93" transform="translate(-990.44 1080.87) rotate(-38.02)"/>
        <path class="cls-16" d="M1288.43,1953.34c-29.23,0-58.16-12.94-77.52-37.7-1.98-2.53-1.53-6.19,1-8.17,2.53-1.98,6.19-1.53,8.17,1,29.42,37.62,83.97,44.3,121.6,14.88,18.2-14.23,29.77-34.73,32.58-57.72,2.81-23-3.47-45.68-17.7-63.88-1.98-2.53-1.53-6.19,1-8.17,2.53-1.98,6.19-1.53,8.17,1,16.15,20.65,23.28,46.38,20.09,72.46-3.19,26.08-16.32,49.34-36.97,65.48-17.93,14.02-39.25,20.81-60.42,20.81Z"/>
        <path class="cls-16" d="M1288.49,1924.83c-2.86,0-5.75-.17-8.64-.53-18.51-2.26-35.01-11.58-46.47-26.23-1.98-2.53-1.53-6.19,1-8.17,2.53-1.98,6.19-1.53,8.17,1,9.54,12.2,23.29,19.96,38.71,21.85,15.42,1.89,30.64-2.33,42.84-11.87,25.23-19.73,29.71-56.32,9.98-81.55-1.98-2.53-1.53-6.19,1-8.17,2.53-1.98,6.19-1.53,8.17,1,23.69,30.29,18.31,74.21-11.98,97.89-12.36,9.67-27.3,14.78-42.79,14.78Z"/>
        <path class="cls-16" d="M1288.36,1896.31c-12.25,0-24.39-5.43-32.51-15.81-1.98-2.53-1.53-6.19,1-8.17,2.53-1.98,6.19-1.53,8.17,1,4.86,6.22,11.86,10.17,19.7,11.13,7.84.96,15.58-1.19,21.8-6.06,6.22-4.86,10.18-11.86,11.14-19.7.96-7.84-1.19-15.58-6.06-21.8-1.98-2.53-1.53-6.19,1-8.17,2.53-1.98,6.19-1.53,8.17,1,6.78,8.67,9.78,19.46,8.44,30.39-1.34,10.93-6.85,20.68-15.52,27.46-7.52,5.88-16.46,8.73-25.34,8.73Z"/>
      </g>
      <g>
        <g>
          <path class="cls-29" d="M3590.03,2608.14s21.65-170.13,99-209.57c77.35-39.44,106.38,18.61,151.12-38.42,44.74-57.03,89.48-99.55,150.43-105.35,60.96-5.8,98.87,22.54,178.78,1.88,79.91-20.66,150.08-5.76,172.03,46.04,21.95,51.8-47.21,125.22-100.31,117.03-53.1-8.2-51.4,72.06-130.46,103.82-79.06,31.76-106.21-16.39-157.61,26.64-51.4,43.03-39.87,239.52-362.98,57.94Z"/>
          <path class="cls-13" d="M4300.72,2370.29c-47.39-36.32-86.59-46.62-111.78-48.71,43.72-8.52,85.81-11.87,124.45-7.98,1.3.13,2.46-.81,2.59-2.12.13-1.3-.84-2.46-2.12-2.59-46.09-4.64-97.02.88-149.77,13.21-3.29.49-5.23,1-5.63,1.11-.34.09-.62.26-.87.47-38.52,9.38-77.93,22.29-117.1,37.46,10.79-15.46,35.03-57.51,9.86-94.25-.73-1.08-2.2-1.35-3.28-.62-1.08.74-1.35,2.21-.62,3.28,29.3,42.79-13.72,94.14-14.16,94.66-.04.05-.05.1-.08.15-39.64,15.69-78.93,33.6-116.67,52.38-.95.21-1.48.34-1.56.36-.65.17-1.16.6-1.46,1.15-45.29,22.64-88.28,46.49-126.88,69.23,11.37-16.48,33.36-54.04,32.55-96.96-.03-1.3-1.09-2.34-2.41-2.31-1.3.02-2.34,1.1-2.31,2.41,1.05,55.67-37.65,102.25-38.04,102.71-.08.09-.1.2-.17.3-36.08,21.5-67.95,41.77-93.85,58.82-.56.13-1.01.45-1.33.88-42.64,28.11-68.71,47.22-69.76,47.99-1.04.78-1.27,2.25-.49,3.3.35.47.83.77,1.36.89.65.15,1.36.03,1.95-.4.82-.61,17-12.47,44.47-31.1.07.02.12.09.19.11.28.07.57.08.87.04,1.34-.19,134.85-18.18,206.85,48.53.95.89,2.45.83,3.34-.12.89-.96.83-2.45-.12-3.34-63.69-59.02-173.7-53.32-203.21-50.56,5.52-3.71,11.44-7.65,17.7-11.77,10.03-1.87,119.91-20.25,190.04,52.99.33.34.73.57,1.17.67.75.18,1.57-.02,2.17-.59.94-.9.98-2.39.07-3.34-61.53-64.26-152.61-59.74-184.05-55.9,55.64-36.31,135.64-85.29,224.26-129.46,14.63-3.21,120.92-22.93,210.72,56.94.31.27.66.45,1.03.54.82.19,1.71-.06,2.3-.73.87-.98.78-2.47-.19-3.33-75.64-67.29-162.76-65.22-199.25-60.61,75.05-36.55,155.52-69.02,232.11-87.08,14.14-2.18,65.89-5.37,134.24,47.02.27.21.58.35.9.42.88.21,1.83-.1,2.42-.86.79-1.04.6-2.52-.44-3.31Z"/>
        </g>
        <g>
          <path class="cls-31" d="M3481.18,2612.04s-138.47-101.19-135.61-187.97c2.86-86.78,67.72-84.13,39.42-150.86-28.3-66.73-43.89-126.45-19.51-182.62,24.39-56.17,67.52-75.65,88.07-155.59,20.54-79.94,67.51-134.16,123.46-128.34,55.96,5.83,86.8,101.86,53.96,144.38-32.85,42.53,38.23,79.83,27.82,164.39-10.41,84.56-65.69,85.05-52.87,150.84,12.82,65.79,190.4,150.69-124.74,345.76Z"/>
          <path class="cls-29" d="M3616.51,1874.93c-54.71,23.93-82.67,53.27-96.67,74.31,13.68-42.39,31.09-80.86,53.17-112.8.74-1.07.47-2.54-.6-3.29-1.08-.74-2.56-.45-3.29.6-26.34,38.11-46.13,85.36-60.84,137.5-1.16,3.12-1.65,5.06-1.75,5.47-.08.34-.07.67,0,.99-10.41,38.25-18.16,78.99-23.81,120.62-8.32-16.92-33.41-58.46-77.74-54.2-1.3.12-2.24,1.27-2.13,2.57.12,1.3,1.28,2.25,2.57,2.12,51.62-4.96,75.78,57.52,76.02,58.15.02.06.07.09.09.15-5.43,42.29-8.74,85.34-10.54,127.46-.28.94-.42,1.47-.44,1.54-.17.66-.03,1.31.3,1.84-2.07,50.59-1.97,99.75-.73,144.54-8.93-17.92-31.18-55.33-69.14-75.37-1.15-.61-2.57-.17-3.19.99-.61,1.15-.17,2.58.99,3.19,49.24,25.99,71.31,82.38,71.52,82.95.04.11.13.19.19.29,1.38,41.98,3.72,79.67,6.13,110.59-.16.55-.09,1.1.12,1.59,4,50.91,8.12,82.97,8.29,84.26.18,1.29,1.36,2.2,2.65,2.03.57-.08,1.08-.36,1.44-.76.45-.5.69-1.18.59-1.9-.13-1.01-2.7-20.92-5.73-53.96.06-.05.14-.06.19-.11.19-.21.35-.46.46-.74.48-1.27,49.27-126.84,142.48-157.62,1.24-.4,1.91-1.74,1.5-2.98-.41-1.24-1.74-1.91-2.98-1.5-82.46,27.22-130.64,126.28-142.49,153.45-.58-6.63-1.17-13.71-1.75-21.18,3.21-9.69,40.23-114.76,138.25-140.75.46-.12.85-.37,1.15-.7.52-.57.74-1.39.53-2.19-.33-1.26-1.62-2.01-2.88-1.68-86,22.8-126.07,104.71-137.9,134.09-4.89-66.26-9.09-159.97-4.93-258.9,4.26-14.36,38.38-116.94,151.7-156.94.39-.14.71-.36.97-.64.56-.62.78-1.53.48-2.37-.43-1.23-1.78-1.88-3.01-1.44-95.47,33.69-135.77,110.96-149.38,145.13,4.28-83.37,14.76-169.51,35.97-245.28,4.93-13.43,27.16-60.28,106.05-94.78.32-.14.58-.34.8-.58.6-.67.8-1.65.41-2.53-.52-1.2-1.92-1.74-3.11-1.22Z"/>
        </g>
        <g>
          <path class="cls-13" d="M3495.41,2625.6s-73.06-211.59-5.36-302.48c67.7-90.89,135.24-39.74,154.61-132.35,19.37-92.61,47.13-168.23,115.1-210.27,67.97-42.05,128.72-30.8,210.28-101.19,81.56-70.39,172.28-93.53,227.92-45.61,55.64,47.92,17.18,173.83-49.7,194.95-66.88,21.12-18.47,114.04-92.61,196.92-74.14,82.88-133.76,42.24-169.01,122.31-35.26,80.07,91.86,303.32-391.22,277.71Z"/>
          <path class="cls-29" d="M4189.46,1936.29c-76.46-15.1-128.28-4.47-158.97,7.65,46.24-35.25,93.55-63.52,141-81.31,1.59-.6,2.4-2.37,1.8-3.97-.6-1.6-2.41-2.39-3.97-1.8-56.62,21.23-113.02,57.13-167.62,102.07-3.56,2.47-5.54,4.2-5.94,4.56-.34.3-.58.67-.75,1.06-39.65,33.25-78.3,71.15-115.35,111.55,3.69-24.33,7.73-87.55-42.96-115.99-1.48-.84-3.35-.3-4.19,1.18-.84,1.49-.31,3.36,1.18,4.19,59.03,33.13,38.39,118.1,38.17,118.95-.02.08,0,.15-.01.23-37.31,41.28-72.93,84.96-106.23,128.77-.99.8-1.54,1.26-1.61,1.33-.67.58-1.01,1.38-1.05,2.19-39.9,52.69-76.41,105.45-108.43,154.39,3.77-25.86,7.79-82.53-17.98-132.28-.78-1.51-2.63-2.1-4.15-1.32-1.51.78-2.1,2.64-1.32,4.16,33.42,64.54,15.08,141.42,14.88,142.18-.04.15,0,.3-.02.45-29.79,46.03-55.35,88.17-75.79,123.1-.58.47-.92,1.11-1.05,1.8-33.64,57.55-53.09,94.99-53.87,96.5-.77,1.51-.18,3.37,1.33,4.15.67.34,1.42.42,2.11.26.85-.2,1.61-.75,2.05-1.59.61-1.18,12.68-24.43,34.05-62.1.1-.01.19.04.29.02.36-.08.72-.23,1.04-.46,1.46-1,147.28-99.26,270.11-62.84,1.63.49,3.34-.45,3.83-2.08.49-1.63-.44-3.35-2.07-3.83-108.66-32.23-234.09,38.06-267.02,58.35,4.32-7.54,8.96-15.56,13.9-24.01,10.65-7.99,128.59-93.04,253.02-47.9.58.21,1.19.24,1.75.11.98-.23,1.83-.93,2.2-1.95.58-1.6-.24-3.37-1.84-3.95-109.16-39.61-213.12,18.35-247.68,41.03,44.11-74.66,109.4-178.24,187.54-281.18,15.26-12.22,128.23-96.76,279.49-55.24.51.14,1.03.15,1.51.03,1.07-.25,1.97-1.06,2.27-2.18.45-1.64-.52-3.34-2.15-3.79-127.42-34.99-228.17,17.81-268.2,44.3,66.68-86.17,142.06-170.7,221.24-236.12,15.29-10.73,74-44.39,184.26-22.61.44.09.88.07,1.29-.02,1.14-.27,2.09-1.18,2.33-2.41.33-1.67-.76-3.29-2.43-3.62Z"/>
        </g>
      </g>
      <g>
        <g>
          <path class="cls-29" d="M990.37,2589.72s5.85-160.54-59.65-208.76c-65.5-48.21-101.16,1.04-133.84-58.48-32.68-59.51-67.57-105.61-123.04-120.24-55.46-14.63-94.81,5.81-165.53-25.43-70.72-31.24-137.84-28.13-166,16.41-28.16,44.54,24.6,122.92,74.93,123.42,50.33.49,36.56,74.42,104.8,115.79,68.25,41.37,100.66.99,141.63,48.57,40.97,47.58.45,227.45,326.7,108.73Z"/>
          <path class="cls-31" d="M369.62,2261.86c49.32-26.37,87.12-29.93,110.73-28.03-39.12-14.52-77.52-24.01-113.81-26.29-1.22-.08-2.15-1.13-2.07-2.35.08-1.22,1.15-2.14,2.35-2.07,43.31,2.72,89.54,15.56,136.43,34.97,2.96.95,4.68,1.72,5.03,1.89.3.14.54.34.74.57,34.18,14.53,68.64,32.45,102.54,52.42-7.63-15.93-23.63-58.48,5.21-88.62.84-.88,2.24-.91,3.13-.07.88.84.92,2.25.07,3.13-33.58,35.1-1.62,89.1-1.3,89.64.03.05.03.1.05.15,34.26,20.53,67.85,43.05,99.88,66.15.85.34,1.32.54,1.38.57.58.26.98.74,1.18,1.29,38.42,27.81,74.53,56.39,106.75,83.28-8-16.96-22.62-55.02-15.35-94.57.22-1.2,1.37-1.99,2.58-1.77,1.2.22,1.99,1.37,1.77,2.58-9.43,51.3,19.26,100.23,19.55,100.72.06.1.07.2.11.31,30.08,25.36,56.45,48.94,77.8,68.63.49.2.86.57,1.1,1.01,35.14,32.46,56.33,54.09,57.18,54.96.85.88.83,2.28-.05,3.13-.39.38-.89.59-1.39.62-.62.04-1.26-.18-1.74-.67-.66-.68-13.82-14.12-36.37-35.5-.07.01-.12.07-.19.07-.27.02-.54-.01-.81-.1-1.21-.38-121.88-37.3-198.57,13.42-1.01.68-2.39.39-3.07-.62-.68-1.02-.4-2.39.62-3.07,67.84-44.88,168.66-22.88,195.51-15.85-4.54-4.27-9.41-8.81-14.57-13.57-8.99-3.26-107.75-36.95-183.71,20.1-.35.27-.76.41-1.18.44-.72.05-1.45-.26-1.92-.88-.73-.98-.54-2.36.44-3.1,66.64-50.04,150.14-32.03,178.61-23.7-45.91-42.02-112.41-99.45-187.61-153.75-13.03-5.19-108.28-39.57-203.42,20.6-.32.2-.68.31-1.03.34-.78.05-1.57-.31-2.02-1.02-.66-1.03-.35-2.4.68-3.05,80.14-50.7,160.36-35.55,193.38-25.74-63.82-45.19-133.26-87.43-201.31-115.76-12.74-4.16-60.09-14.98-131.22,23.06-.28.15-.59.23-.89.26-.84.06-1.68-.37-2.1-1.16-.58-1.08-.17-2.42.91-2.99Z"/>
        </g>
        <g>
          <path class="cls-31" d="M1095.55,2571.29s137.03-83.85,141.01-165.09c3.98-81.24-56.77-83.73-25.23-143.86,31.54-60.13,50.67-114.68,32.21-168.99-18.46-54.31-57.24-75.8-70.29-152.01-13.05-76.21-52.74-130.43-105.42-129.28-52.69,1.15-88.85,88.44-61.44,130.66,27.4,42.22-41.81,71.59-38.57,151.33,3.24,79.74,54.81,84.44,37.79,144.88-17.02,60.44-189.3,126.08,89.95,332.36Z"/>
          <path class="cls-29" d="M1025.72,1872.76c49.24,26.53,73.09,56.07,84.55,76.79-9.52-40.63-22.83-77.87-40.99-109.38-.61-1.06-.25-2.41.81-3.02,1.06-.61,2.42-.22,3.02.81,21.67,37.6,36.52,83.22,46.25,133.03.84,3,1.15,4.85,1.21,5.24.05.32.01.63-.07.93,6.78,36.51,10.9,75.14,12.98,114.43,9.06-15.16,35.68-52.02,76.73-44.64,1.2.21,2,1.36,1.79,2.57-.21,1.2-1.37,2-2.57,1.79-47.81-8.59-75.16,47.89-75.43,48.46-.02.05-.07.08-.1.13,1.83,39.9,1.62,80.34.07,119.8.19.9.28,1.4.29,1.47.1.62-.07,1.22-.42,1.69-1.95,47.39-5.8,93.28-10.4,134.99,9.71-16.04,33.35-49.26,70.33-65.06,1.12-.48,2.42.04,2.9,1.17.48,1.12-.04,2.42-1.17,2.9-47.97,20.49-72.89,71.44-73.13,71.96-.05.1-.13.17-.2.26-4.51,39.09-9.58,74.09-14.2,102.77.1.52,0,1.03-.24,1.47-7.63,47.23-13.95,76.84-14.2,78.03-.26,1.19-1.44,1.95-2.63,1.69-.53-.12-.98-.42-1.28-.82-.38-.5-.55-1.15-.41-1.82.2-.93,4.12-19.32,9.48-49.94-.05-.05-.13-.06-.17-.12-.16-.21-.29-.46-.37-.73-.35-1.22-36.27-122.19-120.93-158.07-1.13-.47-1.65-1.77-1.18-2.9.48-1.13,1.77-1.65,2.9-1.18,74.89,31.74,112.28,127.91,121.27,154.18,1.05-6.14,2.14-12.71,3.26-19.64-2.25-9.29-28.76-110.22-118.28-142-.42-.15-.77-.41-1.02-.74-.44-.57-.59-1.35-.33-2.08.41-1.15,1.67-1.75,2.82-1.35,78.54,27.88,109.67,107.42,118.46,135.76,9.64-61.49,20.75-148.65,24.45-241.32-2.88-13.73-26.87-112.11-129.59-158.15-.35-.16-.64-.39-.85-.67-.48-.62-.61-1.48-.26-2.25.5-1.12,1.81-1.62,2.92-1.12,86.54,38.77,118.25,114,128.33,146.94,2.39-78.16-.78-159.38-14.78-231.75-3.57-12.92-20.73-58.36-91.74-96.62-.28-.15-.52-.36-.71-.6-.51-.67-.62-1.6-.19-2.39.58-1.08,1.92-1.48,3-.9Z"/>
        </g>
        <g>
          <path class="cls-13" d="M1003.2,2600.53s99.69-184.47,50.93-278.77c-48.76-94.3-118.96-57.29-122.79-145.83-3.83-88.54-17.99-162.66-74.43-211.85-56.44-49.19-114.3-48.03-178.98-125.49-64.69-77.46-145.02-112.63-203.74-76.8-58.71,35.84-42.3,158.06,16.31,187.75,58.61,29.69-.26,108.22,55.67,196.09,55.93,87.88,117.21,59.37,137.63,138.74,20.42,79.37-131,266.4,319.4,316.15Z"/>
          <path class="cls-29" d="M466.45,1857.91c72.97-2.33,119.25,15.36,145.77,31.23-37.38-39.61-76.81-72.93-117.97-96.58-1.38-.79-1.86-2.56-1.06-3.95.8-1.39,2.59-1.84,3.95-1.06,49.11,28.23,95.78,69.99,139.41,119.82,2.92,2.83,4.48,4.72,4.8,5.12.27.33.43.71.53,1.09,31.59,36.76,61.56,77.66,89.67,120.64.29-23.05,6.16-82.1,57.34-100.68,1.49-.55,3.14.23,3.7,1.73.55,1.5-.23,3.16-1.73,3.7-59.6,21.65-53.43,103.32-53.36,104.14,0,.07-.02.14-.02.21,28.21,43.83,54.49,89.61,78.62,135.16.8.89,1.23,1.4,1.29,1.47.53.64.72,1.43.63,2.19,28.87,54.76,54.6,109.08,76.76,159.18.45-24.47,5.35-77.46,36.73-119.54.95-1.27,2.75-1.54,4.04-.59,1.28.95,1.54,2.76.59,4.04-40.7,54.57-35.43,128.42-35.37,129.16.01.15-.04.28-.05.42,20.54,47.07,37.76,89.91,51.35,125.3.46.52.68,1.17.7,1.82,22.34,58.31,34.63,95.87,35.12,97.38.49,1.52-.34,3.15-1.86,3.64-.68.22-1.38.17-1.99-.08-.76-.31-1.38-.94-1.65-1.78-.38-1.18-8.01-24.51-22.03-62.58-.09-.03-.18,0-.27-.03-.32-.13-.63-.33-.89-.58-1.2-1.15-121.04-114.13-240.12-99.13-1.58.21-3.02-.92-3.23-2.5-.2-1.58.92-3.03,2.5-3.23,105.33-13.28,210.58,70.76,237.94,94.52-2.84-7.62-5.92-15.74-9.2-24.31-8.63-9.01-104.72-105.55-226.59-82.73-.57.11-1.13.04-1.63-.17-.87-.36-1.55-1.14-1.74-2.14-.29-1.57.74-3.07,2.3-3.37,106.92-20.02,194.2,49.35,222.7,75.56-29.43-75.72-74.02-181.38-130.61-288.4-12.25-13.61-103.82-108.92-249.94-93.54-.5.05-.97-.02-1.41-.2-.95-.39-1.66-1.27-1.77-2.36-.17-1.59.98-3.01,2.57-3.18,123.1-12.97,208.19,51.14,241.17,81.71-48.54-89.78-105.37-179.37-168.61-251.88-12.5-12.24-61.65-52.27-166.88-48.91-.42.02-.82-.06-1.19-.22-1.02-.42-1.75-1.4-1.79-2.58-.05-1.59,1.2-2.93,2.79-2.98Z"/>
        </g>
      </g>
      <ellipse class="cls-19" cx="2315.91" cy="2618.94" rx="1724.51" ry="141.06"/>
      <g>
        <g>
          <g>
            <path class="cls-2" d="M1878.51,2556.11l-4.7,40.41s-188.78,53.43-405.88-4.67c-3.75-20.75-1.28-35.74-1.28-35.74h411.86Z"/>
            <path class="cls-12" d="M1466.65,2556.11c107.41,48.8,423.09,22.27,411.86,0-11.23-22.27-163.35-44.41-163.35-44.41l1.6-271.19.26-44.66-92.38,6.49-2.6,309.36s-166.75,24.24-155.4,44.41Z"/>
            <path class="cls-27" d="M1622.05,2511.7s35.92-230.91,40.28-252.83c3.3-16.64,37.91-18.45,54.44-18.35l.26-44.66-92.38,6.49-2.6,309.36Z"/>
          </g>
          <path class="cls-2" d="M1632.1,2057.14h84.26c11.6,0,21.01,9.41,21.01,21.01v134.61h-126.28v-134.61c0-11.6,9.41-21.01,21.01-21.01Z" transform="translate(3348.46 4269.9) rotate(180)"/>
          <path class="cls-2" d="M1876.42,2065.43c229.91-70.47,336.34-233.99,315.44-586.33-20.9-352.34-384.74-358.16-384.74-358.16,0,0-480.73-45.3-627.04,145.97-146.31,191.27,8.36,734.88,254.99,780.18,246.63,45.3,441.34,18.34,441.34,18.34Z"/>
          <path class="cls-12" d="M1936.01,1339.47s252.83,312.19,148.46,505.43c-104.36,193.25-639.93,159.35-757.68,47.31-117.75-112.04-227.82-408.33-2.56-532.82,225.26-124.49,509.38-196.7,611.77-19.92Z"/>
        </g>
        <g>
          <g>
            <path d="M1741.46,1080.98c-42.96-5.37-86.36,1.76-129.59,3.96-43.24,2.2-89.01-1.29-125.18-25.08-36.18-23.79-58.41-73.19-39.56-112.19,15.08-31.21,53.46-54.02,49.68-88.49-3.27-29.82-38.6-51.28-34.93-81.05,3.15-25.55,32.62-38.19,46.65-59.77,18.57-28.55,7.1-66.28,10.88-100.14,6.51-58.38,67.68-104.59,125.57-94.87,79.64-30.06,175.62,19.77,192.56,103.23,4.89,24.1,3.88,49.77,14.09,72.14,18.44,40.39,71.9,70.08,61.19,113.17-7.39,29.74-44.71,48.35-43.5,78.98.75,19.06,16.54,33.54,25.94,50.14,19.71,34.78,9.82,80.89-15.68,111.67-25.5,30.78-98.48,33.26-138.13,28.3Z"/>
            <path d="M1631.06,778.32c-6.76-19.32-7.33-19.8-10.47-39.71-3.15-20-1.11-38.63,10.51-55.22,9.49-13.55,28.53-15.04,44.11-30.76,22.14-22.35,43.11-100.34-8.5-102.71-26.62-1.22-57.9,10.5-76.84,31.18-18.94,20.68-25.85,55.29-19.29,82.56,5.04,20.95-.76,48.58,9.87,67.32,11.45,5.58,32.81,22.22,50.61,47.34Z"/>
            <path d="M1836.85,741.46c7.3-42.93,20.68-103.57-9.42-158.1-30.15-54.62-135.01-80.57-159.62-27.18-24.6,53.37,103.14,71.53,134.65,79.57,27.06,6.9,29.55,51.01,32.65,80.96l1.74,24.75Z"/>
            <path class="cls-25" d="M1572.89,699.02c24.94-33.1,64.88-48.48,80.71-86.66,7.95-17.89,10.25-38.34,6.67-58,7.78,27.17,2.58,60.62-17.73,86.24-18.13,23.15-46.4,40.12-62.95,63.31-22.79,31.26-20.43,75.13-3.59,109.64,8.32,17.41,22.6,36.58,20.6,57.35-2.56,28.05-33,39.82-40.73,62.76-5.07,14.8-1.02,30.81,8.02,41.33-7.22-7.02-11.56-16.25-12.56-26.97-3.32-35.84,37.1-48.75,38.43-77.65,1.1-18.17-12.89-36.67-21.21-53.1-19.02-37.8-20.67-84.98,4.33-118.23h0Z"/>
            <path class="cls-25" d="M1855.39,749.94c14.97,14.44,22.66,37.2,18.29,58.78-5.94,31.08-36.8,50.47-42.03,81.63-4.51,24.63,15.09,34.31,23.14,52.88,4.09,10.34,4.37,23.59-4.88,29.61,7.33-7.02,5.81-18.9.97-27.78-6.97-12.77-22.52-22.01-26.61-39.02-4.09-16.36,2.26-33.03,11.07-47.26,11.83-18.22,26.43-32.37,31.69-51.62,5.03-18.95.49-40.43-11.63-57.23Z"/>
          </g>
          <g>
            <polygon class="cls-24" points="1998.75 1193.4 2016.46 1330.13 1904.31 1330.13 1883.63 1232.39 1998.75 1193.4"/>
            <path class="cls-21" d="M1896.74,918.16s51.26,28.76,72.33,100.69c21.07,71.93,56.81,171.03,56.81,171.03,0,0-140.77,59.6-139.87,56.52.9-3.08-42.12-106.02-42.12-117.18s52.85-211.06,52.85-211.06Z"/>
            <g>
              <g>
                <path class="cls-30" d="M1849.18,1907.49c47.89-12.9-56.14-403.38-56.14-403.38l-304.74-6.18s-110.6,182.11-125.57,230.38c-25.62,82.64-9.59,154.54,54.07,179.67,154.69,61.05,432.37-.5,432.37-.5Z"/>
                <path class="cls-30" d="M1631.17,1920.03l273.54,1.31s166.09-211.93,114.73-226.78c-64.41-18.62-254.11-28.41-254.11-28.41,0,0-339.69,31.55-134.16,253.88Z"/>
                <g>
                  <path class="cls-24" d="M1977.29,1691.1c52.35-1.57,78.47,36.9,81.96,79.24,0,0,13.03,115.25-3.32,236.43-14.77,109.47-35.57,315.32-46.26,462.37l-65.15-2.54c-3.33-45.56-40.9-365.24-49.57-447-20.47-192.9,4.9-326.19,82.33-328.51Z"/>
                  <path class="cls-24" d="M1977.29,1691.1c-15.53,0-116.6,30.53-116.6,30.53l-31.44,200.56h74.02s89.55-231.09,74.02-231.09Z"/>
                  <path class="cls-26" d="M1904.18,1802.87c12.8-68.14,0-86.8-24.77-86.8-11.22,3.29-18.71,5.56-18.71,5.56l-31.44,200.56h46.52s15.6-51.17,28.4-119.32Z"/>
                  <g>
                    <path class="cls-30" d="M1918.74,2471.92c.42-31.2,23.05-37.69,23.05-37.69l74.44,25.62s122.64,221.38,104.16,226.25h-132.49c-38.17.74-28.28-53.2-43.05-81.4l.7,81.4h-16.61s-7.75-113.38-7.75-113.38c-1.26-3.98-2.14-7.38-2.48-9.91-1.83-13.38-.52-49.2.04-90.89Z"/>
                    <path class="cls-24" d="M2004.09,2428.06c6.5,15.98,34.34,77.72,41.51,97.34,5.26,14.42,16.82,45.82,24.98,68.02,4.51,12.25-5.6,24.88-20.27,25.33l-56.73,1.74-58.92-172.75c-.71-5.09-1.14-31.3,11.37-37.84,12.51-6.54,51.55,2.19,58.06,18.16Z"/>
                  </g>
                </g>
                <g>
                  <path class="cls-24" d="M1821.51,1691.11c52.35-1.57,86.59,26.71,76.41,92.17-7.29,46.92-26.48,102.3-42.83,223.49-14.77,109.47-35.57,315.32-46.26,462.37l-65.15-2.54c-3.33-45.56-40.9-365.24-49.57-447-20.47-192.9,49.96-326.17,127.4-328.49Z"/>
                  <g>
                    <path class="cls-30" d="M1717.89,2471.92c.42-31.2,23.05-37.69,23.05-37.69l74.44,25.62s122.64,221.38,104.16,226.25h-132.49c-38.17.74-28.28-53.2-43.05-81.4l.7,81.4h-16.61s-7.75-113.38-7.75-113.38c-1.26-3.98-2.14-7.38-2.48-9.91-1.83-13.38-.52-49.2.04-90.89Z"/>
                    <path class="cls-24" d="M1803.25,2428.06c6.5,15.98,34.34,77.72,41.5,97.34,5.26,14.42,16.82,45.82,24.98,68.02,4.51,12.25-5.6,24.88-20.27,25.33l-56.73,1.74-58.92-172.75c-.71-5.09-1.14-31.3,11.37-37.84,12.51-6.54,51.55,2.19,58.06,18.16Z"/>
                  </g>
                </g>
              </g>
              <path class="cls-16" d="M1899.72,1096.64c-6.91-23.52-48.92-184.08-48.92-184.08l-152.35-36.07-157.85,28.47s-52.84,18.64-57.72,42.62c-11.74,57.6-12.9,299.13,7.49,337.28,22.4,106.59-11.45,170.82-21.01,266.49,0,0,52.25,42.24,103.82,48.61,51.87,3.48,148.1,17.21,221.89,6.96-10.75-108.3-3.11-168.11,41.32-268.34,28.03-33.54,84.34-170.45,63.34-241.94Z"/>
              <path class="cls-9" d="M1795.05,1233.48c.17.79-2.14,1.98-6.48,3.45-1.09.37-2.3.75-3.64,1.16-1.34.39-2.8.75-4.38,1.14-3.16.76-6.76,1.65-10.79,2.36-2.02.36-4.13.74-6.33,1.14-2.2.38-4.51.67-6.9,1-4.77.71-9.9,1.18-15.31,1.69-10.82.86-22.77,1.28-35.31.97-12.54-.37-24.45-1.44-35.21-2.89-5.37-.8-10.46-1.55-15.18-2.52-2.36-.47-4.65-.88-6.83-1.38-2.17-.51-4.26-1.01-6.25-1.48-3.98-.92-7.52-2-10.62-2.94-1.55-.48-2.99-.92-4.3-1.38-1.31-.47-2.5-.92-3.56-1.35-4.25-1.71-6.48-3.01-6.26-3.8.94-3.34,39.89,4.86,88.57,6.01,48.65,1.49,88.04-4.58,88.78-1.2Z"/>
              <g>
                <path class="cls-24" d="M1617.41,881.8s-50.34,15.95-43.62,70.05c1.73,13.91,94.57,138.38,151.76,138.38,57.19,0,86.82-112.62,90.25-121.27,4.84-12.21,2.08-22.53-3.32-34.53-7.63-16.95-41.94-40.41-41.94-40.41l-153.13-12.22Z"/>
                <g>
                  <polygon class="cls-32" points="1634.11 882.68 1754.48 904.09 1755.54 853.48 1757.3 769.45 1757.37 766.59 1639.24 758.63 1639.12 761.5 1637.43 802.4 1634.11 882.68"/>
                  <path class="cls-26" d="M1637.43,802.4c15.18,20.72,33.8,39.28,61.62,50.19,25.49,10,45.26,13.15,56.48.89l1.76-84.04-118.18-7.95-1.69,40.91Z"/>
                </g>
              </g>
              <g>
                <path class="cls-21" d="M1423.96,930.48s30.47,214.42,35.88,272.61c5.74,61.66,20.99,162.12,9.51,229.3-9.39,54.94-91.62,223.57-91.62,223.57,0,0,156.39,32.05,236.21,13.32-49.02-171.34,10.32-567.01,20.17-792.79l-210.15,53.98Z"/>
                <path class="cls-21" d="M1896.74,918.16l-142.03-34.35v8.95c45.38,249.16,49.21,585.95,10.6,776.52,0,0,93.02,17.83,169.57,10.78,0,0-101.3-146.49-94.01-190.2,7.28-43.71,43.84-195.45,63.22-241.38,22.89-54.25-7.35-330.33-7.35-330.33Z"/>
              </g>
            </g>
            <g>
              <g>
                <path class="cls-12" d="M2135.17,1330.13h-374.15c-12.31,0-22.94,8.61-25.49,20.64l-70.43,330.71c-3.46,16.23,8.9,31.51,25.49,31.51h380.36c12.47,0,23.2-8.85,25.59-21.1l64.21-330.7c3.13-16.1-9.19-31.06-25.59-31.06Z"/>
                <path class="cls-27" d="M2156.72,1330.13h-374.16c-12.29,0-22.92,8.61-25.48,20.64l-70.44,330.71c-3.45,16.23,8.92,31.51,25.49,31.51h380.37c12.48,0,23.2-8.85,25.58-21.1l64.21-330.7c3.12-16.1-9.19-31.06-25.58-31.06Z"/>
                <path class="cls-12" d="M1675.17,1684.76h-255.65c-7.78,0-14.1,6.33-14.1,14.11h0c0,7.8,6.32,14.11,14.1,14.11h260.6s-4.95-28.23-4.95-28.23Z"/>
              </g>
              <path class="cls-16" d="M1925.05,1512.93c0,22.53,18.25,40.78,40.77,40.78,22.51,0,40.76-18.25,40.76-40.78,0-22.53-18.24-40.79-40.76-40.79-22.51,0-40.77,18.27-40.77,40.79Z"/>
            </g>
            <g>
              <path class="cls-24" d="M1545.79,1624.77s29.53,35.14,29.41,46.8l-3.77,4.74-3.63,4.56s-25.56-33.86-42.51-37.9c-16.97-4.03-25.63,9.24-38.24.76-12.59-8.46-53.15-32.73-53.15-32.73h0c-.02-.3-.42-6.53,1.2-16.4,2.42-14.7,9.33-37.48,28.74-60.62l2.3.66,105.01,23.06s13.18-.11,18.95,6.88c5.77,6.98,38.95,33.08,38.95,33.08l-38.65,53.98s-15.28-13.72-21.91-18.07c-6.62-4.33-22.71-8.81-22.71-8.81Z"/>
              <path class="cls-32" d="M1629.05,1597.67s46.37,31.8,45.21,37.82c-1.16,6.02-56.69-21.79-56.69-21.79,0,0,36.81,35.22,29.37,44.39-7.44,9.17-40-29.55-40-29.55,0,0,24.08,45.18,19.37,51.16s-35.91-28.05-35.91-28.05l38.65-53.98Z"/>
              <path class="cls-10" d="M1613.29,1612.15c-8.24-12.91-28.53-19.62-28.73-19.68l1.33-4.09c.89.29,21.95,7.24,31.03,21.46l-3.63,2.32Z"/>
              <path class="cls-10" d="M1601.34,1631.3c-5.52-14-30.59-21.54-30.84-21.62l1.22-4.13c1.11.33,27.34,8.21,33.63,24.17l-4,1.58Z"/>
            </g>
            <path class="cls-24" d="M1274.56,1182.07s-89.97,170.23-89.97,204.3,249.31,224.63,249.31,224.63l32.23-76.35-143.51-169.8,67.06-114.19-115.12-68.59Z"/>
            <path class="cls-21" d="M1423.96,930.48c-52.4,25.12-151.09,169.29-177.87,251.59,24.59,34.28,107.05,95.12,159.32,93.75,0,0,94.73-130.97,103.62-199.34,0,0-64.9-155.67-85.06-146Z"/>
          </g>
          <g>
            <path class="cls-24" d="M1728.89,1015.84c24.27-17.3,29.48-93.38,29.48-93.38l.92-95.7-132.3-52.79s6.49,125.64,10.91,148.69c0,0,26,139.49,90.99,93.17Z"/>
            <path class="cls-11" d="M1759.71,827.4c-49.89-5.8-111.95-35.77-121-38.55-9.05-2.78,59.17,97.36,120.09,118.85l.91-80.3Z"/>
            <g>
              <g>
                <g>
                  <g>
                    <path class="cls-24" d="M1766.44,556.54s110.25,221.17,18.51,277.19c-61.49,37.55-167.31-56.24-167.31-56.24l16.09-50.46c-5.48-8.95-101.77-180.04,132.7-170.49Z"/>
                    <path d="M1766.44,553.31c2.07,5.33,3.68,10.51,4.96,15.56.67,1.52,1.15,3.14,1.58,4.75.89,3.39,1.66,6.83,2.24,10.29,1.13,6.75,1.6,13.63,1.6,20.46,0,7.01-.64,14.03-1.94,20.92-1.22,6.47-2.76,13.63-5.78,19.54-.35.68-1.52.46-1.37-.37.57-3.25,1.58-6.47,2.26-9.71.68-3.27,1.29-6.56,1.77-9.87.56-3.87.92-7.75,1.18-11.65-16.78,82.26-143.15,123.84-143.15,123.84,0,0-2.58-27.08-17.19-37.17-15.33-10.59-42.66-166.38,153.85-146.6Z"/>
                  </g>
                  <path d="M1776.8,610.46s27.15,44.57,33.5,64.28c6.18,19.19,8.76-38.28-4.29-67.1-13.05-28.82-29.08-46.25-37.61-46.25s8.4,49.07,8.4,49.07Z"/>
                  <g>
                    <g>
                      <path class="cls-5" d="M1777.4,776.85c-1.22,0-2.29-.87-2.51-2.11-.24-1.39.69-2.7,2.07-2.94.06-.01,6.79-1.26,18.72-7.32,2.08-1.06,2.46-2.14,2.57-2.86.74-4.92-8.6-13.96-14.18-19.36-2.55-2.47-4.75-4.6-6.02-6.22-5.7-7.3-5.79-18.83-5.79-19.32,0-1.41,1.13-2.55,2.54-2.55h0c1.4,0,2.54,1.13,2.55,2.54h0c0,.1.1,10.29,4.71,16.2,1.05,1.35,3.13,3.36,5.54,5.7,7.49,7.25,16.81,16.27,15.67,23.78-.29,1.95-1.45,4.68-5.3,6.64-12.72,6.46-19.86,7.75-20.16,7.8-.15.03-.29.04-.44.04Z"/>
                      <path class="cls-20" d="M1746.92,726.16c.6,3.26-.98,6.27-3.52,6.73-2.54.46-5.09-1.81-5.69-5.07-.6-3.26.98-6.27,3.52-6.73,2.54-.46,5.09,1.81,5.69,5.07Z"/>
                      <path class="cls-20" d="M1793.71,721.83c.11,3.31-1.89,6.06-4.48,6.15-2.58.08-4.76-2.53-4.87-5.84-.11-3.31,1.89-6.06,4.48-6.15,2.58-.08,4.77,2.53,4.88,5.84Z"/>
                      <path class="cls-20" d="M1728.89,708.94c-.9,0-1.79-.36-2.44-1.08-1.23-1.35-1.14-3.44.21-4.68.47-.43,11.67-10.46,25.75-4.61,1.69.7,2.49,2.64,1.79,4.33-.7,1.69-2.64,2.49-4.33,1.79-10.23-4.25-18.66,3.3-18.74,3.38-.64.58-1.44.87-2.23.87Z"/>
                      <path class="cls-20" d="M1777.86,705.23c-.93,0-1.86-.39-2.51-1.16-1.19-1.39-1.03-3.48.36-4.67,4.14-3.55,14.66-8.17,24.82-.28,1.44,1.12,1.7,3.2.58,4.64-1.12,1.44-3.2,1.7-4.64.58-8.47-6.59-16.13-.19-16.45.08-.62.53-1.39.8-2.15.8Z"/>
                    </g>
                    <path class="cls-14" d="M1739.87,752.46c.02,6.14-10.79,11.15-24.14,11.19-13.35.04-24.19-4.9-24.21-11.04-.02-6.14,10.79-11.15,24.14-11.19,13.35-.04,24.19,4.9,24.21,11.04Z"/>
                  </g>
                </g>
                <g>
                  <path class="cls-7" d="M1779.6,788.54s-2.75,11.18-10.11,17.88c-2.71,2.48-5.95,4.37-9.95,4.92-8.21,1.16-11.23-5.55-12.31-11.92-.9-5.23-.41-10.27-.41-10.27,0,0,15.03,5.58,32.78-.6Z"/>
                  <path class="cls-1" d="M1769.49,806.42c-2.71,2.48-5.95,4.37-9.95,4.92-8.21,1.16-11.23-5.55-12.31-11.92,8.26-2.51,18.36-.42,22.26,7Z"/>
                </g>
                <g>
                  <path class="cls-23" d="M1738.51,758.34c-7.02,0-13.68-2.9-18.88-8.23-5.41-5.55-8.57-13.09-8.89-21.22-.32-8.13,2.22-15.9,7.17-21.86,4.98-6,11.79-9.47,19.18-9.76,15.22-.61,28.12,12.59,28.79,29.43h0c.67,16.83-11.15,31.02-26.35,31.63-.34.01-.68.02-1.02.02ZM1738.1,699.5c-.3,0-.61,0-.92.02-6.74.27-12.96,3.45-17.53,8.95-4.59,5.54-6.96,12.76-6.66,20.33.3,7.57,3.23,14.58,8.25,19.73,4.99,5.12,11.44,7.79,18.19,7.52,13.96-.56,24.81-13.69,24.18-29.28h0c-.61-15.24-11.97-27.28-25.52-27.28Z"/>
                  <path class="cls-23" d="M1808.52,755.54c-14.76,0-27.13-12.99-27.78-29.45-.67-16.83,11.15-31.02,26.35-31.63,15.21-.62,28.12,12.59,28.79,29.43h0c.67,16.83-11.15,31.02-26.35,31.63-.34.01-.67.02-1.01.02ZM1808.1,696.71c-.3,0-.61,0-.92.02-13.96.56-24.81,13.69-24.18,29.28.62,15.59,12.48,27.82,26.44,27.26,13.96-.56,24.81-13.69,24.18-29.28h0c-.61-15.25-11.97-27.28-25.52-27.28Z"/>
                  <path class="cls-23" d="M1763.68,724.49c-.4,0-.78-.21-.99-.58-.31-.54-.11-1.23.43-1.54.55-.31,13.49-7.47,19.64-.38.41.47.36,1.19-.11,1.59-.47.41-1.19.36-1.59-.11-4.95-5.7-16.7.8-16.82.87-.17.1-.36.15-.55.15Z"/>
                  <path class="cls-23" d="M1642.24,733.12c-.56,0-1.04-.41-1.12-.98-.09-.62.35-1.19.96-1.27l70.02-9.68c.62-.09,1.19.35,1.27.96s-.35,1.19-.96,1.27l-70.02,9.68c-.05,0-.1.01-.16.01Z"/>
                </g>
              </g>
              <g>
                <path class="cls-24" d="M1589.57,765.67c13.39,15.91,34.76,19.95,47.73,9.04,12.97-10.92,12.62-32.66-.78-48.57-13.39-15.91-34.76-19.95-47.73-9.04-12.97,10.92-12.62,32.66.78,48.57Z"/>
                <path class="cls-11" d="M1627.81,756.51c-.44,0-.87-.17-1.2-.51l-27.96-29.23c-.63-.66-.61-1.71.05-2.34.66-.63,1.71-.61,2.34.05l27.96,29.23c.63.66.61,1.71-.05,2.34-.32.31-.73.46-1.14.46Z"/>
                <path class="cls-11" d="M1599.86,751.11c-.54,0-1.06-.26-1.38-.74-.5-.76-.29-1.79.47-2.29l13.98-9.21c.76-.5,1.79-.29,2.29.47.5.76.29,1.79-.47,2.29l-13.98,9.21c-.28.19-.6.27-.91.27Z"/>
              </g>
              <path class="cls-25" d="M1757.94,576.48s-23.65,81.37-93.89,98.06c0,0,22.63-14.54,35.15-61.13,0,0-53.06,36.05-110.95,22.19,0,0,113.41-18.58,141.23-85.34,0,0-.42,33.27-8.07,59.69,0,0,23.32-16.08,36.54-33.47Z"/>
            </g>
          </g>
        </g>
      </g>
      <g>
        <g>
          <path class="cls-18" d="M4114.96,792.61c38.39,123.11,3.45,232.33-142.55,232.86-96.5.35-166.33-56.12-200.8-120.03l218.16-2.23c13.06-99.65-70.18-177.06-151.41-176.85h-.09s-218.61.79-218.61.79c31.23-94.88,87.39-166.69,182.34-173.95,154.75-11.9,274.54,116.23,312.96,239.42Z"/>
          <path class="cls-12" d="M3838.36,726.35c81.23-.21,164.47,77.2,151.41,176.85l-218.16,2.23c-38.89-72.02-32.8-153.46,30.47-173.48,11.82-3.74,23.9-5.56,36.19-5.6h.09Z"/>
          <path class="cls-27" d="M3771.61,905.43c34.47,63.91,104.3,120.38,200.8,120.03l-387.38,1.4c-.11-3.38-.13-6.76-.24-10.14-2.2-94.52,5.7-201.87,34.87-289.59l218.61-.79c-12.29.04-24.37,1.86-36.19,5.6-63.27,20.02-69.36,101.46-30.47,173.48Z"/>
          <path class="cls-28" d="M2204.13,2576.4h1326.81c87.65-372.22,71.09-938.08,58.47-1385.68-1.59-56.74-3.13-111.56-4.38-163.86-.1-3.37-.13-6.75-.23-10.13-2.2-94.53,5.71-201.88,34.87-289.6,31.24-94.88,87.39-166.68,182.34-173.95l-1276.62,4.6c-9.1.03-18.07.55-26.58,1.94-168.76,27.4-205.45,270.9-201.03,461.64,1.15,49.2,2.57,106.43,4.06,169.35,9.65,406.4-3.53,1192.82-97.71,1385.68Z"/>
        </g>
        <g>
          <path class="cls-27" d="M2421.68,1207.41c-8.96.34-15.3,7.88-14.1,16.74l2.81,17.07c1.2,8.87,9.54,15.66,18.53,15.1l954.58-21.69c8.99-.56,17.1-8.64,18.03-17.94l1.99-19.93c.93-9.31-5.64-16.64-14.6-16.3l-967.23,26.95Z"/>
          <path class="cls-27" d="M2421.68,1348.2c-8.96.34-15.3,7.88-14.1,16.74l2.81,17.07c1.2,8.87,9.54,15.66,18.53,15.1l954.58-21.69c8.99-.56,17.1-8.64,18.03-17.94l1.99-19.93c.93-9.31-5.64-16.64-14.6-16.3l-967.23,26.95Z"/>
          <path class="cls-27" d="M2421.68,1488.98c-8.96.34-15.3,7.88-14.1,16.74l2.81,17.07c1.2,8.87,9.54,15.66,18.53,15.1l954.58-21.69c8.99-.56,17.1-8.64,18.03-17.94l1.99-19.93c.93-9.31-5.64-16.64-14.6-16.3l-967.23,26.95Z"/>
          <path class="cls-27" d="M2421.68,1629.77c-8.96.34-15.3,7.88-14.1,16.74l2.81,17.07c1.2,8.87,9.54,15.66,18.53,15.1l954.58-21.69c8.99-.56,17.1-8.64,18.03-17.94l1.99-19.93c.93-9.31-5.64-16.64-14.6-16.3l-967.23,26.95Z"/>
          <path class="cls-27" d="M2421.68,1770.56c-8.96.34-15.3,7.88-14.1,16.74l2.81,17.07c1.2,8.87,9.54,15.66,18.53,15.1l954.58-21.69c8.99-.56,17.1-8.64,18.03-17.94l1.99-19.93c.93-9.31-5.64-16.64-14.6-16.3l-967.23,26.95Z"/>
          <path class="cls-27" d="M2421.68,1911.34c-8.96.34-15.3,7.88-14.1,16.74l2.81,17.07c1.2,8.87,9.54,15.66,18.53,15.1l954.58-21.69c8.99-.56,17.1-8.64,18.03-17.94l1.99-19.93c.93-9.31-5.64-16.64-14.6-16.3l-967.23,26.95Z"/>
          <path class="cls-27" d="M2829.8,2036.09c-8.96.34-15.3,7.88-14.1,16.74l2.81,17.07c1.2,8.87,9.54,15.66,18.53,15.1l546.46-5.65c8.99-.56,17.1-8.64,18.03-17.94l1.99-19.93c.93-9.31-5.64-16.64-14.6-16.3l-559.12,10.91Z"/>
        </g>
      </g>
      <path class="cls-2" d="M2780.84,2220.16c-30.76,41.16-65.5,77.65-102.97,112.37.89-12.37,1.09-25.05-2.04-35.53-4.29-14.44-17.52-18.06-30.66-21.31-3.25-.79-6.34-1.73-9.41-2.69,3.46-5.52,4.31-12.25-.3-18.25-7.59-9.9-21-4.77-23.22,6.6-.41,2.12-.48,4.09-.26,5.94-2.12-.55-3.82-1.28-5.41-2.49,3.92-15.03,7.37-30.19,10.22-45.51.64-3.45-2-6.7-4.97-7.98-12.12-5.27-25.53.6-31.45,12.3-7,13.91-.32,30.87,7.53,42.85.55.83,1.13,1.66,1.73,2.48-5.15,18.56-11.16,36.87-18.02,54.87-1.23-.76-2.47-1.49-3.7-2.23-3.42-2.03-7.18-4.76-10.64-7.94,1.81-13.78,1.7-27.8-.46-41.88-.96-6.27-7.86-7.82-12.53-4.68-12.97,8.69-17.16,25.01-11.73,39.43,1.87,4.98,4.68,9.44,8.13,13.41-1.53,7.63-3.68,15.24-6.6,22.74-1.88,4.87,1.21,8.64,5.08,9.79-.93,16.64-3.38,34.08-11.41,47.83-6.57,11.25-21.24,22.11-34.51,13.84-8.41-5.24-12.03-16.53-15.14-25.38-7.66-21.82-14.94-44.65-19.53-67.37-2.17-10.74-3.64-21.85-2.42-32.82.75-6.8,1.64-17.06,7.28-7,2.77,4.94,2.68,13.64,3.44,19.16,1.35,9.83,16.54,7.37,15.19-2.45-1.57-11.53-2.22-36.41-16.68-40.42-11.98-3.31-19.7,7.43-22.48,17.39-10.01,35.9,7.47,77.67,18.39,111.41,8.72,26.92,27.07,58.08,60,40.94,30.97-16.13,33.1-60.59,33.79-91.01.05-1.89-.49-3.47-1.39-4.74.07-.26.16-.53.24-.8,1.68,1.05,3.38,2.08,5.1,3.12,2.37,1.25,4.65,2.63,6.9,4.08-2.3,5.62-4.69,11.22-7.16,16.8-1.4,3.16.15,7.03,2.78,9,14.3,10.67,31.85-4.03,27.51-20.35-1.01-3.77-2.75-6.92-4.97-9.64,6.8-17.5,12.81-35.25,18.03-53.24,5.8,3.45,12.47,4.96,19.71,2.86.48-.14.98-.32,1.47-.51,4.82,3.15,10.44,5.36,15.43,6.78,4.82,1.37,10.09,1.68,14.66,3.87,8.51,4.1,8,11.24,8.42,19.89.55,11.33-.29,23.02-.91,34.38-12.99,12.25-25.19,26.83-26.09,45.4-.83,16.93,7.31,32.6,23.22,39.16,4.79,1.97,9.64-1.71,10.35-6.44,3.48-22.97,6.04-46.02,7.42-69.21.05-.73.1-1.48.16-2.21,11.49-10.78,23.81-20.8,35.08-31.73,29.95-29.08,57.39-60.62,82.36-94.04,5.93-7.93-6.65-16.82-12.59-8.86ZM2594.17,2243.98c-1.58-5.95-1.05-17.67,5.88-19.2-1.48,7.49-3.1,14.95-4.87,22.37-.37-1.06-.73-2.11-1.01-3.17ZM2654.79,2412.35c-9.12-10.28-3.61-27.01,4.36-39.09-1.12,13.05-2.58,26.1-4.36,39.09Z"/>
      <g>
        <path class="cls-22" d="M1497.98,1929.71s-61.09,95.88-117.11,97.21c-56.01,1.34-141.23-44.44-141.23-44.44,0,0-51.42-127.76-16.54-177.75,0,0,34.98-17.11,71.56,13.11,6.28,5.22,12.66,11.78,18.94,20.22,8.87,11.89,18.84,18.66,29.4,22.22,39.97,13.56,87.41-18.33,105.15,12.44,10.37,17.89,21.63,31.33,30.9,40.78,10.96,10.89,18.94,16.22,18.94,16.22Z"/>
        <path class="cls-22" d="M880.97,2528.87c32.71-164.93,134.3-493.64,425.16-501.95,0,0,314.85,39,371.05,495.99,6.42,52.23-34.06,98.38-86.68,98.38,0,0-184.24,48.31-247.31,50.57-97.37,3.49-386.45-50.57-386.45-50.57-48.76,0-85.27-44.59-75.78-92.42Z"/>
        <path class="cls-8" d="M1353.57,2088.88s-70.24-27.16-143.61,16.9c-128.11,76.94-118.46,382.17,34.12,448.42,152.59,66.25,228.29-57.39,247.01-129.96,27.15-105.26,11.69-278.52-137.52-335.36Z"/>
        <path class="cls-4" d="M1199.64,2044.73s155.8,38.62,203.87,15.92c0,0,7.26-72.62-58.35-62.44-44.9,6.97-74.16-17.09-91.36-26.85-24.35-13.81-60.63,42.98-54.16,73.36Z"/>
        <path class="cls-8" d="M1335.23,1935.27c-9.97,8.33-40.56-117.43-40.56-117.43,6.28,5.22,12.66,11.78,18.94,20.22,8.87,11.89,18.84,18.66,29.4,22.22.1,3.67,1.89,66.88-7.77,74.99Z"/>
        <path class="cls-8" d="M1479.05,1913.49c-2.19,1.44-74.25,49.55-84.02,49.55s53.12-90.32,53.12-90.32c10.37,17.89,21.63,31.33,30.9,40.78Z"/>
      </g>
      <g>
        <path class="cls-3" d="M809.26,453.77h456.1c23.43,0,42.45,19.02,42.45,42.45v300.3c0,23.43-19.02,42.45-42.45,42.45h-456.1c-23.43,0-42.45-19.02-42.45-42.45v-300.3c0-23.43,19.02-42.45,42.45-42.45Z"/>
        <path class="cls-3" d="M1105.93,819.19l-57.14,113.74c-5.6,11.14-21.57,10.94-26.89-.33l-53.22-112.76,137.24-.66Z"/>
      </g>
      <g>
        <path class="cls-4" d="M4015.59,1545.19l-1.31-.48c6.54-23.67,10.64-48.38,11.24-74.05,3.92-168.07-129.15-307.49-297.22-311.4-125.01-2.91-234.06,70.03-283.4,176.73l-1.02-.37-7.84,21.24.31.12c-11.63,31.08-18.64,64.46-19.46,99.51-3.92,168.07,129.15,307.48,297.22,311.4,131.85,3.07,245.75-78.34,290.74-194.65l.34.13,10.4-28.17Z"/>
        <circle class="cls-8" cx="3731.61" cy="1435.39" r="304.39" transform="translate(77.99 3059.06) rotate(-45)"/>
        <circle class="cls-22" cx="3731.61" cy="1435.39" r="245.37" transform="translate(77.99 3059.06) rotate(-45)"/>
        <path class="cls-4" d="M3729.93,1210.13c135.48,3.16,242.75,115.54,239.59,251.02-.56,23.85-4.66,46.75-11.52,68.4,11.38-27.33,18.18-57.07,18.91-88.44,3.16-135.48-104.11-247.87-239.59-251.02-111.63-2.6-207.42,69.84-239.5,171.19,37.75-90.68,128-153.57,232.11-151.15Z"/>
      </g>
      <path class="cls-2" d="M2985.98,2426.91c-2.48-.81-4.6-2.45-6.15-4.81-2.66-4.03-2.36-8.88-2.2-11.48,2.7-43.94,25.05-86.31,59.8-113.34,5.44-4.23,12.05-8.63,19.87-9.18,6.09-.42,11.68,1.61,16.32,5.03,3.71-6.46,7.38-12.93,11-19.42,16.25-29.1,32.08-60.03,34.54-92.49l-130.51,136.55c-1.91,2.01-5.09,2.07-7.1.16-2-1.92-2.08-5.09-.16-7.1l139.41-145.86c1.4-1.46,3.54-1.94,5.41-1.23,1.89.72,3.16,2.49,3.23,4.51,1.44,39.65-17.03,76.26-36.07,110.35-4.1,7.33-8.25,14.66-12.46,21.96,2.32,3.21,4.07,6.77,5.12,10.3,2.24,7.49,2.26,15.16,1.52,22.52l26.46-20.42c3.61-2.79,14.6-11.22,24.52-5.72,4.55,2.55,7.32,7.34,7.99,13.47,18.9.97,37.08,12.71,45.89,29.46,5.72-7.53,13.37-14.34,21.7-16.16,5.45-1.18,10.68-.06,15.15,3.23,6.27,4.63,8.22,11.87,9.95,18.26,1,3.7,1.94,7.2,3.58,10.01,6.72,11.54,24.18,12.09,51.92,1.64,34.1-12.84,69.85-19.89,106.27-20.97,16.09-.49,26.64,4.59,29.71,14.28.84,2.64-.62,5.46-3.26,6.3-2.64.83-5.46-.62-6.3-3.26-2.24-7.04-14.63-7.45-19.85-7.29-35.31,1.04-69.97,7.88-103.03,20.33-12.3,4.63-49.73,18.73-64.13-5.99-2.3-3.96-3.47-8.27-4.59-12.44-1.49-5.5-2.77-10.25-6.22-12.81-2.16-1.6-4.4-2.07-7.05-1.5-7.55,1.64-15.92,11.29-20.5,19.56-.99,1.78-2.95,2.79-4.97,2.55-2.01-.24-3.7-1.66-4.25-3.62-4.98-17.64-22.39-30.79-40.58-31.6-4.64,23.76-25.06,43.21-49.1,46.5-1.47.21-2.96-.26-4.06-1.25-1.1-1-1.7-2.43-1.64-3.91.96-24.55,21.11-46.95,45.31-50.81-.33-2.31-1.19-4.31-2.84-5.23-2.73-1.58-7.28.11-13.48,4.91l-36.2,27.93c-1.63,1.26-3.86,1.41-5.63.34-1.77-1.05-2.72-3.08-2.39-5.11,1.57-9.72,3.35-20.74.49-30.34-.33-1.1-.75-2.19-1.25-3.27-20.62,35.29-42.49,70.12-65.24,103.88-4.28,6.35-12.45,13.18-20.25,13.14-1.3,0-2.54-.2-3.7-.58ZM3063.02,2298.76c-1.61-.53-3.3-.77-5.02-.64-5.11.35-9.94,3.62-14.4,7.09-32.5,25.29-53.42,64.92-55.94,106.04-.13,2.13-.16,4.25.56,5.33.49.75.9.88,1.52.88,3.19.01,8.75-4.06,11.89-8.71,23.39-34.71,45.84-70.54,66.96-106.87-1.7-1.38-3.57-2.47-5.55-3.11ZM3135.45,2331.66c-16.35,3.75-29.96,17.82-33.42,34.2,15.82-4.73,29.15-18.25,33.42-34.2Z"/>
    </g>
  </g>
  <path class="cls-4" d="M3835.89,1300.42c.16,1.22-.86,1.93-1.47,2.86-1.71,2.6-16.32,21.34-17.67,21.7-14.26-.68-28.86-1.02-43.2-.59-1.81.05-4.06.15-5.83.34-.69.07-1.13-.47-1.78.68,5.07,5.6,9.51,12.64,12.3,19.67,1.84,4.63,2.4,9.73,4.68,13.98h52.97l-18.32,23.99h-33.65c.28,26.2-10.36,51.45-33.97,64.31-17.05,9.3-34.03,10.76-52.99,12.32-.98.08-1.94-.54-1.66.98l110.6,139.6-48.01-.3-1.64-1.02-110.93-139.6v-23.65c28.62-1.14,65.59,6.04,86.64-18.31,8.08-9.34,12.28-22.03,12.64-34.33h-117.27l18.32-23.99h94.95c-2.46-11.01-11.47-20.93-21.31-26.33-20.37-11.18-64.63-9.17-88.34-8.35-1.28.04-2.38.55-3.62.7-.2-1.1.52-1.79,1.05-2.61,3.24-4.99,10.87-14.67,14.95-19.02,1.16-1.24,2.47-3.02,4.31-3.02h188.23Z"/>
  <path class="cls-4" d="M1405.6,2198.84c.16,1.22-.86,1.93-1.47,2.86-1.71,2.6-16.32,21.34-17.67,21.7-14.26-.68-28.86-1.02-43.2-.59-1.81.05-4.06.15-5.83.34-.69.07-1.13-.47-1.78.68,5.07,5.6,9.51,12.64,12.3,19.67,1.84,4.63,2.4,9.73,4.68,13.98h52.97l-18.32,23.99h-33.65c.28,26.2-10.36,51.45-33.97,64.31-17.05,9.3-34.03,10.76-52.99,12.32-.98.08-1.94-.54-1.66.98l110.6,139.6-48.01-.3-1.64-1.02-110.93-139.6v-23.65c28.62-1.14,65.59,6.04,86.64-18.31,8.08-9.34,12.28-22.03,12.64-34.33h-117.27l18.32-23.99h94.95c-2.46-11.01-11.47-20.93-21.31-26.33-20.37-11.18-64.63-9.17-88.34-8.35-1.28.04-2.38.55-3.62.7-.2-1.1.52-1.79,1.05-2.61,3.24-4.99,10.87-14.67,14.95-19.02,1.16-1.24,2.47-3.02,4.31-3.02h188.23Z"/>
</svg>