<?xml version="1.0" encoding="UTF-8"?>
<svg id="Layer_1" data-name="Layer 1" xmlns="http://www.w3.org/2000/svg" viewBox="0 0 4680 3120">
  <defs>
    <style>
      .cls-1 {
        fill: #cf2943;
      }

      .cls-2 {
        fill: #3ecaa1;
      }

      .cls-3 {
        fill: #113d75;
      }

      .cls-4 {
        fill: #00e3bc;
      }

      .cls-5 {
        fill: #b468d6;
      }

      .cls-6 {
        fill: #545454;
      }

      .cls-7 {
        fill: #c68217;
      }

      .cls-8 {
        fill: #ca3253;
      }

      .cls-9 {
        fill: #902a43;
      }

      .cls-10 {
        fill: #f9692e;
      }

      .cls-11 {
        fill: #0270a0;
      }

      .cls-12 {
        fill: #2e3047;
      }

      .cls-13, .cls-14 {
        fill: #f4ad2e;
      }

      .cls-15 {
        fill: #ffa412;
      }

      .cls-16 {
        fill: #005297;
      }

      .cls-17 {
        fill: rgba(255, 255, 255, 0);
      }

      .cls-18 {
        fill: none;
        stroke: #5b1e13;
        stroke-linecap: round;
        stroke-linejoin: round;
        stroke-width: 9.21px;
      }

      .cls-19 {
        fill: #c54b2e;
      }

      .cls-20 {
        fill: #0077b4;
      }

      .cls-21, .cls-14, .cls-22 {
        isolation: isolate;
      }

      .cls-23 {
        fill: #f3888a;
      }

      .cls-24 {
        fill: #924eb7;
      }

      .cls-25 {
        fill: #8c42b2;
      }

      .cls-26, .cls-22 {
        fill: #fff;
      }

      .cls-27 {
        fill: #b56739;
      }

      .cls-28 {
        fill: #5b1e13;
      }

      .cls-29 {
        fill: #f4851f;
      }

      .cls-30 {
        fill: #fe4565;
      }

      .cls-31 {
        fill: #059e81;
      }

      .cls-32 {
        fill: #ffdd28;
      }

      .cls-33 {
        opacity: .38;
      }

      .cls-34 {
        opacity: .58;
      }

      .cls-35 {
        opacity: .5;
      }

      .cls-36 {
        fill: #fbc5a9;
      }

      .cls-37 {
        fill: #fcd224;
      }

      .cls-38 {
        fill: #323b5d;
      }

      .cls-39 {
        fill: #0077b6;
      }

      .cls-40 {
        fill: #0e335b;
      }

      .cls-41 {
        fill: #008c83;
      }

      .cls-42 {
        fill: #f19a6d;
      }

      .cls-14 {
        mix-blend-mode: multiply;
      }

      .cls-43 {
        fill: #ffd9a2;
      }

      .cls-44 {
        fill: #b0dfe5;
      }

      .cls-22 {
        opacity: .32;
      }
    </style>
  </defs>
  <g class="cls-21">
    <g id="_04" data-name=" 04">
      <rect id="_04-2" data-name=" 04-2" class="cls-17" width="4680" height="3120"/>
      <path class="cls-44" d="M884,2611.06c-24.35-19.99-47.36-41.57-68.87-64.6-109.55-118.26-130.86-236.68-82.52-340.11,19.95-42.73,51.8-82.88,94.21-119.4,15.36-13.18,31.44-25.49,48.18-36.87,76.92-52.52,178.15-95.45,298.8-124.81,60.48-14.72,77.5-45.75,67.29-89.56-35.82-153.63-406.53-464.36-411.48-779.21-3.61-227.16,183.13-795.6,953.8-559.19,265.7,81.51,523.5,158.27,1102.72,19,982.1-236.18,1069,777.49,858.12,1108.42-105.57,165.68-105.43,253.54-59.12,326.59,46.17,72.86,138.27,131,217.21,236.87,6.1,8.15,11.75,16.63,16.93,25.39,54.69,92.61,30.76,181.18-11.23,250-49.71,81.46-124.76,135.22-124.76,135.22l-2899.28,12.26Z"/>
      <ellipse class="cls-27" cx="2354.85" cy="2605.84" rx="1586.4" ry="191.16"/>
      <rect class="cls-20" x="1365.26" y="1629.7" width="265.84" height="1053.34"/>
      <rect class="cls-20" x="1778.82" y="1378.28" width="265.84" height="1304.75"/>
      <rect class="cls-20" x="2154.85" y="1106.94" width="291.09" height="1576.09"/>
      <rect class="cls-20" x="2549.65" y="928.09" width="265.84" height="1754.95"/>
      <path class="cls-3" d="M3004.66,1198.46l-558.72,270.47,171.67,12.64c-98.1,61.66-208.37,111.52-329.33,148.82-142.54,43.92-301.21,70.9-471.59,80.13-133.81,7.25-257.67,2.82-361.37-5.63l-30.44,144c75.22,6.63,161.51,11.38,255.11,11.38,46.28,0,94.37-1.16,143.74-3.85,181-9.82,350.28-38.67,503-85.75,149.29-46,284.25-109.94,402.58-190.55l26.14,149.51,249.21-531.17Z"/>
      <polygon class="cls-40" points="3004.66 1198.46 2755.48 1729.6 2797.18 1726.79 3022.28 1220.64 3004.66 1198.46"/>
      <path class="cls-40" d="M2736.29,1618.86c-601.38,393.76-1275.48,264.08-1275.48,264.08l-35.92-34.07c75.21,6.62,161.5,11.37,255.1,11.37,46.28,0,94.37-1.17,143.74-3.85,181-9.82,350.28-38.68,503-85.75,149.3-46,284.26-110,402.59-190.56l6.97,38.78Z"/>
      <path class="cls-10" d="M3727.79,945l-25.09,32,19.18,24.44c-5.85,12.45-9.56,25.8-11,39.48l-29.05,11,4.92,40.41,30.84,3.72c4.67,12.94,11.48,25,20.14,35.69l-12.73,28.38,32,25.1,24.44-19.18c12.45,5.85,25.8,9.57,39.48,11l11,29.06,40.4-4.92,3.72-30.85c12.94-4.66,25-11.47,35.69-20.13l28.32,12.76,25.1-32-19.15-24.5c5.85-12.45,9.57-25.79,11-39.47l29.06-11-4.92-40.41-30.85-3.72c-4.67-12.94-11.47-25-20.13-35.68l12.76-28.33-32.05-25.1-24.44,19.18c-12.45-5.85-25.79-9.57-39.47-11l-11-29-40.41,4.91-3.72,30.85c-12.94,4.67-25,11.47-35.68,20.13l-28.36-12.82ZM3881,993.87c33.19,26.01,39.01,74,13,107.19-26.01,33.19-74,39.01-107.19,13-33.19-26.01-39.01-74-13-107.19,26-33.19,73.99-39.01,107.17-13.01,0,0,.01,0,.02.01Z"/>
      <path class="cls-19" d="M3894.05,1101.05c-25.78,33.18-73.58,39.17-106.76,13.39-5.19-4.03-9.83-8.72-13.81-13.94,16.97,38.58,62,56.11,100.59,39.14,38.58-16.97,56.11-62,39.14-100.59-2.48-5.64-5.64-10.96-9.4-15.84,11.35,25.76,7.6,55.68-9.76,77.84Z"/>
      <path class="cls-19" d="M3691.25,1067.72l29.05-11c1.44-13.68,5.15-27.03,11-39.48l-10.45-13.3c-5.24,11.74-8.62,24.22-10,37l-29.05,11,4.91,40.41,7.62.92-3.08-25.55Z"/>
      <path class="cls-19" d="M3713.58,990.93l23.63-30.17,28.33,12.76c10.68-8.67,22.74-15.47,35.68-20.14l3.72-30.85,37.11-4.51-6.12-16.14-40.41,4.91-3.72,30.85c-12.94,4.67-25,11.47-35.68,20.13l-28.33-12.77-25.09,32,10.88,13.93Z"/>
      <path class="cls-19" d="M3856.36,946.67c13.68,1.43,27.02,5.15,39.47,11l24.44-19.18,19.84,15.51,2.79-6.18-32.05-25.1-24.44,19.18c-11.34-5.29-23.41-8.81-35.81-10.45l5.76,15.22Z"/>
      <path class="cls-19" d="M3959.7,1027.59l23.23,2.8-1.81-14.82-28.5-3.44c2.71,4.99,5.08,10.15,7.08,15.46Z"/>
      <path class="cls-19" d="M3747.15,1147.54c-3.66-4.63-6.97-9.51-9.93-14.61l-12.22,27.19,12.2,9.56,9.95-22.14Z"/>
      <path class="cls-10" d="M3796.64,1035.15c10.43-20.6,35.58-28.84,56.17-18.41,3.84,1.94,7.35,4.46,10.42,7.48,12.77,12.47,16.2,32.73,8,48.59-10.43,20.6-35.58,28.84-56.17,18.41-3.84-1.94-7.35-4.46-10.42-7.48-12.77-12.47-16.2-32.74-8-48.59Z"/>
      <path class="cls-19" d="M3802.24,1081.2c2.94,3.34,6.39,6.21,10.21,8.49-11-20.2-3.55-45.5,16.65-56.5,13.02-7.09,28.82-6.73,41.5.95-1.38-2.64-3.06-5.12-5-7.38-15.15-17.41-41.54-19.24-58.94-4.1-17.25,15.01-19.23,41.1-4.45,58.54h.03Z"/>
      <path class="cls-5" d="M3594.87,763.75l-18.78,24,14.35,18.25c-4.38,9.31-7.15,19.3-8.22,29.53l-21.75,8.24,3.68,30.24,23.09,2.78c3.49,9.68,8.58,18.71,15.06,26.7l-9.55,21.2,24,18.78,18.25-14.33c9.32,4.37,19.3,7.15,29.54,8.22l8.24,21.74,30.24-3.67,2.78-23.09c9.68-3.49,18.71-8.58,26.7-15.06l21.2,9.55,18.78-24-14.35-18.28c4.37-9.32,7.15-19.3,8.22-29.54l21.74-8.24-3.68-30.24-23.08-2.78c-3.49-9.68-8.58-18.7-15.06-26.7l9.54-21.2-24-18.78-18.29,14.35c-9.31-4.38-19.3-7.15-29.53-8.22l-8.24-21.74-30.24,3.68-2.78,23.08c-9.68,3.49-18.71,8.58-26.71,15.06l-21.15-9.53ZM3709.52,800.3c24.85,19.45,29.22,55.37,9.77,80.22s-55.37,29.22-80.22,9.77c-24.85-19.45-29.22-55.37-9.77-80.22,0,0,0,0,0,0,19.46-24.84,55.36-29.21,80.21-9.76Z"/>
      <path class="cls-25" d="M3719.28,880.51c-19.29,24.82-55.05,29.31-79.87,10.03-3.89-3.02-7.37-6.53-10.35-10.45,12.68,28.88,46.37,42.01,75.25,29.33,28.88-12.68,42.01-46.37,29.33-75.25-1.86-4.24-4.23-8.24-7.06-11.91,8.5,19.28,5.69,41.67-7.3,58.25Z"/>
      <path class="cls-25" d="M3567.52,855.57l21.75-8.24c1.07-10.23,3.84-20.22,8.22-29.53l-7.81-10c-3.92,8.79-6.44,18.14-7.46,27.71l-21.75,8.24,3.68,30.24,5.7.69-2.33-19.11Z"/>
      <path class="cls-25" d="M3584.23,798.11l17.69-22.59,21.19,9.55c8-6.49,17.02-11.58,26.71-15.07l2.78-23.09,27.77-3.37-4.58-12.08-30.24,3.68-2.78,23.08c-9.68,3.49-18.71,8.58-26.71,15.06l-21.19-9.54-18.78,24,8.14,10.37Z"/>
      <path class="cls-25" d="M3691.07,765c10.24,1.06,20.22,3.84,29.54,8.22l18.29-14.35,14.85,11.63,2.08-4.63-24-18.78-18.29,14.35c-8.48-3.95-17.51-6.59-26.79-7.82l4.32,11.38Z"/>
      <path class="cls-25" d="M3768.4,825.54l17.38,2.1-1.35-11.1-21.33-2.54c2.03,3.72,3.81,7.57,5.3,11.54Z"/>
      <path class="cls-25" d="M3609.35,915.29c-2.73-3.46-5.22-7.11-7.43-10.93l-9.17,20.35,9.14,7.15,7.46-16.57Z"/>
      <path class="cls-5" d="M3643.78,837.78c8-27.8,43.35-32.28,58-7.6,4.04,6.81,5.12,14.98,3,22.61-8,27.8-43.34,32.28-58,7.6-4.03-6.82-5.12-14.98-3-22.61Z"/>
      <path class="cls-25" d="M3650.58,865.66c2.2,2.5,4.78,4.64,7.64,6.34-8.24-15.11-2.67-34.04,12.43-42.28,9.75-5.32,21.59-5.04,31.09.72-1.03-1.97-2.29-3.82-3.73-5.52-11.25-13.1-30.99-14.6-44.08-3.34s-14.59,30.99-3.34,44.08h0Z"/>
      <path class="cls-5" d="M1184.56,2119.21c-.79,30.7-4,200.77-16.42,284.24-6.73,45.12-18.91,83.57-34.54,112.32-19.44,35.77-44.24,56.55-70.55,56.55h-84.77c-47.47,0-90-67.64-105.09-168.87-.93-6.26-1.81-13-2.64-20.14h0c-10.27-88.13-13-235.82-13.77-264.17-.2-7.43,3.87-13.94,9.7-15.55,23.32-6.38,84.81-21.18,154.14-21.18s130.4,14.89,154.19,21.25c5.85,1.55,9.94,8.07,9.75,15.55Z"/>
      <path d="M1172.05,2113.08c-4.32,14.88-66.73,27.39-149.06,27.39s-153.72-8.32-153.72-23.81c0-13.84,71.4-20.89,153.72-20.89s151.8,7.87,149.06,17.31Z"/>
      <path class="cls-41" d="M1026.83,1515.93c-14.39,52.6-45.86,99.76-66,150.78-22.17,56.27-30.17,117.27-23,175.8,13.73,113,82,213.73,82.48,328.15,37.42-82.85,72.49-183.2,80.09-272.21,11.2-131.25,2.88-166.93-73.56-382.52h0Z"/>
      <g class="cls-34">
        <path class="cls-2" d="M1029.8,1528.19c-19.71,100.15-54,197.27-41,299,6.73,52.46,18.86,103.86,26,156.26,7.54,55.59,10.06,111.75,7.54,167.8-.13,2.91,4.91,2.89,5.2,0,10.53-106-15.38-207.47-31.22-310.1-16.55-107.28,18.46-206.47,35.18-312.69.18-1.12-1.53-1.33-1.75-.21l.05-.06Z"/>
      </g>
      <g class="cls-34">
        <path class="cls-2" d="M1025.11,1517.94c11.35,49.24,5.4,98.8,4,149.3-1.47,53.92,5.65,107,11,160.19,11.11,109.49,2.26,218.49-17.24,328.14-.56,3.14,4.33,3.73,4.91.6,20.22-110.39,29.22-219.17,17.85-329.46-5.65-54.68-13-109.25-11.26-164.7,1.58-49.28,6.88-97.58-6.91-145-.45-1.52-2.69-.54-2.35.94h0Z"/>
      </g>
      <g class="cls-34">
        <path class="cls-2" d="M1034.13,1543.34c19.19,99,39.71,198.59,40.86,300.62,1.18,105.16-23.7,207.84-52.43,309.88-.89,3.16,4.54,4.6,5.56,1.42,31.44-98,53.13-200.83,52.6-302.4-.55-105.53-22.08-208.42-44.69-310-.24-1-2.11-.56-1.9.5v-.02Z"/>
      </g>
      <g class="cls-34">
        <path class="cls-2" d="M1025.49,1518.47c-36,108.86-78.13,209.94-65.45,324.45,12,108.21,62.37,207.19,60.28,317.8-.05,2.42,4.13,2.41,4.32,0,8.11-104-41.49-198.71-56.48-298.83-9-60.44-7.26-119.74,8.33-180.2,14.15-54.91,35.12-108.17,50.35-162.85.21-.77-1.09-1.11-1.35-.34v-.03Z"/>
      </g>
      <path class="cls-2" d="M1296.15,1640.11c-23.32,78.65-97,129.38-150.29,191.74-48.93,57.44-81.74,126.83-95.07,201.1-7.69,43.21-8.66,87.53-18.57,130.28,43.26-70.25,124.65-107.42,178.56-169.88,68.27-79.09,121.58-279.35,85.37-353.24Z"/>
      <g class="cls-33">
        <path class="cls-41" d="M1295.83,1641.85c12.4,46.33-21.08,94.85-40.14,135-23.71,50-46.59,97.75-79.48,142.53-56.36,76.74-112.25,154.44-145.76,244.4-1,2.7,3,4.75,4,2,38.88-103.63,110-184.39,169.87-275.5,30.55-46.49,51.66-99.62,74.31-150.23,13.51-30.19,31.93-65.45,18.29-98.59-.1-.31-.45-.48-.76-.38s-.48.45-.38.76h.05Z"/>
      </g>
      <g class="cls-33">
        <path class="cls-41" d="M1296.25,1644c8.58,49.42,3.49,98.37-10.89,146.16-15.22,50.59-36.29,106.52-64,151.86-26.31,43-71.8,74.3-106,110.89-32.02,34.02-60.7,71.04-85.64,110.54-2.13,3.39,3.47,6.14,5.59,2.77,29.81-47.45,65.52-90.36,105-130.05,36.14-36.36,75.25-66.29,98.16-113.27,40.53-83.26,85.53-185.5,59.53-279.29-.27-1-1.92-.67-1.75.34v.05Z"/>
      </g>
      <g class="cls-33">
        <path class="cls-41" d="M1295.29,1641.74c3.13,41.42-29.89,88.67-50.34,122.39-26.94,44.42-56.22,87.31-84.83,130.65-53.29,80.74-119.11,158.14-127.2,258.82-.18.95.44,1.87,1.39,2.05s1.87-.44,2.05-1.39c7.86-24.6,12.29-50.23,20.08-74.93,10.71-34,25.64-59.86,46.92-88.34,29.61-39.63,54.85-82.65,82.22-123.83,29.82-44.87,60.53-89.75,85.9-137.35,12.76-24,33-60.13,26-88.51-.3-1.24-2.25-.81-2.16.43h-.03Z"/>
      </g>
      <g class="cls-33">
        <path class="cls-41" d="M1294.47,1641.29c-7.66,53.71-48.58,101.78-81,143-34.45,43.7-70.23,86.22-102.5,131.62-25.91,36.47-40.69,77.27-55.13,119.21-14,40.63-25.38,86.84-25.23,129.83,0,2.27,3.28,2.26,3.8.24,11.58-45.16,14.12-90.93,29.9-135.3,7.21-20.29,13.76-41.15,22.56-60.79,13.29-29.65,33.13-55.14,52.44-81,31.75-42.53,66.63-82.59,98.16-125.27,26.43-35.8,54.69-75.59,60.91-120.74.34-2.49-3.5-3.27-3.86-.75l-.05-.05Z"/>
      </g>
      <path class="cls-41" d="M1015.18,2175.24c-20.87-95.5-80-246.41-165.23-294.37-24.62-13.86-50.81-24.66-76.92-35.43-17.3-7.13-59.35-9.2-78.06-9.76,29.75,26.57,43.64,66.58,69.42,97,39.87,47,103.37,66.32,151,105.43,44,36.1,72.39,87.25,99.77,137.12h.02Z"/>
      <g class="cls-34">
        <path class="cls-2" d="M694.93,1836.15c42.43,8.35,82.19,21.93,118.7,45.54,29.94,19.36,56.8,44.93,82.29,69.78,59.76,58.26,89.25,141.26,114.18,218.83.86,2.66,4.85.88,4-1.77-26.62-80.82-57.94-166-121.69-225.45-56.55-52.79-117.39-100.67-197.23-109-.58-.06-1.1.35-1.16.93-.06.58.35,1.1.93,1.16h0l-.02-.02Z"/>
      </g>
      <g class="cls-34">
        <path class="cls-2" d="M694.47,1835.91c70,41.54,148.06,77.4,203.49,138.81,53.21,59,86.7,129,114.58,202.52,1,2.62,5,.84,4-1.77-28.36-73.27-63-144-116.12-202.76-55.43-61.37-133.46-99.13-204.78-138.4-1.08-.6-2.25.94-1.15,1.6h-.02Z"/>
      </g>
      <g class="cls-34">
        <path class="cls-2" d="M694.2,1835.8c20.36,27,43.08,52.74,68.12,75.46,28.12,25.53,61.28,44.65,91.66,67.29,69,51.41,115.11,114.53,155.62,189.74,1.35,2.51,5.45.65,4-1.8-38.35-66.91-77.61-127.42-138.53-176.11-30-24-63-43.7-93.07-67.36-32.74-25.71-58.45-57.9-86.15-88.61-.43-.43-1.13-.42-1.56.01-.37.37-.42.95-.13,1.38h.04Z"/>
      </g>
      <g class="cls-34">
        <path class="cls-2" d="M694.31,1835.71c23.51,27.93,55.53,44.82,86,64,35.64,22.41,68.7,48.66,98.6,78.29,57.39,56.93,101.8,125.07,133.38,199.34,1.23,2.91,5.74.91,4.49-2-31-72-74.07-138.61-129.22-194.58-26.13-26.62-54.82-50.58-85.67-71.55-35.71-24.17-77.09-42-106.11-74.73-.81-.91-2.26.27-1.47,1.21v.02Z"/>
      </g>
      <path class="cls-2" d="M826.65,1634.85c26.75,32.74,23.27,79.55,26.64,121.69,4.14,51.83,20.59,101.8,37.45,151,9.84,28.69,19.9,57.39,33.36,84.56,14.44,29.13,32.65,56.23,47.82,85,16.62,31.51,29.49,64.83,42.32,98.07,34.51-105.16,52.62-196.28-24-320.44-16.68-27-31.25-56.31-48.58-82.91-11.73-18-20.19-38.52-32.91-55.81-24.23-32.94-41.19-56.1-82.06-81.13l-.04-.03Z"/>
      <g class="cls-33">
        <path class="cls-41" d="M831.55,1641.2c34.45,32.63,45.88,88.8,57.45,133.11,11.67,44.73,21.6,89.9,37.09,133.52,29.78,83.85,70.86,164.17,83.85,253.06.43,2.91,4.83,1.78,4.43-1.1-13.07-94.13-57.81-178.51-88.45-267.39-15.57-45.15-25.54-91.76-38.63-137.62-11.1-38.87-23.35-86.84-54.42-114.83-.86-.78-2.18.44-1.32,1.25h0Z"/>
      </g>
      <g class="cls-33">
        <path class="cls-41" d="M844.51,1655.3c60.71,70.41,68.09,165.17,102.39,248.23,17.25,41.79,39.93,80.77,52.07,124.62,12.53,45.29,15.66,91.7,11.78,138.41-.25,3,4.3,3,4.63.08,5.03-44.36,2.02-89.26-8.9-132.54-11.26-44.65-33.57-84-51.76-125.95-36.74-84.73-44.17-183.46-109.09-253.91-.68-.74-1.77.31-1.12,1.06h0Z"/>
      </g>
      <g class="cls-33">
        <path class="cls-41" d="M831.62,1641.53c29.66,23.81,53.75,57.47,75.67,88.24,26.61,37.35,45.09,80.91,63.59,122.69,21.33,48.15,40.16,98.11,48.31,150.35,8.65,55.43-1.61,108.89-9.18,163.74-.53,3.87,5.61,4,6.11.1,7.2-55.47,17.31-109.23,8.52-165.19-8.29-52.72-27.66-102.9-49.6-151.27-34.42-75.92-74.51-158-142.24-210.57-1.15-.89-2.29,1-1.18,1.91h0Z"/>
      </g>
      <g class="cls-33">
        <path class="cls-41" d="M831.47,1641c25.47,36.46,32.45,88.13,37.93,131.44,4.53,35.8,7.53,70.77,17,105.84,13.14,48.54,32.39,95.7,54.45,140.83,23.64,48.36,56.84,93.25,67.76,146.78.64,3.16,5.37,1.93,4.84-1.21-8.52-49.81-38.77-91.36-61.22-135.56-26.23-51.64-48.9-106.12-63.1-162.37-8.77-34.78-10.71-70-16.06-105.24-6.22-41-13.62-88.28-40.25-121.51-.59-.74-1.9.2-1.35,1h0Z"/>
      </g>
      <path class="cls-24" d="M865.25,2114.72s152.69,47.69,306.8-1.64l.08,77.56s-54,19-151.71,21.46c-87.22,2.22-155.17-21.46-155.17-21.46v-75.92Z"/>
      <path class="cls-24" d="M1133.6,2515.77c-19.44,35.77-44.24,56.55-70.55,56.55h-84.77c-47.47,0-90-67.64-105.09-168.87-.93-6.26-1.81-13-2.64-20.14.53,1.93,35.09,125.27,87.18,143.93,44.94,16.09,127.48,9.42,175.87-11.47Z"/>
      <rect class="cls-43" x="2051.54" y="323" width="992.76" height="490.98" rx="121.76" ry="121.76"/>
      <path class="cls-42" d="M2923,323h-180.92c66.71,0,121.3,63.59,121.3,141.31v208.36c0,77.72-54.59,141.3-121.3,141.3h180.92c66.71,0,121.29-63.58,121.29-141.3v-208.37c.01-77.72-54.57-141.3-121.29-141.3Z"/>
      <path class="cls-38" d="M2207,499.69c1.01-33.13,17.54-55.9,49.59-68.33,12.97-4.21,26.54-6.31,40.18-6.22,9.84.01,19.64,1.14,29.23,3.36,10.94,2.67,19.87,6.7,26.79,12.09,7.59,5.94,11.39,13.38,11.39,22.33.21,6.68-2.27,13.16-6.87,18-5.21,4.69-11.92,7.36-18.92,7.55-7.31-1.37-14.55-3.1-21.69-5.2-9.87-2.67-17.77-4-23.71-4-6.17-.14-12.27,1.36-17.66,4.36-5.27,3.33-8.24,7.81-8.91,13.43,0,6.05,1.73,10.31,5.2,12.76,3.92,2.8,10.81,5.77,20.66,8.9,6.71,2,16.56,5.3,29.55,9.91,9.47,3.18,18.59,7.35,27.2,12.42,7.94,4.82,15.05,12.15,21.32,22,5.37,9.74,8.22,21.77,8.56,36.1,0,21.38-5.88,38.95-17.63,52.72-8.82,9.75-19.77,17.34-32,22.16-12.37,4.92-26.56,7.38-42.56,7.39-26.09,0-48.43-5.15-67-15.45-10.74-5.82-16.62-14.21-17.63-25.18.91-7.48,3.75-14.6,8.24-20.66,4.6-5.93,10.82-8.9,18.67-8.89,6,.34,11.9,1.65,17.48,3.86.67.22,2.44.84,5.3,1.84s5.74,2,8.66,3l5.38,1.84c5.67,2.12,11.62,3.42,17.66,3.86,1.8-.06,3.6.05,5.38.34,8.4-.34,15.29-2.3,20.68-5.88,5.73-3.3,9.16-9.5,8.91-16.11,0-7.17-2.75-12.77-8.24-16.79-6.84-4.34-14.24-7.73-22-10.08-2-.56-7.38-2.23-16.14-5-10.09-3.14-18.64-6.16-25.64-9.07-6.95-2.89-13.48-6.69-19.43-11.31-6.77-5.58-11.98-12.82-15.13-21-3.25-8.05-4.87-18.4-4.87-31.05Z"/>
      <path class="cls-38" d="M2424.7,529.41v-70.52c0-9.62,2.74-16.62,8.23-21,5.08-4.66,11.74-7.23,18.63-7.21h88c8.06,0,14.39,2.29,19,6.88,4.81,4.48,7.21,10.86,7.21,19.14.18,6.64-2.03,13.13-6.21,18.3-4.48,4.81-11.15,7.22-20,7.22h-59.1v44.32h54.91c8.16,0,14.71,2.52,19.64,7.56,4.5,5.03,6.95,11.55,6.88,18.3.16,6.77-2.45,13.32-7.22,18.13-4.92,5.27-11.35,7.9-19.3,7.9h-54.91v45.83h59.1c9.74,0,16.85,2.41,21.33,7.22,4.53,4.67,7,10.96,6.88,17.46,0,7.95-2.29,14.38-6.88,19.31-4.37,5.04-11.48,7.56-21.33,7.56h-86c-8.96,0-16.07-2.63-21.32-7.89-5.01-5.3-7.73-12.36-7.56-19.65l.02-118.86Z"/>
      <path class="cls-38" d="M2609.66,458.22c0-10.18,2.74-17.68,8.22-22.5,5.84-4.74,13.14-7.29,20.66-7.22,17.9.9,26.85,11.25,26.86,31.06v164.71h61.11c8.62,0,15.29,2.52,20,7.56,4.59,4.92,6.89,11.59,6.89,20-.67,7.5-3.52,13.43-8.57,17.79-4.96,4.08-11.2,6.28-17.62,6.22h-89.33c-8.62,0-15.5-2.74-20.65-8.23-5.03-5.37-7.55-11.37-7.55-18l-.02-191.39Z"/>
      <path class="cls-38" d="M2781.85,458.22c0-10.18,2.74-17.68,8.23-22.5,5.83-4.74,13.14-7.29,20.65-7.22,17.91.9,26.86,11.25,26.86,31.06v164.71h61.12c8.62,0,15.29,2.52,20,7.56,4.59,4.92,6.89,11.59,6.88,20-.67,7.5-3.52,13.43-8.56,17.79-4.96,4.08-11.2,6.28-17.63,6.22h-89.32c-8.62,0-15.5-2.74-20.65-8.23-5.04-5.37-7.56-11.37-7.56-18l-.02-191.39Z"/>
      <rect class="cls-4" x="774.01" y="515.81" width="761.35" height="376.53" rx="120.12" ry="120.12"/>
      <g class="cls-35">
        <path class="cls-31" d="M1442.35,515.81h-138.76c51.16,0,93,48.76,93,108.36v159.83c0,59.6-41.86,108.37-93,108.37h138.76c51.16,0,93-48.77,93-108.37v-159.83c.01-59.6-41.84-108.36-93-108.36Z"/>
      </g>
      <path class="cls-38" d="M929.26,619.51c0-6.52,1.85-11.63,5.54-15.32,3.61-3.86,8.8-5.79,15.58-5.8h51.38c9.1-.1,18.08,2.07,26.13,6.31,7.7,3.86,14.17,9.79,18.67,17.13,4.6,7.56,6.97,16.26,6.83,25.11,0,16.14-7.38,28.24-22.15,36.31,7.44,1.04,14.47,4.06,20.35,8.75,5.54,4.44,9.95,10.13,12.87,16.61,2.95,6.83,4.4,14.21,4.25,21.64-.12,6.03-.9,12.03-2.32,17.89-2.36,7.28-6.12,14.03-11.07,19.86-5.24,5.5-12.19,9.96-20.86,13.39-8.15,3.33-18.15,5-30,5h-54.08c-5.36-.04-10.52-2.01-14.55-5.54-4.38-3.61-6.57-8.98-6.57-16.1v-145.24ZM972,671.92h18.87c13.52,0,20.28-6.14,20.28-18.42-.52-11.24-7.11-16.86-19.77-16.86h-19.38v35.28ZM972,748.14h27.43c16.67,0,25-6.52,25-19.57,0-6.09-2.4-10.73-7.19-13.9-4.54-3.33-11.05-5-19.53-5h-25.71v38.47Z"/>
      <path class="cls-38" d="M1141.54,619.51v91.16c0,12,3.77,21.4,11.31,28.2,7.37,6.87,16.5,10.3,27.38,10.3,11.33,0,20.67-3.43,28-10.3,7.33-6.61,11-16.01,11-28.2v-91.16c0-7.47,1.94-13.1,5.81-16.87,3.88-3.94,8.96-5.91,15.24-5.92,6.63.34,11.84,2.4,15.63,6.18,4.05,3.86,6.08,9.4,6.07,16.61v91.16c0,16.67-3.44,30.83-10.31,42.49-3.35,5.75-7.46,11.02-12.24,15.65-4.98,4.78-10.62,8.82-16.75,12-12.29,6.52-26.46,9.78-42.53,9.78-16-.25-30.13-3.51-42.39-9.78-12.02-6.3-21.99-15.89-28.76-27.65-6.79-11.75-10.18-25.91-10.18-42.49v-91.16c0-7.47,1.94-13.1,5.81-16.87,3.88-3.94,9.18-5.91,15.89-5.92,6.28,0,11.36,1.97,15.24,5.92,3.85,3.78,5.77,9.4,5.78,16.87Z"/>
      <path class="cls-38" d="M1340.42,697.8l-47.51-63.87c-4.89-6.44-7.34-12.92-7.34-19.44.53-5.17,3.19-9.88,7.34-13,4.46-3.2,9.83-4.87,15.32-4.76,3.78-.09,7.52.85,10.82,2.7,3.26,1.81,6.44,4.91,9.53,9.28l33.47,47.89,33.23-47.89c5.49-8,12.09-12,19.82-12,5.44-.07,10.77,1.6,15.2,4.76,4.24,3.06,6.96,7.79,7.47,13,.14,7.12-2.35,14.05-7,19.44l-47.64,63.87v67c0,7.3-1.85,13.01-5.54,17.13-4,4-9.36,6-16.09,6-6.95,0-12.23-2.19-15.84-6.57-3.54-4.61-5.4-10.28-5.28-16.09l.04-67.45Z"/>
      <path class="cls-26" d="M3281.27,1490.54h441.55c.33-159.86-55.11-152.84-71.84-233.82-22.33-108.08-47.13-169.54-101.71-271.26-28.4-52.94-63.5-101.84-131.47-97.49-36.52,2.34-109.07,29.12-140.68,44.91-40.27,20.09-79.37,42.44-117.12,66.94-16,10.39-32.39,22-39.22,38.11-10.38,24.57,4.3,51.16,17.92,74.54,73.74,126.53,165.77,192.15,142.57,378.07Z"/>
      <path d="M3135,676.86c-15.77,4.93-3.86,27.46-3.71,27.69,5.69,8.85,14.55,15.19,24.76,17.72,0,0-8.39,46,32.53,72.66l153.13,46.19s50.62-27.27,55.78-84.25-10.85-107.88-55.62-93.42c0,0-11-44.35-53.6-41.8-40.41,2.42-47.34,21.13-99.72,4-8.86-3-18.56-2.24-26.85,2.1-11,6-20.33,19.18-4.87,47.65.02,0-11.04-1.92-21.83,1.46Z"/>
      <path class="cls-6" d="M3288.25,647.54s-60.21,14-98.93-4.67c0,0,6.45,17.59,37.92,23.82,0,0-21.38,9.89-39.54,4,0,0,18.82,19.59,79.32-.93l-13.73-7.37s28.1-8.26,34.96-14.85Z"/>
      <path class="cls-36" d="M3145.89,872.25c15.6,24,42.51,25.86,66.94,20.85l.65,2.59,15.93,64.09c4.38,17.64,30.27,29,42.08,28.34s37.16,3.66,68.2-35.72,8.57-57,8.57-57l-18.07-43.68c.83.08,1.69.13,2.54.13,15.41.06,27.95-12.39,28-27.79s-12.39-27.95-27.79-28c-13.58-.05-25.22,9.68-27.58,23.05,0,.15-.06.31-.08.46l-.11-.08c-5.12-3.68-9.52-8.26-13-13.52-7.11-10.49-9.64-23.43-7-35.83.29-1.28.63-2.56,1-3.82l.09-.3c.37-1.15.8-2.31,1.27-3.45.17-.41.37-.81.55-1.22s.39-.86.59-1.28h0c.19-.44.4-.86.63-1.29.69-1.3,1.44-2.59,2.27-3.85.31-.47.61-.89.91-1.28l21.6-28.48c-78.35,4.18-122.25-28.41-122.25-28.41,0,0-2.43,3.76-6.25,10.24-10.13,17.15-31.4,53.33-42.15,89.43-8.43,28.46-9.82,56.89,2.46,75.83Z"/>
      <path class="cls-23" d="M3212.83,893.1s31-6.74,48.7-22.79c0,0-13.28,39.85-43.85,42.29l-4.85-19.5Z"/>
      <path class="cls-23" d="M3337,829.79h-30.4l32-17.27c1.06-.68,2.47-.38,3.15.68.68,1.06.38,2.47-.68,3.15-.1.06-.21.12-.32.17l-16.16,8.71h12.4c1.26.08,2.21,1.17,2.12,2.43-.08,1.14-.98,2.05-2.12,2.12h0Z"/>
      <path class="cls-23" d="M3190.71,800.16h-.38c-15.31-2.57-23.19-6.7-24.79-13-2.18-8.56,8.71-18,19.09-26.1,6.87-5.21,10.59-13.59,9.84-22.18-.17-1.26.72-2.43,1.98-2.6,0,0,.01,0,.02,0,1.24-.19,2.41.67,2.6,1.91,0,0,0,.02,0,.03.99,10.23-3.39,20.24-11.56,26.46-6.2,4.86-19.09,15-17.47,21.34.74,2.88,5,6.88,21.09,9.59,1.25.2,2.1,1.39,1.9,2.64-.18,1.12-1.15,1.93-2.28,1.93l-.04-.02Z"/>
      <path class="cls-28" d="M3184.69,751.15c-1.42,2.85-4.54,4.36-7,3.36s-3.23-4.12-1.8-7,4.54-4.35,7-3.35,3.23,4.14,1.8,6.99Z"/>
      <path class="cls-28" d="M3222.31,763.2c-1.42,2.85-4.54,4.35-7,3.36s-3.23-4.13-1.8-7,4.54-4.36,7-3.36,3.23,4.14,1.8,7Z"/>
      <path class="cls-18" d="M3215.85,738.53s18.52-4.38,25.32,12l-25.32-12Z"/>
      <path class="cls-18" d="M3191.91,730.27s-2.84-7.4-15.15-7.59l15.15,7.59Z"/>
      <path class="cls-36" d="M3392.38,2403l-88.79,1c5.22,36.31,10.44,73.29,4.18,109.44-3.53,20.38-11.47,40.55-23.56,57.48,32.56,17,77.34,35.52,111.21,17.11-1.8-9.72-1.42-26.63-2.88-36.27-7.42-49.2-3.79-99.24-.16-148.76Z"/>
      <path class="cls-11" d="M3525.63,1493.28l-211.91-4.37c-8,10-9.16,23.2-12.51,35.11-96.43,343-73.15,692.91-44.24,978.69,33,0,89.37,5.07,143.1-3.64-15.46-300.18,54.74-703.91,125.56-1005.79Z"/>
      <path class="cls-16" d="M3364.72,2491.73l5-.1c-6.73-263.69,24.23-498,92-754.93l-4.9-1c-67.82,257.3-98.82,491.96-92.1,756.03Z"/>
      <path class="cls-16" d="M3246.29,2482.51c-1.16,1.46-1.05,3.41-.9,5.19,1.02,12.22,2.04,24.43,3.07,36.64,44.26,4.73,112,2.57,155.41-6.37-1.58-15.02-1.58-30.15,0-45.17-41.43,8.29-106.82,10.91-149.13,7.74-3.05-.22-6.69-.25-8.45,1.97Z"/>
      <path d="M3285.12,2562.2c-9.35,13.09-22,33-36.61,40.57-17.64,9.16-38.22,12.81-54.5,24.07-21.65,15-28,30.33-21.62,55.31,22.54,1.46,77.94,4.74,117.24-4.36,19.92-4.61,30.44-19.38,50.36-24-.12,5.31,5.37,10.7,5.25,16l54.15-5.69c8-27,8.17-56.41,3-84.49-33.88,18.44-84.7-.43-117.27-17.41Z"/>
      <path class="cls-36" d="M3591.15,2540.77c4.61,41.77-2.68,66.55,1.93,108.33.57,5.2,1.49,11,6.3,14.8,5.31,4.18,20.63,6.54,27.47,7.74,38,6.68,83.41,8.38,97.46-8.86-.09-29-22-45.59-36-73.74s-30.18-80.65-23.85-108.48c-31.86,3.5-53.37,2.82-85.23,6.32l11.92,53.89Z"/>
      <path d="M3695.13,2596.18c-.66-1.63-8.32-6.81-9.09-8.55-37.66-16.16-63.83,34-100.4,33.64,0,10,1.19,20.19,2.47,32.17.57,5.37,6.46,12.66,11.27,16.58,5.31,4.33,20.63,6.76,27.47,8,38,6.91,83.41,8.67,97.46-9.15,7.32-44.33-14.31-35.61-29.18-72.69Z"/>
      <path class="cls-39" d="M3712.18,1488.91h-251.72c-35.33,274.48,23.16,700.42,109.71,1042.18,57.34-7.44,98.55-4.61,155.89-12.06-48.06-307.74-29.6-709.19-13.88-1030.12Z"/>
      <path class="cls-16" d="M3694,2513.83l5-.72c-60.63-323.58-71.24-623.37-31.52-949.48l-5-.47c-39.85,326.5-29.23,626.7,31.52,950.67Z"/>
      <path class="cls-16" d="M3547.35,2499.71c3.22,12.53,6.44,25.05,9.65,37.58,56.94,7.65,114.79,4.9,170.74-8.11.06-14.42.13-28.84.2-43.26-59.72,9.48-120.12,14.09-180.59,13.79Z"/>
      <path class="cls-36" d="M2760.06,679.11c-11.39-11.25-.39-43.48-24.89-40.77-11.12-.13-33.07-1.83-42.93-13.63-4.89-5.85-15.5-5.23-19.6,1.08-2,3.03-3.39,6.43-4.09,10-5.52-3.07-13.49-2.09-17.86,2.19-4.37,4.31-4.63,11.28-.58,15.89-13.26,3-20.93,18-14.7,28.78-6.24,2.79-7.5,10.63-4.61,16.25s8.66,9.58,14.06,13.51c28.48,20.77,51.78,47,67.79,76.39,18.23-19.17,38.9-35.87,61.48-49.67-16.07-15.99-21.62-39.69-14.07-60.02Z"/>
      <path class="cls-30" d="M3173.1,1004.38c-80.57-19.39-213.44-81.07-213.44-81.07,0,0-98.23-116-170.35-207.5-25.18,19.62-81.44,44.49-108.31,62.36,47.27,81.49,179.56,245.33,179.56,245.33,0,0,174.16,105.78,303.63,146.36,39.38-58.39,22.5-93.46,8.91-165.48Z"/>
      <path class="cls-12" d="M3295.8,1480.19c-.52,12.13-1.47,24.74-3,38h418.46c0-13.86-.35-26.41-1-38h-414.46Z"/>
      <path class="cls-9" d="M3410.5,1478.74c-5.83.72-11.67,2.19-16.45,5.21s-8.37,7.8-8.55,13c-.27,7.62,6.72,14.11,14.48,17.5,8.66,3.71,18.21,4.79,27.48,3.11,8.86-1.63,17.72-6.53,20.16-14.21s-2.65-16.43-10.43-20.76-17.58-4.99-26.69-3.85Z"/>
      <path class="cls-30" d="M3145,1000.58c-16.91,11.34-34.26,24-41.48,41.6-11,26.82,4.55,55.83,19,81.35,87.94,155.84,200.71,226.82,135.11,497.44,28.38-6.59,62.31-9.77,99.19-10.86,22.39-237.4-159-525.79-141.7-647.93-19.34,11.49-51.56,25.97-70.12,38.4Z"/>
      <path class="cls-1" d="M3284.38,1217.37c-25.07-80-45.63-166.24-51.4-250.63-7.36-11-9-18-11.68-29.83,3.5,15.43-6.44,25.53-22.29,24.18-.23,64.34-12.28,131.57-5.91,195.66l45.25,8.8-32.6,9.54c68.1,137.72,108.51,286,118.78,436,15.07-2.24,37.9-10.79,38.28-1.07-9.15-160.36-39.81-269.35-78.43-392.65Z"/>
      <path class="cls-30" d="M3674.29,1274c-23.61-118-59.82-178.07-117.55-289.09-30-57.78-67.17-111.15-139.07-106.4-20.33,1.35-39,7.4-68.55,17.88-47.22,205.09,115.78,391.54,115.78,599.68,0,39.25,0,77.64-1.19,115.46,98.21,4.42,200.87,15,272.34,14.06,7.33-257-41.46-250.23-61.76-351.59Z"/>
      <path class="cls-1" d="M3469.22,1283.73c-.56-20.83,6.74-41.1,12.8-61.24,22.67-75.4,28.62-153.81,34.47-231.65,70.51,130.15,66.22,289.8-11.19,416.86-.89-42.88-34.94-81.09-36.08-123.97Z"/>
      <path class="cls-1" d="M3466.74,1616c19.37-86.18,2.14-175.71-26.17-260s-54-169.68-93.78-250.23c-52.1-105.47,4-193.07-9.63-233.79,29,33.92,28.6,47.88,36.93,87,10.28,47.79,29.09,93.35,55.53,134.47-20.19,5.21-39.32,13.9-56.53,25.67,24.09,1.54,48.27.54,72.14-3-14.54,19.77-17.57,44.68-14.47,68.08s11.82,45.88,19.22,68.52c38.38,117.56,41.61,243.02,16.76,363.28Z"/>
      <path class="cls-36" d="M3145.69,1118.91c-20.69-19.2-33.72-45.24-36.69-73.3-19.32-15.63-33.18.27-54-21.18-4-4.15-11.36-4.3-15.18,0-4.44,5-5.72,11.69,1.11,19.15-5.41-3.11-11.94-4.9-15.15,0s-2.43,15.57,3.34,18.11c-10.83,3.77-11.92,19.65-1.7,24.55-10.84,1.76-10.71,12.23-7.83,17.69,4.67,8.81,19.48,23.59,29.7,27.26s9.64,2.63,20,5.92c18.91,6,35.36,17.82,45.81,32.94,4.18-19.19,14.96-37.25,30.59-51.14Z"/>
      <path class="cls-30" d="M3528.57,998.79c-1.26-32.2-5.33-66.06-26.5-92.33s-64.73-41.08-95.63-23.87c-28.18,15.69-34.33,49-37.29,78.27-10.44,103.42.77,136.33,2.24,240.15-54.53-24.8-123.72-29.08-244.14-119.23-17.88,13.31-37.79,64.48-55.67,77.79,110.72,97.6,185,146.73,315.68,207.69,30.68,14.31,68.87,3.92,84.65-23.34,63.63-109.92,61.95-209.74,56.66-345.13Z"/>
      <path class="cls-26" d="M3167.56,818.24s24.91,9,32.34,8.77c-14.5,16.82-23.14,20.44-32.34,15.42-5.31-2.89,0-24.19,0-24.19Z"/>
      <circle class="cls-29" cx="2200.79" cy="1494.52" r="111.15" transform="translate(-412.19 1993.93) rotate(-45)"/>
      <circle class="cls-37" cx="2191.1" cy="1494.88" r="111.15" transform="translate(-415.28 1987.18) rotate(-45)"/>
      <path class="cls-15" d="M2194.88,1597.39c-55.89,2.06-102.87-41.58-104.93-97.47-2.06-55.89,41.58-102.87,97.47-104.93,55.89-2.06,102.87,41.58,104.93,97.47.99,26.84-8.72,52.97-27,72.65-18.23,19.74-43.61,31.37-70.47,32.28ZM2187.64,1401c-52.56,1.94-93.6,46.11-91.66,98.67,1.94,52.56,46.11,93.6,98.67,91.66,52.56-1.94,93.6-46.11,91.66-98.67,0,0,0,0,0-.01-2-52.53-46.14-93.52-98.67-91.65Z"/>
      <circle class="cls-29" cx="1548.15" cy="1476.3" r="165.2"/>
      <circle class="cls-37" cx="1534.26" cy="1480.12" r="165.21"/>
      <path class="cls-15" d="M1574.68,1627.14c-80.16,22.05-163.03-25.06-185.08-105.22-22.05-80.16,25.06-163.03,105.22-185.08,80.16-22.05,163.02,25.06,185.08,105.22,10.59,38.5,5.45,79.64-14.29,114.35-19.65,34.77-52.39,60.24-90.93,70.73ZM1497.25,1345.53c-75.25,20.69-119.64,98.75-99,174s98.74,119.64,174,99,119.64-98.75,99-174-98.75-119.69-174-99Z"/>
      <circle class="cls-29" cx="2589.61" cy="1109.25" r="152.48"/>
      <circle class="cls-37" cx="2576.31" cy="1109.75" r="152.48"/>
      <path class="cls-15" d="M2581.5,1250.38c-76.71,2.85-141.21-57.03-144.06-133.75-2.85-76.71,57.03-141.21,133.75-144.06,76.71-2.85,141.21,57.03,144.06,133.75,1.37,36.86-11.97,72.75-37.08,99.77-25.02,27.08-59.83,43.02-96.67,44.29ZM2571.56,981c-72,2.66-128.39,63.38-125.73,135.37s63.38,128.39,135.37,125.73,128.39-63.38,125.73-135.37-63.38-128.4-135.37-125.73Z"/>
      <circle class="cls-29" cx="1893.99" cy="857" r="260.15" transform="translate(-51.25 1590.26) rotate(-45)"/>
      <circle class="cls-37" cx="1872.11" cy="863.03" r="260.16"/>
      <path class="cls-15" d="M1935.9,1094.51c-126.18,34.79-256.68-39.29-291.47-165.47-34.79-126.18,39.29-256.68,165.47-291.47,126.18-34.79,256.68,39.29,291.47,165.47,16.71,60.6,8.66,125.35-22.37,180.01-30.9,54.77-82.43,94.9-143.1,111.46ZM1813.72,651.12c-118.49,32.65-188.32,155.61-155.67,274.09s155.61,188.32,274.1,155.67,188.31-155.61,155.66-274.1-155.61-188.31-274.09-155.66Z"/>
      <path class="cls-30" d="M3190.71,2470.86c0,160.92-149.17,249.91-333.26,249.91-145.35,0-269-55.51-314.53-158.13-12.13-27.31-18.72-57.95-18.72-91.78,0-135.27,105.41-333.58,248.24-393.48h170c142.91,59.9,248.27,258.21,248.27,393.48Z"/>
      <path class="cls-22" d="M2815.85,2077.38c-64.2,47.41-271.67,221-272.93,485.26-12.13-27.31-18.72-57.95-18.72-91.78,0-135.27,105.41-333.58,248.24-393.48h43.41Z"/>
      <path class="cls-30" d="M3004.88,1941.9l-52.69,114.37h-189.72l-52.34-110.49c-1-8.2,10.18-14.88,21.11-15.4s21.3,3.32,31.08,7,20.25,7.37,31.13,6.63c23.44-1.57,42-23,64.55-17.84,13.62,3.14,21.06,15.14,34.73,18.19,17,3.84,32.52-7.68,48.79-13,21.2-7,48.09-2.51,63.36,10.54Z"/>
      <polygon class="cls-8" points="2952.19 2056.27 2942.47 2077.39 2942.41 2077.39 2772.49 2077.39 2772.44 2077.39 2762.47 2056.27 2952.19 2056.27"/>
      <path class="cls-8" d="M2988.07,2102c28.05,40.63,49.5,85.43,63.55,132.76,64.08,215.64-41.42,426.22-235.64,470.35-17.07,3.86-34.43,6.36-51.9,7.46,30.81,5.56,62.06,8.32,93.37,8.25,184.09,0,333.26-89,333.26-249.91,0-120.46-83.52-290.74-202.64-368.91Z"/>
      <polygon class="cls-8" points="2889.74 2066.83 2864.53 2224.63 2902.34 2224.63 2902.34 2066.83 2889.74 2066.83"/>
      <polygon class="cls-8" points="2898.22 2066.83 2920.63 2190.22 2952.19 2190.22 2907.43 2066.83 2898.22 2066.83"/>
      <path class="cls-26" d="M2911.49,2068.05c0,4.54-5.06,8.22-11.32,8.22s-11.32-3.68-11.32-8.22,5.07-8.22,11.32-8.22,11.32,3.68,11.32,8.22Z"/>
      <path class="cls-8" d="M2795.5,2056s-40.88-62.1-21-57.75,29.84,40.13,41,30.39-5-54.65,8.08-52.85,36.92,72.47,59.81,60.51,45.26-51.1,49-35.88-4.35,55.83-4.35,55.83l-132.54-.25Z"/>
      <path class="cls-8" d="M2805.61,2077.39c-4.88,3.89-94.06,67.69-80.55,75.57s75.67-57.9,87.38-51-26.12,48.67,0,37.63,44.14-62.19,44.14-62.19h-50.97Z"/>
      <path class="cls-32" d="M1112.56,2520.32v.06c-.05.45-.02.91.1,1.35.14.52.19,1.1.33,1.62.05.39.14.78.26,1.16.14.4.31.8.5,1.18.01.14.07.28.15.39.06.36.21.7.42,1,0,.13.07.2.15.33.07.07.12.16.14.26.6,1.06,1.29,2.06,2.07,3,.58.86,1.25,1.66,2,2.38.23.27.53.54.75.8.35.45.75.85,1.2,1.2,1.04,1.01,2.15,1.96,3.32,2.82.93.84,1.93,1.59,3,2.24l1,.68c.94.75,1.95,1.42,3,2,.38.27.79.5,1.22.69.92.55,1.83,1,2.75,1.58,2.21,1.33,4.58,2.58,7.11,3.74,1.37.69,2.9,1.39,4.44,2,1.23.56,2.53,1.12,3.83,1.68.55.27,1.11.51,1.69.71,2.84,1.14,5.84,2.28,8.92,3.42l1.23.43c2.15.79,4.38,1.58,6.69,2.38,1.62.51,3.23,1.08,4.93,1.6l2.31.66c1.69.58,3.39,1.1,5.16,1.61,1,.3,2,.59,3.09.89s2.31.67,3.47,1c.46.08,1,.23,1.54.38.93.29,1.85.52,2.86.81,2.7.68,5.48,1.43,8.34,2.12.69.16,1.39.37,2.08.53,3.48.84,7,1.68,10.59,2.46.62.15,1.23.3,1.85.39l5.34,1.17c.11-.02.22.01.31.08,1.7.38,3.4.7,5.18,1.09,2.32.48,4.72.95,7.2,1.37,1.08.23,2.24.47,3.33.64,2.32.41,4.56.88,7,1.23l1.32.24h.15l.08.07c4,.73,8.13,1.4,12.39,2.08l1.63.25c3.25.51,6.51,1,9.84,1.47,2.48.42,5,.77,7.53,1.06,2.25.34,4.57.63,6.9.91v.06c.64.1,1.29.17,1.94.21,4,.53,8.07,1.08,12.26,1.49l4.82.57c3.33.39,6.67.77,10,1.1,5.67.6,11.34,1.07,17,1.61,3.81.34,7.55.61,11.35.89,6.38.56,12.75,1,19.06,1.37s12.36.74,18.52,1h.07c3,.17,5.92.29,8.88.4,3.5.14,6.93.27,10.35.34h.63c6.46.19,12.77.3,19.08.41h3.59c2.26.09,4.44.05,6.7.07h8.66c4.83,0,9.59,0,14.27-.15,1.8,0,3.59-.06,5.31-.06h1.87c2.58-.09,5.15-.19,7.73-.22,3.2-.07,6.4-.2,9.52-.33,3.44-.13,6.87-.25,10.23-.44,3.91-.18,7.74-.41,11.49-.65,1.88-.12,3.75-.24,5.55-.37l5.47-.36c2-.18,3.91-.3,5.87-.42v-.05l1.41-.14,6-.54,5.87-.54c2-.18,4-.36,6-.61,1.1-.08,2.19-.17,3.21-.32l7.13-.88c.39-.02.78-.07,1.17-.15,1.18-.08,2.28-.23,3.45-.38,1.57-.19,3.06-.39,4.55-.59l9.25-1.38c1.33-.2,2.67-.47,4-.68l5.65-.93c.11.01.22,0,.32-.06,1.25-.2,2.58-.41,3.84-.68,1.81-.32,3.54-.7,5.26-1,1.26-.21,2.44-.48,3.7-.75,2.12-.43,4.24-.87,6.29-1.36q.07.06.16,0c.4-.06.79-.15,1.18-.27.7-.17,1.49-.33,2.12-.5,3.23-.77,6.37-1.55,9.37-2.39s5.83-1.64,8.59-2.5c1.11-.34,2.29-.68,3.32-1.09,1.26-.4,2.53-.8,3.72-1.26.71-.23,1.34-.53,2-.82,1.66-.58,3.33-1.22,4.91-1.87,1.27-.52,2.54-1.05,3.72-1.58.9-.38,1.78-.82,2.63-1.31l2.15-1.07c1.27-.66,2.47-1.38,3.66-2,.59-.29,1.15-.62,1.68-1,.8-.55,1.6-1,2.32-1.51.75-.49,1.47-1.02,2.16-1.59.76-.57,1.49-1.18,2.18-1.84,1-.92,1.86-1.79,2.68-2.72,1.49-1.58,2.67-3.42,3.48-5.44.41-.89.7-1.83.89-2.79.17-.65.28-1.32.31-2v-.2c.41-8.57-7.44-17.34-22.25-25.61-9.77-5.44-22.51-10.74-37.91-15.69-5.93-1.9-12.18-3.68-18.89-5.47-11.65-3.15-24.41-6.08-38.18-8.79-6.12-1.19-12.45-2.33-19-3.42-12.09-2.07-24.85-3.96-38.3-5.65-6.21-.81-12.57-1.57-19-2.2-2-.27-4-.48-6.13-.69-10.72-1.12-21.53-2-32.25-2.84-3.66-.27-7.39-.54-11-.75l-8-.5c-12.91-.82-25.76-1.31-38.45-1.61-6.47-.18-12.78-.3-19.09-.41-13.1-.12-26,0-38.53.31-6.48.13-12.8.34-19.13.61-13.35.57-26.25,1.43-38.62,2.55-6.56.52-13,1.17-19.25,1.89-13.86,1.52-26.8,3.39-38.66,5.63-6.83,1.21-13.27,2.57-19.33,4.06-15.9,3.75-29.09,8.25-39,13.31-3.76,1.83-7.32,4.03-10.63,6.59-6.74,5.08-9.83,10.42-9.64,15.74Z"/>
      <path class="cls-14" d="M1170.27,2522.72c0,.35.02.71.08,1.06.11.41.15.87.26,1.28.01.31.08.62.21.91.1.32.23.63.39.92-.06.1,0,.21.11.31.05.3.17.58.34.82.1.14.18.3.23.46.47.84,1.01,1.64,1.62,2.39.46.68,1,1.31,1.59,1.88.16.24.36.45.59.62.27.38.58.71.94,1,.82.8,1.7,1.54,2.62,2.22.74.66,1.53,1.24,2.38,1.75.22.23.49.41.78.54.73.58,1.51,1.1,2.33,1.55.31.21.65.39,1,.54.72.43,1.44.82,2.16,1.25,1.74,1.02,3.61,2,5.6,2.94,1.08.54,2.28,1.09,3.49,1.59,1,.44,2,.89,3,1.33.43.22.87.41,1.33.56,4.04,1.67,8.45,3.31,13.24,4.9,1.28.4,2.55.85,3.88,1.26,1.94.62,3.88,1.2,5.88,1.79.79.23,1.58.46,2.43.69s1.82.53,2.73.77c1.15.34,2.3.64,3.46.94,5.22,1.41,10.75,2.73,16.53,4,2,.48,3.89.86,5.9,1.29,1.34.3,2.68.56,4.08.86,1.82.38,3.71.75,5.66,1.08l1.83.37c2.07.38,4.14.77,6.27,1.1.38.11.77.18,1.16.2l.06.05c7.86,1.36,16.09,2.69,24.7,3.83,1.77.27,3.6.49,5.43.71h0c.51.08,1.02.14,1.53.16,4.39.57,8.85,1.15,13.43,1.63,2.62.3,5.25.6,7.88.86,4.83.48,9.66.92,14.48,1.36,2.63.25,5.2.45,7.83.61,5,.44,10,.79,15,1.08s9.79.58,14.63.76c2.33.14,4.66.23,7,.32,2.76.11,5.46.21,8.15.26h.49c5.09.15,10,.24,15,.33,2.7,0,5.39.06,8.09.06h12.46c3.25,0,6.5-.1,9.76-.12.61,0,1.22-.06,1.84,0,1.9-.08,3.81-.16,5.71-.19,2.52-.05,5-.16,7.49-.27,2.71-.09,5.41-.19,8-.34,3.08-.13,6.09-.32,9-.51l8.67-.57c1.6-.14,3.08-.24,4.62-.33v-.05c3.57-.27,7.07-.59,10.46-1,1.6-.14,3.14-.28,4.68-.48.86-.06,1.73-.13,2.53-.25,3.14-.34,6.22-.72,9.24-1.11,3.7-.51,7.34-1,10.86-1.55,2.59-.4,5.12-.81,7.59-1.27.08.02.17.02.25,0,1-.17,2-.33,3-.54,4.2-.75,8.15-1.55,12-2.47q.06.06.12,0c.36-.04.72-.13,1.06-.26,1.79-.39,3.59-.82,5.32-1.26,3.66-.92,7.13-1.9,10.36-2.93.87-.27,1.8-.54,2.61-.86,1-.31,2-.63,2.92-1,1.93-.68,3.73-1.37,5.48-2.11,1-.41,2-.83,2.93-1.25.71-.29,1.4-.62,2.06-1l1.69-.84c1-.52,2-1.09,2.89-1.6.43-.24.87-.52,1.31-.81.63-.43,1.26-.81,1.83-1.19.59-.38,1.16-.8,1.7-1.25.6-.45,1.18-.93,1.72-1.45.76-.72,1.46-1.4,2.1-2.13,1.17-1.25,2.1-2.7,2.74-4.29.32-.7.56-1.43.7-2.19.14-.5.22-1.03.24-1.55.39-6.8-5.79-13.75-17.49-20.3-7.69-4.29-17.72-8.46-29.83-12.35-4.67-1.5-9.58-2.89-14.87-4.31-9.16-2.47-19.2-4.77-30-6.91-4.82-.94-9.82-1.84-15-2.69-9.51-1.63-19.57-3.13-30.13-4.44-4.89-.65-9.89-1.24-15-1.74-1.58-.21-3.17-.37-4.82-.54-8.43-.88-16.93-1.61-25.37-2.24-5-.39-10-.69-15-1-10.15-.64-20.26-1-30.25-1.26-5.09-.15-10-.24-15-.33-10.3-.09-20.43,0-30.31.25-5.1.1-10.07.26-15,.48-10.5.45-20.65,1.12-30.38,2-5.17.41-10.22.92-15.15,1.49-10.9,1.19-21.08,2.67-30.41,4.43-5.37.95-10.44,2.01-15.21,3.2-12.51,2.94-22.89,6.48-30.71,10.47-2.96,1.44-5.76,3.17-8.36,5.18-5.16,4-7.6,8.25-7.45,12.44Z"/>
      <path class="cls-13" d="M1108.57,2605.65v.7c.02,1.09.16,2.17.42,3.22.07.13,0,.32.06.45s.07.2.07.26c.35,1.15.8,2.26,1.35,3.33.06.04.09.12.07.19.14.13.27.29.37.46.53.94,1.12,1.84,1.77,2.7.12.14.22.29.3.46.1.13.23.25.37.34.89,1.13,1.87,2.2,2.92,3.19v.06c.12.1.25.19.38.27,1.04,1.04,2.15,2,3.32,2.89l.45.4.69.41c1.26,1,2.58,1.93,3.94,2.78.12.15.28.27.46.34,0,.06.07.07.15.07.61.41,1.3.82,2,1.23,1.07.68,2.13,1.3,3.28,1.92.19.14.39.26.61.35.27.18.55.34.84.48,1.83,1,3.67,1.94,5.66,2.91.23.07.38.21.61.28.06.05.15.08.23.07,2.38,1.12,4.83,2.24,7.44,3.37.29.09.57.21.84.35.29.1.57.22.84.35,2.84,1.14,5.76,2.28,8.92,3.43.12.07.25.12.38.14.28.11.56.21.85.29,2.38.86,4.84,1.72,7.38,2.59l4.16,1.31c.11.04.21.08.31.14l2.16.66c1.62.52,3.31,1,5.08,1.55,1,.29,2.09.59,3.09.89l4.17,1.12.77.22c.45.16.92.28,1.39.37.46.15,1,.3,1.54.45,2.7.68,5.48,1.43,8.26,2.11.77.16,1.47.38,2.16.53,3.48.84,7,1.68,10.59,2.46l.85.23c.34.03.67.09,1,.17,3.78.85,7.58,1.63,11.52,2.43,2.17.4,4.33.87,6.5,1.27.7.16,1.4.25,2.09.41,3.41.64,6.89,1.29,10.46,1.87l8.9,1.5,1.16.24c.24,0,.55.08.86.09,5.58.92,11.31,1.79,17.13,2.59.86.09,1.78.26,2.64.36,2.48.35,5,.7,7.6,1,3.34.45,6.83.91,10.24,1.3.46.09.93.15,1.4.18.62.09,1.24.17,1.86.2,1.87.2,3.65.4,5.52.66,3,.31,6.13.68,9.31,1,4.9.51,9.87,1,14.76,1.4.32,0,.7.09,1,.1.78.1,1.64.13,2.41.23,3.66.26,7.23.59,10.88.86,1.17.11,2.42.16,3.58.27.86,0,1.71.13,2.57.23s1.55.06,2.33.15c3.58.2,7.08.46,10.58.66h.31c1.17,0,2.25.15,3.42.19.33.07.66.1,1,.11,4.36.23,8.72.46,13,.62.47,0,.93.1,1.32.12h.16l14.79.57c1.17,0,2.34,0,3.5.08h.94c3,.05,6.07.17,9.11.22h5.22c1.56,0,3.2.06,4.76,0,1.4.06,2.73,0,4.13.1h19.55c3,0,5.93,0,8.81-.11l3.36-.06h2.65c3-.08,5.93-.15,8.82-.24l3.36-.06c.26-.03.52-.03.78,0,2.11-.11,4.14-.16,6.17-.28l7.42-.29c.1.03.21.03.31,0,.6.01,1.2,0,1.8-.06,3.9-.24,7.73-.41,11.48-.65.47,0,1,0,1.49-.07.94-.09,1.8-.12,2.73-.22,3.29-.19,6.57-.45,9.86-.71.86-.09,1.72-.12,2.5-.16.33-.06.66-.08,1-.08.23-.06.47-.1.71-.11l13.61-1.2c.08,0,.08-.06.16-.06h.08c1.56-.13,3.13-.33,4.7-.46,3.29-.38,6.5-.78,9.63-1.17.63,0,1.17-.08,1.8-.18.47-.05.94-.16,1.41-.21,5.17-.63,10.27-1.33,15.21-2.1.25-.07.52-.1.78-.1,1.1-.22,2.12-.37,3.22-.58l5.65-.94,1-.15c1-.16,2-.37,3.14-.59,1.81-.31,3.54-.7,5.27-1,.55-.11,1-.16,1.49-.27.78-.16,1.41-.33,2.2-.49,2.12-.43,4.24-.86,6.29-1.36.31,0,.63-.1.86-.16.87-.22,1.81-.38,2.6-.6,2-.5,4.09-1,6.07-1.57,1-.21,2-.5,2.91-.72,2.6-.67,5-1.41,7.41-2.15.34-.06.68-.16,1-.28,2.68-.8,5.21-1.66,7.66-2.53.71-.23,1.34-.53,2.06-.82,1.65-.58,3.32-1.22,4.9-1.86.79-.36,1.59-.71,2.3-1.07s1.43-.58,2.14-.94l1.91-.89,2.15-1.07c1.27-.66,2.47-1.38,3.66-2,.56-.36,1.12-.66,1.68-1,1.6-1,3.12-2.06,4.49-3.09,6.19-4.89,9.27-9.91,9.54-15l4-86c-.03.68-.14,1.35-.31,2-.19.96-.48,1.9-.89,2.79-.87,1.98-2.04,3.82-3.48,5.44-.82.93-1.71,1.8-2.68,2.72-.69.66-1.42,1.27-2.18,1.84-.69.57-1.41,1.1-2.16,1.59-.72.48-1.52,1-2.32,1.51-.53.38-1.09.71-1.68,1-1.19.66-2.39,1.38-3.66,2l-2.15,1.07c-.87.41-1.75.83-2.62,1.18-.47.24-.94.46-1.43.65-.71.36-1.51.71-2.3,1.06-1.58.65-3.25,1.29-4.91,1.87-.71.29-1.34.59-2,.82-1.19.46-2.46.86-3.72,1.26-1,.41-2.21.75-3.32,1.09l-3.54,1c-1.58.52-3.24,1-5.05,1.48-3,.84-6.14,1.62-9.37,2.39-.63.17-1.42.33-2.12.5-.4.05-.79.16-1.18.21v.06q-.09.06-.16,0c-2,.49-4.17.93-6.29,1.36-1.26.27-2.44.54-3.7.75-1.72.32-3.45.7-5.26,1-1.26.27-2.59.48-3.84.68-.1.05-.21.07-.32.06l-5.65.93c-1.33.21-2.67.48-4,.68l-9.25,1.38c-1.49.2-3,.4-4.55.59-.78,0-1.49.14-2.27.23l-1.18.15c-.39.08-.78.13-1.17.15l-7.13.88c-1,.15-2.11.24-3.21.32-2,.25-3.91.43-6,.61l-5.87.54-6,.54-1.41.14c-.94,0-1.88.12-2.74.21l-3.13.27-5.47.36c-1.8.13-3.67.25-5.55.37-3.75.24-7.58.47-11.49.65-3.36.19-6.79.31-10.23.44-3.12.13-6.32.26-9.52.33-2.58,0-5.15.13-7.73.22h-1.87c-1.72,0-3.51.06-5.31.06-4.68.14-9.44.15-14.27.15h-8.66c-2.26,0-4.44,0-6.7-.07h-3.59c-6.31-.11-12.62-.22-19.08-.41h-.63c-1.24,0-2.49,0-3.74-.08l-14.17-.55c-.46,0-.85-.1-1.32-.11h-.07c-6.16-.23-12.3-.6-18.52-1s-12.68-.81-19.06-1.37c-3.8-.28-7.54-.55-11.35-.89l-17-1.61c-3.34-.33-6.68-.71-10-1.1l-4.82-.57c-4.19-.41-8.3-1-12.26-1.49l-1.94-.27c-2.33-.28-4.65-.57-6.9-.91-2.56-.29-5-.64-7.53-1.06-3.33-.45-6.59-1-9.84-1.47l-1.63-.25-2.79-.49c-3.25-.51-6.43-1.08-9.6-1.59v-.07h-.23l-1.32-.24c-2.33-.34-4.67-.75-7-1.23-1.09-.17-2.25-.41-3.33-.64l-7.2-1.43c-1.78-.33-3.48-.71-5.18-1-.09-.07-.2-.1-.31-.08l-5.34-1.17c-.62-.09-1.23-.24-1.85-.39-3.63-.78-7.11-1.62-10.59-2.46-.69-.16-1.39-.37-2.08-.53-2.86-.69-5.64-1.44-8.34-2.12-1-.29-1.93-.52-2.86-.81-.54-.15-1.08-.3-1.54-.38v-.06l-3.47-.91c-1.08-.3-2.09-.59-3.09-.89-1.77-.51-3.47-1-5.16-1.61l-2.31-.66c-1.7-.52-3.31-1.09-4.93-1.6-2.31-.8-4.54-1.59-6.69-2.38l-1.23-.43c-3.08-1.14-6.08-2.28-8.92-3.42-.58-.2-1.14-.44-1.69-.71-1.3-.56-2.6-1.12-3.83-1.68s-2.45-1.12-3.6-1.68c-.29-.09-.57-.21-.84-.35-2.53-1.19-4.9-2.43-7.11-3.74-.92-.55-1.83-1-2.75-1.58-.42-.23-.83-.48-1.22-.75-.45-.28-.91-.55-1.29-.82-.21-.12-.42-.26-.61-.41-.38-.19-.73-.42-1.06-.68l-1-.68c-.69-.48-1.29-.95-1.9-1.42l-1.14-.82c-1.17-.86-2.28-1.81-3.32-2.82-.14-.11-.27-.25-.37-.4-.3-.25-.57-.51-.83-.8-.22-.26-.52-.53-.75-.8-.49-.49-.94-1.02-1.34-1.59l-.67-.79c-.64-.86-1.23-1.77-1.77-2.7-.08-.13-.18-.24-.3-.33-.02-.1-.07-.19-.14-.26-.08-.13-.15-.2-.15-.33-.19-.31-.33-.65-.42-1-.08-.11-.14-.25-.15-.39-.19-.38-.36-.78-.5-1.18-.12-.38-.21-.77-.26-1.16-.14-.52-.19-1.1-.33-1.62-.12-.44-.15-.9-.1-1.35l-3.99,85.27Z"/>
      <path class="cls-14" d="M1590.69,2578.94l-3.32,86.12c.87-.22,1.81-.38,2.6-.6,2-.5,4.09-1,6.07-1.57,1-.21,2-.5,2.91-.72,2.6-.67,5-1.41,7.41-2.15.34-.06.68-.16,1-.28,2.68-.8,5.21-1.66,7.66-2.53.71-.23,1.34-.53,2.06-.82,1.65-.58,3.32-1.22,4.9-1.86.79-.36,1.59-.71,2.3-1.07s1.43-.58,2.14-.94l3.31-85.93c-.47.24-.94.46-1.43.65-.71.36-1.51.71-2.3,1.06-1.58.65-3.25,1.29-4.91,1.87-.71.29-1.34.59-2,.82-1.19.46-2.46.86-3.72,1.26-2.13.76-4.5,1.43-6.86,2.11-1.58.52-3.24,1-5.05,1.48-3,.84-6.14,1.62-9.37,2.39-1.09.28-2.3.49-3.4.71Z"/>
      <path class="cls-14" d="M1532.71,2588.18l-3.31,86.19c3.29-.38,6.5-.78,9.63-1.17.63,0,1.17-.08,1.8-.18.47-.05.94-.16,1.41-.21,5.17-.63,10.27-1.33,15.21-2.1.25-.07.52-.1.78-.1,1.1-.22,2.12-.37,3.22-.58l5.65-.94,1-.15,3.32-86.13c-.1.05-.21.07-.32.06l-5.65.93c-1.33.21-2.67.48-4,.68l-9.25,1.38c-2.2.3-4.55.53-6.82.82-.78.1-1.57.27-2.35.3l-7.13.88c-1,.14-2.09.24-3.19.32Z"/>
      <path class="cls-14" d="M1474.85,2592.31l-3.31,86.18,7.42-.29c.1.03.21.03.31,0,.6.01,1.2,0,1.8-.06,3.9-.24,7.73-.41,11.48-.65.47,0,1,0,1.49-.07.94-.09,1.8-.12,2.73-.22,3.29-.19,6.57-.45,9.86-.71.86-.09,1.72-.12,2.5-.16.33-.06.66-.08,1-.08l3.32-86.19c-.94,0-1.88.12-2.74.21-2.81.22-5.78.42-8.6.63-1.8.13-3.67.25-5.55.37-3.75.24-7.58.47-11.49.65-3.35.14-6.78.26-10.22.39Z"/>
      <path class="cls-14" d="M1417.2,2593l-3.31,86.19c1.4.06,2.73,0,4.13.1h19.55c3,0,5.93,0,8.81-.11l3.36-.06h2.65l3.32-86.19c-1.72,0-3.51.06-5.31.06-4.68.14-9.44.15-14.27.15h-8.66c-3.41-.03-6.84-.04-10.27-.14Z"/>
      <path class="cls-14" d="M1359.67,2590.88l-3.32,86.25h.31c1.17,0,2.25.15,3.42.19.33.07.66.1,1,.11,4.36.23,8.72.46,13,.62.47,0,.93.1,1.32.12h.16l14.79.57c1.17,0,2.34,0,3.5.08h.94l3.32-86.25h-.39c-1.33,0-2.65,0-4-.08l-14.17-.55c-.46,0-.93-.1-1.39-.12-6.16-.2-12.27-.57-18.49-.94Z"/>
      <path class="cls-14" d="M1302.24,2585.91l-3.32,86.32c3,.31,6.13.68,9.31,1,4.9.51,9.87,1,14.76,1.4.32,0,.7.09,1,.1.78.1,1.64.13,2.41.23,3.66.26,7.23.59,10.88.86l3.32-86.31c-9.4-.68-18.88-1.56-28.36-2.5-3.33-.33-6.67-.71-10-1.1Z"/>
      <path class="cls-14" d="M1244.93,2577.81l-3.32,86.31,8.9,1.5,1.16.24c.24,0,.55.08.86.09,5.58.92,11.31,1.79,17.13,2.59.86.09,1.78.26,2.64.36,2.48.35,5,.7,7.6,1l3.32-86.31c-2.33-.28-4.65-.57-6.9-.91-2.56-.29-5-.64-7.53-1.06-3.33-.45-6.59-1-9.84-1.47l-4.42-.74c-3.25-.52-6.43-1.09-9.6-1.6Z"/>
      <path class="cls-14" d="M1187.79,2565.22l-3.32,86.38.77.22c.45.16.92.28,1.39.37.46.15,1,.3,1.54.45,2.7.68,5.48,1.43,8.26,2.11.77.16,1.47.38,2.16.53,3.48.84,7,1.68,10.59,2.46l.85.23c.34.03.67.09,1,.17,3.78.85,7.58,1.63,11.52,2.43l3.32-86.38c-1.78-.33-3.48-.71-5.18-1-.09-.07-.2-.1-.31-.08l-5.34-1.17c-.62-.09-1.23-.24-1.85-.39-3.63-.78-7.11-1.62-10.59-2.46-.69-.16-1.39-.37-2.08-.53-2.86-.69-5.64-1.44-8.34-2.12-1-.29-1.93-.52-2.86-.81-.53-.18-1.07-.33-1.53-.41Z"/>
      <path class="cls-14" d="M1131,2542.77l-3.33,86.63c1.07.68,2.13,1.3,3.28,1.92.19.14.39.26.61.35.27.18.55.34.84.48,1.83,1,3.67,1.94,5.66,2.91.23.07.38.21.61.28.06.05.15.08.23.07,2.38,1.12,4.83,2.24,7.44,3.37.29.09.57.21.84.35.29.1.57.22.84.35,2.84,1.14,5.76,2.28,8.92,3.43.12.07.25.12.38.14.28.11.56.21.85.29,2.38.86,4.84,1.72,7.38,2.59l3.33-86.44c-2.31-.8-4.54-1.59-6.69-2.38l-1.23-.43c-3.08-1.14-6.08-2.28-8.92-3.42-.58-.2-1.14-.44-1.69-.71-1.3-.56-2.6-1.12-3.83-1.68s-2.45-1.12-3.6-1.68c-.29-.09-.57-.21-.84-.35-2.53-1.19-4.9-2.43-7.11-3.74-.92-.55-1.83-1-2.75-1.58-.42-.23-.83-.48-1.22-.75Z"/>
      <path class="cls-14" d="M1108.57,2605.65v.7c.02,1.09.16,2.17.42,3.22.07.13,0,.32.06.45s.07.2.07.26c.35,1.15.8,2.26,1.35,3.33.06.04.09.12.07.19.14.13.27.29.37.46.53.94,1.12,1.84,1.77,2.7.12.14.22.29.3.46.1.13.23.25.37.34.89,1.13,1.87,2.2,2.92,3.19v.06c.12.1.25.19.38.27,1.04,1.04,2.15,2,3.32,2.89l.45.4.69.41c1.26,1,2.58,1.93,3.94,2.78.12.15.28.27.46.34,0,.06.07.07.15.07.61.41,1.3.82,2,1.23,1.07.68,2.13,1.3,3.28,1.92.19.14.39.26.61.35.27.18.55.34.84.48,1.83,1,3.67,1.94,5.66,2.91.23.07.38.21.61.28.06.05.15.08.23.07,2.38,1.12,4.83,2.24,7.44,3.37.29.09.57.21.84.35.29.1.57.22.84.35,2.84,1.14,5.76,2.28,8.92,3.43.12.07.25.12.38.14.28.11.56.21.85.29,2.38.86,4.84,1.72,7.38,2.59l4.16,1.31c.11.04.21.08.31.14l2.16.66c1.62.52,3.31,1,5.08,1.55,1,.29,2.09.59,3.09.89l4.17,1.12.77.22c.45.16.92.28,1.39.37.46.15,1,.3,1.54.45,2.7.68,5.48,1.43,8.26,2.11.77.16,1.47.38,2.16.53,3.48.84,7,1.68,10.59,2.46l.85.23c.34.03.67.09,1,.17,3.78.85,7.58,1.63,11.52,2.43,2.17.4,4.33.87,6.5,1.27l12.81-4.57,39.06-14,19.37-7,39-14,19.37-6.95,39.06-14,19.37-6.95,3.64-1.34,38.9-13.89,114.88-41.23-121.25-48.73-42.54-17.09-8-.5c-12.91-.82-25.76-1.31-38.45-1.61-6.47-.18-12.78-.3-19.09-.41-13.1-.12-26,0-38.53.31-6.48.13-12.8.34-19.13.61-13.35.57-26.25,1.43-38.62,2.55-6.56.52-13,1.17-19.25,1.89-13.86,1.52-26.8,3.39-38.66,5.63-6.83,1.21-13.27,2.57-19.33,4.06-15.9,3.75-29.09,8.25-39,13.31-3.76,1.83-7.32,4.03-10.63,6.59-6.59,5.13-9.68,10.46-9.49,15.79v.06l-4.01,85.28Z"/>
      <path class="cls-32" d="M1046.87,2413.84v.06c-.05.45-.02.91.1,1.35.14.52.19,1.1.33,1.62.05.4.14.78.27,1.16.13.41.3.8.5,1.18.17.61.41,1.2.71,1.76.08.07.13.16.14.26.6,1.06,1.29,2.06,2.07,3,.58.86,1.25,1.66,2,2.39.27.24.52.5.75.79.34.45.75.86,1.2,1.2,1.04,1.02,2.16,1.96,3.33,2.82.93.84,1.93,1.59,3,2.24l1,.68c.94.75,1.95,1.42,3,2,.38.27.79.5,1.22.69.92.55,1.83,1,2.75,1.58,2.21,1.33,4.58,2.58,7.11,3.74,1.37.69,2.91,1.39,4.44,2,1.23.56,2.53,1.12,3.83,1.68.55.27,1.11.51,1.69.71,2.84,1.14,5.84,2.28,8.92,3.42l1.23.43c2.15.79,4.38,1.58,6.69,2.38,1.62.51,3.23,1.08,4.93,1.6l2.31.66c1.69.58,3.39,1.1,5.16,1.61,1,.3,2,.6,3.09.89s2.31.67,3.47,1c.46.08,1,.23,1.54.38.93.29,1.86.52,2.86.81,2.7.69,5.48,1.43,8.34,2.12.69.16,1.39.38,2.08.53,3.48.84,7,1.68,10.59,2.46.61.16,1.23.29,1.86.39l5.33,1.17c.16,0,.23,0,.31.08,1.7.38,3.4.7,5.18,1.09,2.32.48,4.72,1,7.2,1.37,1.08.24,2.24.47,3.33.64,2.32.41,4.57.88,7,1.23l1.32.25h.15l.08.07c4,.73,8.13,1.4,12.39,2.08l1.63.25c3.25.52,6.51,1,9.85,1.47,2.48.42,5,.77,7.52,1.06,2.25.35,4.57.63,6.9.91v.06c.64.1,1.29.17,1.94.21,4,.53,8.07,1.08,12.26,1.5l4.82.57c3.33.38,6.67.77,10,1.09,4.74.44,9.48.94,14.22,1.31,1.4.19,2.8.3,4.19.42,3.34.32,6.61.58,10,.77,6.37.57,12.74,1,19,1.37,1.94.14,3.89.22,5.75.35,4.28.23,8.56.46,12.77.62h.07c3,.18,5.92.29,8.88.4,3.5.14,6.93.27,10.36.34h.62c6.46.19,12.77.3,19.09.42,3.42.06,6.85.07,10.28.07h8.66c4.83,0,9.59,0,14.27-.15,1.8,0,3.59-.06,5.31,0,.62,0,1.24,0,1.87-.06,2.58-.09,5.15-.19,7.73-.22,3.2-.06,6.4-.2,9.52-.33,3.44-.13,6.87-.25,10.23-.44,3.91-.17,7.74-.41,11.49-.65l5.55-.36c.11,0,.22-.01.32-.06,1.71-.06,3.43-.19,5.15-.31,2-.18,3.91-.3,5.87-.42v-.06l1.41-.14,6-.54,5.87-.54c2-.18,4-.36,6-.6,1.1-.09,2.19-.18,3.21-.33l7.13-.88c.4-.02.79-.07,1.18-.15,1.17-.08,2.27-.23,3.44-.38s2.35-.29,3.45-.44l1.1-.15,9.25-1.38c1.33-.2,2.67-.47,4-.68l5.65-.93c.1.03.22.03.32,0,1.25-.21,2.58-.42,3.84-.69,1.81-.32,3.54-.7,5.27-1,1.25-.2,2.43-.48,3.69-.75,2.12-.43,4.24-.86,6.29-1.36q.08.06.16,0c.4-.06.79-.15,1.18-.27.7-.17,1.49-.33,2.12-.5,3.23-.77,6.38-1.55,9.37-2.39s5.83-1.64,8.59-2.49c1.11-.35,2.22-.75,3.32-1.09,1.27-.41,2.53-.81,3.72-1.27.71-.23,1.34-.53,2-.82,1.66-.58,3.33-1.22,4.91-1.86,1.27-.53,2.54-1.06,3.73-1.59.9-.38,1.78-.82,2.62-1.31l2.15-1.07c1.27-.66,2.47-1.38,3.66-2,.59-.29,1.15-.62,1.68-1,.8-.54,1.6-1,2.32-1.51.75-.49,1.47-1.02,2.16-1.59.76-.57,1.49-1.18,2.18-1.84,1-.92,1.86-1.78,2.68-2.71s1.39-1.81,2-2.68v-.07c.57-.85,1.05-1.75,1.43-2.7.4-.89.7-1.83.89-2.79.17-.65.28-1.32.31-2v-.19c.4-8.58-7.45-17.35-22.26-25.61-9.77-5.45-22.51-10.75-37.91-15.7-5.93-1.9-12.18-3.68-18.89-5.47-11.65-3.14-24.41-6.07-38.18-8.78-6.12-1.2-12.47-2.34-19.05-3.43-12.09-2.07-24.85-3.95-38.3-5.64-6.21-.82-12.57-1.58-19-2.21-2-.27-4-.48-6.13-.69-10.72-1.11-21.52-2-32.25-2.84-6.38-.5-12.76-.88-19.06-1.25-7.62-.48-15.25-.84-22.8-1.13-5.22-.2-10.51-.34-15.65-.48-6.47-.18-12.78-.3-19.09-.41-13.1-.12-26,0-38.53.31-6.48.13-12.8.34-19.13.61-13.35.58-26.25,1.43-38.62,2.55-6.56.52-13,1.17-19.25,1.89-13.86,1.52-26.79,3.39-38.65,5.63-6.84,1.21-13.29,2.57-19.34,4.07-15.9,3.74-29.09,8.24-39,13.3-3.76,1.82-7.32,4.03-10.62,6.59-6.59,5.01-9.68,10.34-9.49,15.67Z"/>
      <path class="cls-14" d="M1104.6,2416.24c0,.36.03.71.09,1.06.1.41.14.87.25,1.28.01.31.08.62.21.91.11.32.24.63.4.93-.07.09,0,.2.11.3.05.29.16.57.33.82.1.14.18.29.23.46.47.85,1.01,1.65,1.63,2.39.46.68.99,1.31,1.58,1.88.17.23.36.44.59.62.28.38.62.72,1,1,.81.8,1.69,1.54,2.61,2.22.74.66,1.54,1.25,2.39,1.75.22.23.48.42.77.54.74.58,1.52,1.1,2.34,1.55.31.22.64.4,1,.54.72.44,1.44.82,2.16,1.25,1.74,1.02,3.6,2,5.59,2.94,1.08.54,2.29,1.09,3.49,1.59,1,.45,2,.89,3,1.33.43.22.87.41,1.33.56,4.05,1.67,8.46,3.31,13.25,4.9,1.27.4,2.54.85,3.87,1.26,1.94.63,3.88,1.2,5.88,1.79l2.43.7c.91.28,1.82.52,2.73.76,1.15.34,2.31.64,3.46.94,5.22,1.41,10.76,2.73,16.53,4,2,.48,3.9.86,5.9,1.29,1.34.3,2.68.56,4.08.86,1.83.38,3.71.75,5.67,1.08l1.82.37c2.07.38,4.14.77,6.28,1.1.38.12.77.18,1.16.2v.05c7.87,1.36,16.1,2.69,24.7,3.83,1.77.27,3.6.49,5.43.71v.05c.51.08,1.02.13,1.53.16,4.39.57,8.85,1.15,13.43,1.63,2.63.3,5.25.6,7.88.86,4.83.49,9.66.92,14.49,1.36,2.63.25,5.19.45,7.83.61,5,.44,10,.79,15,1.08s9.8.58,14.64.76c2.32.14,4.65.23,7,.32,2.75.11,5.45.21,8.15.27h.49c5.08.15,10,.24,15,.33,2.7,0,5.4.06,8.1.06h12.45c3.25,0,6.51-.1,9.76-.12.61,0,1.23-.06,1.84,0,1.91-.08,3.81-.16,5.71-.19,2.52-.05,5-.16,7.5-.26,2.7-.1,5.4-.2,8-.35,3.07-.13,6.08-.32,9-.51l8.68-.57c1.6-.14,3.07-.24,4.61-.33v-.16c3.57-.27,7.08-.59,10.47-1,1.6-.14,3.14-.28,4.68-.48.86-.06,1.72-.13,2.52-.25,3.14-.33,6.22-.72,9.25-1.11,3.7-.51,7.33-1,10.85-1.55,2.59-.4,5.13-.81,7.6-1.27.08.02.16.02.24,0,1-.16,2-.33,3-.54,4.2-.75,8.16-1.55,12-2.46h.13c.34-.04.68-.13,1-.26,1.79-.39,3.59-.82,5.32-1.26,3.66-.92,7.13-1.9,10.36-2.93.87-.27,1.8-.54,2.61-.86,1-.31,2-.63,2.92-1,1.93-.68,3.74-1.37,5.48-2.11,1-.41,2-.83,2.93-1.25.71-.29,1.4-.62,2.07-1l1.69-.84c1-.52,1.94-1.08,2.88-1.6.44-.24.88-.52,1.32-.81.63-.43,1.26-.81,1.82-1.19.59-.38,1.16-.8,1.71-1.25.6-.45,1.17-.93,1.71-1.45.76-.72,1.46-1.4,2.11-2.13,1.17-1.25,2.1-2.7,2.74-4.29.31-.7.54-1.44.69-2.19.14-.51.23-1.03.25-1.55.38-6.8-5.79-13.75-17.5-20.3-7.69-4.29-17.71-8.46-29.83-12.35-4.67-1.49-9.58-2.89-14.86-4.31-9.17-2.47-19.17-4.78-30-6.91-4.81-.94-9.81-1.84-15-2.69-9.51-1.63-19.57-3.13-30.13-4.44-4.88-.64-9.89-1.24-15-1.74-1.59-.21-3.18-.37-4.83-.54-8.43-.88-16.93-1.61-25.37-2.24-5-.39-10-.69-15-1-10.16-.64-20.27-1-30.26-1.26-5.08-.15-10.05-.24-15-.33-10.31-.09-20.43,0-30.32.25-5.09.1-10.07.26-15,.48-10.51.45-20.66,1.12-30.38,2-5.17.41-10.22.92-15.15,1.49-10.91,1.19-21.08,2.67-30.42,4.43-5.37.95-10.44,2.01-15.21,3.2-12.5,3-22.88,6.48-30.7,10.47-2.96,1.43-5.76,3.17-8.36,5.18-5.12,4.04-7.55,8.29-7.41,12.48Z"/>
      <path class="cls-13" d="M1042.89,2499.17v.7c.02,1.09.16,2.17.42,3.22.07.13,0,.32.06.46s.07.19.07.25c.35,1.15.8,2.26,1.35,3.33.06.04.09.12.07.19.15.14.27.29.37.47.54.93,1.13,1.83,1.77,2.69.12.14.22.29.3.46.15.14.22.27.37.34.89,1.14,1.87,2.2,2.92,3.19v.06c.12.1.25.19.38.27,1.04,1.04,2.15,2,3.32,2.89l.45.4.69.41c1.26,1,2.58,1.93,3.94,2.78.12.15.28.27.46.34,0,.07.07.07.15.07.61.41,1.3.82,2,1.23,1.07.68,2.13,1.3,3.28,1.92.19.14.39.26.61.35.27.18.55.34.84.48,1.83,1,3.67,1.94,5.66,2.91.23.07.38.21.61.28.06.05.15.08.23.07,2.38,1.12,4.83,2.24,7.44,3.37.29.09.57.21.84.35.29.1.57.22.84.35,2.84,1.14,5.76,2.28,8.92,3.43.12.07.25.12.38.14.28.11.56.21.85.29,2.38.86,4.84,1.72,7.38,2.59l4.16,1.31c.16.08.24.08.31.15l2.16.66c1.62.51,3.31,1,5.09,1.54,1,.29,2.08.59,3.08.89l4.17,1.12.77.22c.45.16.92.28,1.39.38l1.54.44c2.7.68,5.48,1.43,8.26,2.11.77.16,1.47.38,2.16.53,3.48.84,7,1.68,10.59,2.47.31.07.54.14.85.22.34.03.67.09,1,.17,3.79.85,7.58,1.64,11.52,2.43,2.17.4,4.33.87,6.5,1.28.7.15,1.4.24,2.09.4,3.41.64,6.89,1.29,10.46,1.87,2.94.5,5.88,1,8.91,1.5l1.16.24c.23,0,.54.08.85.1,5.58.92,11.32,1.78,17.13,2.58.86.1,1.79.26,2.64.36,2.48.35,5,.7,7.6,1,3.34.45,6.83.91,10.24,1.3.46.09.93.15,1.4.18.62.1,1.24.17,1.86.2,1.87.2,3.66.4,5.52.66,3,.31,6.13.69,9.31,1,4.9.51,9.87,1,14.76,1.4.32,0,.7.09,1,.11.78.09,1.64.12,2.41.22,3.66.27,7.23.6,10.89.86,1.16.11,2.41.16,3.57.27.86,0,1.71.13,2.57.23s1.55.06,2.33.15c3.58.2,7.08.47,10.58.67h.31c1.17,0,2.26.15,3.42.19.33.07.66.1,1,.11,4.36.23,8.72.46,13,.63.47,0,.93.1,1.32.11h.16l14.79.57c1.17,0,2.34,0,3.51.07h.93c3,.06,6.07.17,9.11.23l1.33.05h3.89c1.56,0,3.2.06,4.76,0,1.4.06,2.73,0,4.13.1h19.55c3,0,5.93,0,8.81-.11l3.36-.06h2.65l8.82-.23,3.36-.07c.26-.03.52-.03.78,0,2.11-.11,4.14-.16,6.17-.28l7.42-.29c.1.03.21.03.31,0,.6.01,1.2,0,1.8-.06,3.9-.23,7.73-.41,11.48-.65.47,0,1,0,1.49-.07.94-.09,1.8-.12,2.73-.21,3.29-.2,6.57-.46,9.86-.71.86-.1,1.72-.13,2.5-.16.33-.06.66-.09,1-.09.23-.06.47-.1.71-.11,4.62-.39,9.15-.8,13.61-1.2.08,0,.08-.06.16-.06h.08c1.56-.13,3.13-.33,4.7-.46,3.29-.38,6.5-.77,9.63-1.17.63,0,1.17-.08,1.8-.18.47-.05.94-.16,1.41-.21,5.17-.63,10.27-1.33,15.21-2.1.26-.07.52-.1.79-.1,1.09-.21,2.11-.37,3.21-.58l5.65-.94,1-.15c1-.15,2-.37,3.14-.59,1.81-.31,3.54-.69,5.27-1,.55-.11,1-.16,1.49-.27.79-.16,1.42-.33,2.2-.49,2.12-.43,4.24-.86,6.29-1.36.31,0,.63-.1.87-.16.86-.22,1.8-.38,2.59-.6,2-.5,4.09-1,6.07-1.57,1-.21,2-.5,2.91-.72,2.6-.67,5-1.41,7.41-2.15.32-.07.64-.16.95-.28,2.68-.8,5.21-1.66,7.66-2.53.71-.23,1.34-.52,2.06-.82,1.66-.57,3.32-1.22,4.9-1.86.8-.35,1.59-.71,2.3-1.07s1.43-.58,2.15-.94l1.9-.89,2.15-1.07c1.27-.66,2.47-1.38,3.66-2,.56-.36,1.12-.66,1.68-1,1.6-1,3.12-2.06,4.49-3.1,6.19-4.89,9.27-9.91,9.54-15l4-86c-.03.68-.14,1.35-.31,2-.19.96-.49,1.9-.89,2.79-.38.95-.86,1.85-1.43,2.7v.07c-.66.87-1.32,1.81-2,2.68s-1.71,1.79-2.68,2.71c-.69.66-1.42,1.27-2.18,1.84-.69.57-1.41,1.1-2.16,1.59-.72.48-1.52,1-2.32,1.51-.53.38-1.09.71-1.68,1-1.19.66-2.39,1.38-3.66,2l-2.15,1.07c-.88.41-1.75.83-2.62,1.18-.46.25-.94.46-1.43.65-.71.36-1.51.71-2.3,1.07-1.58.64-3.25,1.28-4.91,1.86-.71.29-1.34.59-2,.82-1.19.46-2.45.86-3.72,1.27-1.1.34-2.21.74-3.32,1.09l-3.54,1c-1.58.52-3.24,1-5,1.48-3,.84-6.14,1.62-9.37,2.39-.63.17-1.42.33-2.12.5-.4.05-.79.16-1.18.21v.06q-.08.06-.16,0c-2,.5-4.17.93-6.29,1.36-1.26.27-2.44.55-3.69.75-1.73.32-3.46.7-5.27,1-1.26.27-2.59.48-3.84.69-.1.03-.22.03-.32,0l-5.65.93c-1.33.21-2.67.48-4,.68l-9.25,1.38-1.1.15c-1.88.25-3.84.43-5.72.68l-1.17.14c-.39.08-.78.13-1.18.15l-7.13.88c-1,.15-2.11.24-3.21.33-2,.24-3.91.42-6,.6l-5.87.54-6,.54-1.41.14c-.94,0-1.88.12-2.74.21-2.73.22-5.55.43-8.28.58-.1.05-.21.07-.32.06l-5.55.36c-3.75.24-7.58.48-11.49.65-3.36.19-6.79.31-10.23.44-3.12.13-6.32.27-9.52.33-2.58,0-5.15.13-7.73.22-.63,0-1.25,0-1.87.06h-5.31c-4.68.14-9.44.15-14.27.15h-8.66c-3.43,0-6.86,0-10.28-.07-6.32-.12-12.63-.23-19.09-.42h-.62c-1.25,0-2.5,0-3.75-.08l-14.16-.55c-.47,0-.86-.1-1.33-.11h-.07c-4.21-.16-8.49-.39-12.77-.62-1.86-.13-3.81-.21-5.75-.35-6.31-.37-12.68-.8-19-1.37-4.67-.31-9.41-.75-14.15-1.19s-9.48-.87-14.22-1.31c-3.34-.32-6.68-.71-10-1.09l-4.82-.57c-4.19-.42-8.3-1-12.26-1.5l-1.94-.27c-2.33-.28-4.65-.56-6.9-.91-2.56-.29-5-.64-7.52-1.06-3.34-.45-6.6-1-9.85-1.47l-1.63-.25-2.79-.49c-3.25-.51-6.43-1.08-9.6-1.59v-.07h-.38l-1.32-.25c-2.33-.34-4.67-.75-7-1.23-1.09-.17-2.25-.4-3.33-.64l-7.2-1.43c-1.78-.33-3.48-.71-5.18-1-.08-.07-.15-.07-.31-.08l-5.33-1.17c-.63-.1-1.25-.23-1.86-.39-3.63-.78-7.11-1.62-10.59-2.46-.69-.15-1.39-.37-2.08-.53-2.86-.69-5.64-1.43-8.34-2.12-1-.29-1.93-.52-2.86-.81-.54-.15-1.08-.3-1.54-.38v-.06l-3.47-.91c-1.08-.29-2.08-.59-3.09-.89-1.77-.51-3.47-1-5.16-1.61l-2.31-.66c-1.7-.52-3.31-1.09-4.93-1.6-2.31-.8-4.54-1.59-6.69-2.38l-1.23-.43c-3.08-1.14-6.08-2.28-8.92-3.42-.58-.2-1.14-.44-1.69-.71-1.3-.56-2.6-1.12-3.83-1.68s-2.45-1.12-3.6-1.68c-.29-.09-.57-.21-.84-.35-2.53-1.19-4.9-2.44-7.11-3.74-.92-.55-1.83-1-2.75-1.58-.42-.23-.83-.48-1.22-.75-.45-.28-.91-.55-1.29-.82-.21-.12-.42-.26-.61-.41-.37-.21-.72-.43-1.06-.68l-1-.68c-.68-.48-1.29-.95-1.9-1.42l-1.13-.82c-1.17-.86-2.29-1.8-3.33-2.82-.14-.11-.27-.24-.37-.39-.3-.27-.53-.54-.83-.81-.23-.29-.48-.55-.75-.79-.49-.5-.94-1.03-1.34-1.6l-.67-.79c-.65-.86-1.24-1.76-1.77-2.7-.08-.13-.18-.24-.3-.33-.01-.1-.06-.19-.14-.26-.3-.56-.54-1.15-.71-1.76-.2-.38-.37-.77-.5-1.18-.13-.38-.22-.76-.27-1.16-.14-.52-.19-1.1-.33-1.62-.12-.44-.15-.9-.1-1.35l-3.93,85.29Z"/>
      <path class="cls-14" d="M1525,2472.46l-3.31,86.12c.86-.22,1.8-.38,2.59-.6,2-.5,4.09-1,6.07-1.57,1-.21,2-.5,2.91-.72,2.6-.67,5-1.41,7.41-2.15.32-.07.64-.16.95-.28,2.68-.8,5.21-1.66,7.66-2.53.71-.23,1.34-.52,2.06-.82,1.66-.57,3.32-1.22,4.9-1.86.8-.35,1.59-.71,2.3-1.07s1.43-.58,2.15-.94l3.3-85.93c-.46.25-.94.46-1.43.65-.71.36-1.51.71-2.3,1.07-1.58.64-3.25,1.28-4.91,1.86-.71.29-1.34.59-2,.82-1.19.46-2.45.86-3.72,1.27-1.1.34-2.21.74-3.32,1.09l-3.54,1c-1.58.52-3.24,1-5,1.48-3,.84-6.14,1.62-9.37,2.39-.63.17-1.42.33-2.12.5-.5.06-.89.17-1.28.22Z"/>
      <path class="cls-14" d="M1467,2481.71l-3.31,86.18c3.29-.38,6.5-.77,9.63-1.17.63,0,1.18-.08,1.81-.18.46-.05.94-.16,1.41-.21,5.17-.63,10.26-1.33,15.2-2.1.26-.07.52-.1.79-.1,1.1-.22,2.12-.37,3.22-.58l5.65-.94,1-.15,3.31-86.13c-.1.05-.21.07-.32.06l-5.65.93c-1.33.21-2.67.48-4,.68l-9.25,1.38c-2.2.3-4.54.53-6.82.83-.78.09-1.57.26-2.35.29l-7.13.88c-.96.15-2.05.24-3.19.33Z"/>
      <path class="cls-14" d="M1409.19,2485.83l-3.32,86.18,7.42-.29c.1.03.21.03.31,0,.6.01,1.2,0,1.8-.06,3.91-.23,7.73-.41,11.49-.65.47,0,1,0,1.48-.07.94-.09,1.8-.12,2.74-.21,3.28-.2,6.56-.46,9.85-.72.86-.09,1.72-.12,2.5-.16.33-.05.67-.08,1-.08l3.31-86.19c-.93,0-1.87.12-2.73.21-2.82.22-5.79.42-8.61.63-1.79.13-3.67.25-5.55.37-3.75.24-7.58.48-11.48.65-3.34.14-6.78.26-10.21.39Z"/>
      <path class="cls-14" d="M1351.54,2486.56l-3.32,86.18c1.4.06,2.73,0,4.13.1h19.54c3,0,5.93,0,8.82-.11l3.35-.06h2.65l3.32-86.18h-5.3c-4.69.14-9.44.15-14.28.15h-8.65c-3.4-.01-6.8-.02-10.26-.08Z"/>
      <path class="cls-14" d="M1294,2484.4l-3.32,86.25h.31c1.17,0,2.26.15,3.43.19.33.07.66.1,1,.11,4.35.23,8.71.46,13,.62.47,0,.93.1,1.32.12h.16l14.79.58c1.17,0,2.34,0,3.51.07h.93l3.32-86.25h-.39c-1.32-.06-2.65,0-4-.09l-14.17-.55c-.47,0-.93-.1-1.4-.12-6.12-.19-12.27-.56-18.49-.93Z"/>
      <path class="cls-14" d="M1236.57,2479.43l-3.32,86.32c3,.31,6.13.68,9.32,1,4.89.51,9.86,1,14.76,1.4.31,0,.69.09,1,.1.77.1,1.63.13,2.41.23,3.65.27,7.22.59,10.88.86l3.38-86.34c-9.41-.68-18.89-1.56-28.37-2.5-3.39-.3-6.72-.68-10.06-1.07Z"/>
      <path class="cls-14" d="M1179.26,2471.33l-3.32,86.31,8.91,1.5,1.16.24c.23,0,.54.08.85.09,5.58.92,11.32,1.79,17.14,2.59.85.1,1.78.26,2.63.36,2.48.35,5,.7,7.61,1l3.32-86.31c-2.33-.28-4.66-.56-6.91-.91-2.56-.29-5-.64-7.52-1.06-3.34-.45-6.59-1-9.85-1.47l-4.41-.74c-3.26-.52-6.43-1.09-9.61-1.6Z"/>
      <path class="cls-14" d="M1122.12,2458.74l-3.32,86.38.77.22c.45.16.92.28,1.39.37.46.15,1,.3,1.54.45,2.7.68,5.48,1.43,8.26,2.11.78.16,1.47.38,2.17.53,3.47.84,7,1.68,10.58,2.46l.85.23c.34.03.67.09,1,.17,3.79.85,7.58,1.63,11.52,2.43l3.33-86.38c-3.72-.72-7.27-1.5-10.83-2.28-.62-.09-1.24-.24-1.86-.39-3.63-.78-7.11-1.62-10.58-2.46-.7-.15-1.39-.37-2.09-.53-2.86-.69-5.64-1.43-8.34-2.11-1-.3-1.93-.53-2.85-.82-.53-.12-1.07-.3-1.54-.38Z"/>
      <path class="cls-14" d="M1065.29,2436.29l-3.34,86.63c1.07.68,2.14,1.3,3.28,1.92.19.14.39.26.61.35.27.18.55.34.84.48,1.84,1,3.67,1.94,5.66,2.91.23.07.38.21.61.28.06.05.15.08.23.07,2.38,1.12,4.83,2.24,7.44,3.37.29.08.57.2.84.35.29.1.57.22.85.35,2.84,1.14,5.76,2.28,8.91,3.43.12.07.25.12.38.14.28.11.56.21.85.29,2.38.86,4.85,1.72,7.39,2.59l3.32-86.44c-2.31-.8-4.54-1.59-6.69-2.38l-1.23-.43c-3.08-1.14-6.07-2.28-8.91-3.42-.58-.19-1.14-.43-1.69-.71-1.31-.56-2.61-1.12-3.84-1.68s-2.45-1.12-3.6-1.68c-.29-.09-.57-.21-.84-.35-2.53-1.19-4.9-2.44-7.11-3.74-.91-.55-1.83-1-2.74-1.58-.42-.23-.83-.48-1.22-.75Z"/>
      <path class="cls-14" d="M1228.73,2457.52l27.43,10.55,43.57,16.68,32.28,12.34,18.82,7.27,38,14.54,18.82,7.2,38,14.55,18.9,7.26,38,14.55c1-.15,2-.37,3.14-.59,1.81-.31,3.54-.69,5.27-1,.55-.11,1-.16,1.49-.27.79-.16,1.42-.33,2.2-.49,2.12-.43,4.24-.86,6.29-1.36.31,0,.63-.1.87-.16.86-.22,1.8-.38,2.59-.6,2-.5,4.09-1,6.07-1.57,1-.21,2-.5,2.91-.72,2.6-.67,5-1.41,7.41-2.15.32-.07.64-.16.95-.28,2.68-.8,5.21-1.66,7.66-2.53.71-.23,1.34-.52,2.06-.82,1.66-.57,3.32-1.22,4.9-1.86.8-.35,1.59-.71,2.3-1.07s1.43-.58,2.15-.94l1.9-.89,2.15-1.07c1.27-.66,2.47-1.38,3.66-2,.56-.36,1.12-.66,1.68-1,1.6-1,3.12-2.06,4.49-3.1,6.19-4.89,9.27-9.91,9.54-15l4-86v-.19c.4-8.58-7.45-17.35-22.26-25.61-9.77-5.45-22.51-10.75-37.91-15.7-5.93-1.9-12.18-3.68-18.89-5.47-11.65-3.14-24.41-6.07-38.18-8.78-6.12-1.2-12.47-2.34-19.05-3.43-12.09-2.07-24.85-3.95-38.3-5.64-6.21-.82-12.57-1.58-19-2.21-2-.27-4-.48-6.13-.69-10.72-1.11-21.52-2-32.25-2.84-6.38-.5-12.76-.88-19.06-1.25-7.62-.48-15.25-.84-22.8-1.13l-11.56,12.63-74.11,80.84Z"/>
      <path class="cls-32" d="M1120.36,2317.33v.07c-.05.45,0,.91.11,1.35.13.52.19,1.09.32,1.61.06.4.15.79.27,1.17.13.4.3.8.5,1.17.02.14.06.27.14.39.07.36.22.7.43,1,0,.13.07.2.14.33.08.07.13.16.15.26.59,1.06,1.29,2.07,2.07,3,.57.87,1.24,1.67,2,2.39.22.26.53.53.75.8.35.45.75.85,1.2,1.2,1.04,1.01,2.15,1.96,3.32,2.82.93.83,1.93,1.58,3,2.23l1,.68c.94.75,1.95,1.42,3,2,.38.27.79.5,1.22.69.91.55,1.83,1,2.74,1.58,2.22,1.31,4.59,2.55,7.11,3.74,1.38.69,2.91,1.39,4.45,2,1.22.56,2.53,1.12,3.83,1.69.55.27,1.11.51,1.69.7,2.84,1.14,5.84,2.28,8.91,3.42.39.15.85.29,1.23.44,2.16.78,4.39,1.58,6.7,2.37,1.61.51,3.23,1.09,4.92,1.6l2.32.67c1.69.58,3.39,1.09,5.16,1.61,1,.29,2,.59,3.08.88s2.32.67,3.48,1c.46.08,1,.23,1.54.38.93.29,1.85.52,2.86.82,2.7.68,5.48,1.43,8.33,2.11.7.16,1.39.38,2.09.53,3.48.84,6.95,1.68,10.59,2.46.61.15,1.23.31,1.85.4l5.34,1.16c.15,0,.23,0,.31.08,1.7.38,3.4.71,5.18,1.1,2.32.47,4.72.95,7.2,1.36,1.08.24,2.24.47,3.33.64,2.32.41,4.56.89,7,1.23l1.31.25h.16l.07.07c4,.73,8.14,1.4,12.4,2.08l1.63.26c3.25.51,6.51,1,9.84,1.47,2.48.41,5,.76,7.52,1.06,2.25.34,4.58.62,6.91.9v.07c.62.08,1.24.17,1.94.2,4,.54,8.07,1.08,12.26,1.5l4.81.57c3.34.38,6.68.77,10,1.09,5.67.6,11.34,1.08,17,1.62,3.81.33,7.54.61,11.35.88,6.37.57,12.75,1,19,1.38s12.37.73,18.52,1h.08c3,.18,5.92.29,8.87.4,3.51.14,6.93.27,10.36.34h.62c6.47.19,12.78.3,19.09.42h3.59c2.26.08,4.44,0,6.7.06h8.65c4.84,0,9.6,0,14.28-.16,1.79,0,3.59-.05,5.3-.05.63,0,1.25,0,1.88-.06,2.57-.09,5.15-.18,7.72-.21,3.2-.07,6.41-.21,9.53-.34,3.44-.13,6.87-.25,10.23-.44,3.91-.17,7.74-.41,11.49-.65l5.55-.36,5.47-.37c2-.18,3.91-.3,5.86-.41v-.03l1.41-.14,6-.53,5.87-.55c2-.18,4-.36,6-.6,1.09-.09,2.19-.17,3.21-.33l7.13-.88c.39-.01.78-.06,1.17-.14,1.17-.09,2.27-.24,3.45-.38l4.54-.6,9.26-1.37c1.33-.21,2.67-.48,4-.68l5.65-.94c.11.01.21,0,.31-.05,1.26-.21,2.59-.42,3.85-.69,1.8-.31,3.54-.7,5.26-1,1.26-.21,2.44-.49,3.7-.76,2.12-.43,4.24-.86,6.29-1.36q.07.07.15,0c.4-.06.79-.16,1.18-.28.71-.16,1.5-.33,2.13-.49,3.22-.78,6.37-1.56,9.37-2.4s5.83-1.64,8.59-2.49c1.11-.34,2.29-.68,3.32-1.09,1.26-.4,2.52-.8,3.71-1.27.71-.23,1.35-.53,2.06-.82,1.66-.58,3.32-1.22,4.91-1.86,1.27-.53,2.53-1.06,3.72-1.59.9-.38,1.78-.82,2.63-1.31l2.14-1.07c1.27-.66,2.47-1.38,3.67-2,.58-.29,1.14-.62,1.67-1,.81-.54,1.6-1,2.32-1.51.75-.49,1.48-1.01,2.17-1.58.76-.58,1.49-1.19,2.18-1.84,1-.93,1.86-1.79,2.67-2.72,1.49-1.58,2.68-3.43,3.49-5.45.4-.89.7-1.83.88-2.79.18-.65.29-1.32.32-2v-.19c.41-8.58-7.44-17.35-22.25-25.61-9.77-5.44-22.51-10.74-37.91-15.7-5.93-1.89-12.18-3.67-18.89-5.47-11.66-3.14-24.39-6.07-38.18-8.78-6.12-1.2-12.47-2.34-19.05-3.43-12.09-2.07-24.86-3.95-38.31-5.64-6.2-.82-12.57-1.58-19-2.21-2-.27-4-.48-6.14-.68-10.71-1.12-21.52-2.05-32.25-2.85-3.65-.27-7.38-.54-11-.75l-8-.5c-12.91-.81-25.76-1.31-38.46-1.61-6.46-.18-12.77-.29-19.08-.41-13.1-.12-26,0-38.53.31-6.48.14-12.81.34-19.13.61-13.33.58-26.21,1.43-38.62,2.56-6.57.51-13,1.16-19.25,1.88-13.86,1.52-26.8,3.4-38.66,5.63-6.83,1.21-13.27,2.57-19.33,4.07-15.9,3.75-29.09,8.24-39,13.31-3.76,1.82-7.32,4.02-10.63,6.58-6.65,5.11-9.74,10.44-9.56,15.77Z"/>
      <path class="cls-14" d="M1178.08,2319.73c-.01.36.02.72.08,1.07.11.41.15.86.26,1.27.01.32.08.63.21.92.11.32.24.62.39.92-.06.1,0,.2.11.3.05.3.17.58.34.82.1.14.18.3.23.47.46.84,1.01,1.64,1.62,2.38.46.68.99,1.31,1.59,1.88.16.24.36.45.59.63.27.35.59.67.94.94.82.8,1.69,1.54,2.61,2.22.74.66,1.54,1.25,2.39,1.76.23.22.49.4.78.53.73.58,1.51,1.1,2.33,1.55.31.22.65.4,1,.55.72.43,1.44.81,2.16,1.24,1.74,1.03,3.6,2.01,5.59,2.94,1.09.55,2.29,1.1,3.5,1.6,1,.44,2,.88,3,1.32.43.22.87.41,1.32.56,4.05,1.67,8.47,3.31,13.25,4.9,1.27.4,2.54.85,3.88,1.26,1.94.63,3.88,1.21,5.88,1.79l2.43.7c.9.28,1.82.52,2.73.76,1.15.35,2.3.64,3.46.94,5.22,1.41,10.75,2.73,16.53,4,1.94.47,3.89.85,5.9,1.28,1.34.31,2.68.56,4.08.87,1.82.37,3.71.74,5.66,1.07l1.83.38c2.07.38,4.14.76,6.27,1.09.38.12.77.19,1.16.2h.06c7.86,1.36,16.09,2.69,24.69,3.83,1.77.27,3.61.49,5.44.71v.05c.5.08,1.01.14,1.52.16,4.4.58,8.85,1.15,13.44,1.63,2.62.3,5.25.61,7.88.86,4.82.49,9.65.93,14.48,1.36,2.63.26,5.2.46,7.83.61,5,.44,10,.79,15,1.08s9.79.58,14.63.76c2.33.15,4.65.23,7,.32,2.76.11,5.45.21,8.15.27h.49c5.09.14,10,.23,15,.32,2.69.06,5.39.06,8.09.06h12.46c3.25,0,6.5-.11,9.75-.13.62,0,1.23-.05,1.85,0,1.9-.08,3.8-.16,5.71-.19,2.52,0,5-.15,7.49-.26,2.7-.1,5.41-.2,8.05-.35,3.07-.13,6.09-.32,9-.51l8.67-.57c1.6-.14,3.08-.24,4.61-.33h0c3.56-.26,7.07-.58,10.46-1,1.6-.14,3.14-.28,4.68-.47.86-.07,1.72-.14,2.53-.26,3.14-.33,6.22-.72,9.24-1.11,3.7-.51,7.34-1,10.86-1.55,2.59-.4,5.12-.81,7.59-1.27.08.02.17.02.25,0,1-.16,2-.32,3-.54,4.2-.74,8.16-1.55,12-2.46q.06.05.12,0c.34-.04.68-.13,1-.26,1.8-.38,3.59-.82,5.33-1.26,3.65-.92,7.13-1.89,10.35-2.93.88-.27,1.8-.53,2.62-.86,1-.31,2-.63,2.92-1,1.92-.69,3.73-1.37,5.48-2.11,1-.42,2-.83,2.93-1.25.71-.29,1.4-.62,2.06-1l1.69-.85c1-.51,1.94-1.08,2.88-1.6.44-.24.88-.52,1.32-.81.63-.43,1.26-.81,1.83-1.19.59-.38,1.15-.8,1.7-1.24.63-.49,1.2-1,1.71-1.45.77-.73,1.47-1.41,2.11-2.14,1.17-1.24,2.1-2.7,2.74-4.28.32-.7.55-1.44.7-2.2.13-.51.22-1.03.24-1.55.39-6.8-5.79-13.75-17.5-20.3-7.68-4.28-17.71-8.45-29.83-12.35-4.66-1.49-9.58-2.89-14.86-4.31-9.17-2.47-19.17-4.77-30-6.9-4.81-.95-9.81-1.85-15-2.7-9.51-1.63-19.58-3.12-30.14-4.44-4.88-.64-9.89-1.24-15-1.74-1.59-.21-3.18-.37-4.83-.54-8.43-.88-16.93-1.61-25.37-2.23-5-.4-10-.69-15-1-10.16-.64-20.26-1-30.25-1.26-5.09-.15-10.05-.24-15-.33-10.3-.09-20.43,0-30.31.25-5.1.11-10.07.27-15,.48-10.51.45-20.63,1.12-30.38,2-5.17.4-10.22.92-15.15,1.48-10.9,1.2-21.08,2.67-30.41,4.43-5.38.96-10.45,2.03-15.21,3.2-12.51,2.95-22.89,6.48-30.71,10.47-2.96,1.44-5.76,3.17-8.36,5.18-5.13,4.03-7.57,8.27-7.42,12.46Z"/>
      <path class="cls-13" d="M1116.38,2402.66v.7c.03,1.09.17,2.17.43,3.23.07.13,0,.32.06.45s.07.19.07.26c.35,1.15.8,2.26,1.35,3.32.05.05.08.12.07.19.15.14.27.3.37.47.54.93,1.13,1.83,1.77,2.69.12.14.22.29.29.46.15.14.23.27.38.34.89,1.14,1.87,2.2,2.92,3.19v.07c.15.13.3.2.38.27,1.04,1.04,2.15,2,3.32,2.88l.45.4.68.41c1.26,1.01,2.58,1.94,3.95,2.79.15.13.22.26.46.33,0,.07.07.07.15.07.61.41,1.29.82,2,1.23,1.06.69,2.13,1.31,3.28,1.93.19.14.39.25.61.34.27.18.55.34.84.48,1.83,1,3.66,1.94,5.65,2.91.24.08.39.21.62.28.06.05.15.08.23.08,2.37,1.11,4.83,2.23,7.43,3.36.29.09.58.21.85.35.23.08.53.22.84.36,2.84,1.13,5.76,2.27,8.91,3.42.12.07.25.12.39.14.28.12.56.22.85.29,2.38.86,4.84,1.73,7.38,2.59l4.16,1.32c.15.07.23.07.31.14l2.16.66c1.61.51,3.31,1,5.08,1.54,1,.3,2.09.59,3.09.89l4.16,1.12.78.22c.45.16.91.29,1.38.38l1.55.44c2.7.68,5.48,1.43,8.26,2.11.77.16,1.46.38,2.16.54,3.48.84,6.95,1.68,10.59,2.46.31.07.54.15.85.22.34.03.67.09,1,.17,3.79.85,7.58,1.64,11.53,2.43,2.17.4,4.33.87,6.5,1.28.7.15,1.39.24,2.09.4,3.4.64,6.89,1.29,10.45,1.88l8.91,1.49,1.16.24c.24,0,.55.09.86.1,5.58.92,11.31,1.78,17.13,2.58.85.1,1.78.26,2.64.36,2.48.35,5,.71,7.6,1,3.34.45,6.83.9,10.24,1.29.46.09.93.15,1.4.18.62.1,1.24.17,1.86.2,1.87.2,3.65.4,5.51.66,3,.31,6.14.69,9.32,1,4.89.51,9.87,1,14.76,1.4.31,0,.7.1,1,.11.78.09,1.63.12,2.41.22,3.65.27,7.23.6,10.88.87,1.17.11,2.41.15,3.58.26.86,0,1.71.13,2.56.23s1.56.06,2.34.15c3.58.21,7.07.47,10.58.67h.31c1.17,0,2.25.15,3.42.2.33.06.66.1,1,.1,4.36.23,8.71.46,13,.63.46,0,.93.1,1.32.11h.15l14.8.57c1.16,0,2.33,0,3.5.07h.94c3,.06,6.07.17,9.11.23h5.22c1.56,0,3.2.06,4.76.05,1.4.06,2.72.05,4.13.1h19.55c3,0,5.92,0,8.81-.11l3.36-.06h1.79c.31,0,.55-.05.86,0l8.82-.24,3.35-.06c.26-.04.53-.04.79,0,2.1-.11,4.13-.16,6.17-.28l7.41-.29c.11.02.22,0,.32-.05.6.02,1.2,0,1.79-.06,3.91-.23,7.74-.41,11.49-.65.47,0,1,0,1.49-.07.93-.09,1.79-.12,2.73-.21,3.28-.2,6.57-.45,9.85-.71.86-.1,1.72-.13,2.51-.16.33-.06.66-.09,1-.09.23-.07.47-.1.71-.1,4.61-.4,9.14-.8,13.61-1.21.08,0,.08-.06.16-.06h.08c1.56-.13,3.13-.32,4.69-.46,3.29-.38,6.5-.77,9.64-1.16.62,0,1.17-.09,1.8-.19.47-.05.94-.16,1.41-.2,5.17-.64,10.27-1.34,15.21-2.11.25-.07.52-.1.78-.1,1.1-.21,2.12-.37,3.22-.58l5.65-.94,1-.15c1-.15,2-.37,3.14-.58,1.81-.32,3.54-.7,5.27-1,.54-.11,1-.15,1.49-.26l2.2-.5c2.12-.43,4.24-.86,6.29-1.36.31-.05.63-.1.86-.16.87-.22,1.81-.37,2.6-.6,2-.5,4.09-1,6.06-1.56,1-.22,2-.5,2.92-.72,2.59-.67,5-1.41,7.41-2.16.32-.06.64-.15.94-.28,2.69-.79,5.21-1.66,7.66-2.53.72-.23,1.35-.52,2.06-.82,1.66-.57,3.32-1.21,4.91-1.86.79-.35,1.59-.71,2.3-1.06s1.43-.59,2.14-.95l1.91-.89,2.14-1.07c1.28-.65,2.47-1.38,3.67-2,.56-.36,1.12-.66,1.68-1,1.6-1,3.12-2.06,4.48-3.1,6.19-4.89,9.27-9.9,9.54-15l4-86c-.03.68-.14,1.35-.32,2-.18.96-.48,1.9-.88,2.79-.87,1.99-2.05,3.83-3.49,5.45-.81.93-1.7,1.79-2.67,2.72-.69.65-1.42,1.26-2.18,1.84-.69.57-1.42,1.09-2.17,1.58-.72.49-1.51,1-2.32,1.51-.53.38-1.09.71-1.67,1-1.2.66-2.4,1.38-3.67,2l-2.14,1.07c-.88.42-1.75.83-2.62,1.18-.46.24-.94.46-1.43.65-.72.36-1.51.71-2.3,1.07-1.59.64-3.25,1.28-4.91,1.86-.71.29-1.35.59-2.06.82-1.19.47-2.45.87-3.71,1.27-1,.41-2.21.75-3.32,1.09l-3.55,1c-1.57.51-3.23,1-5,1.47-3,.84-6.15,1.62-9.37,2.4-.63.16-1.42.33-2.13.49-.39.05-.78.16-1.18.21v.07q-.08.06-.15,0c-2,.5-4.17.93-6.29,1.36-1.26.27-2.44.55-3.7.76-1.72.31-3.46.7-5.26,1-1.26.27-2.59.48-3.85.69-.1.05-.2.06-.31.05l-5.65.94c-1.33.2-2.67.47-4,.68l-9.26,1.37-4.54.6c-.78,0-1.49.13-2.27.23l-1.18.15c-.39.08-.78.13-1.17.14l-7.13.88c-1,.16-2.12.24-3.21.33-2,.24-3.92.42-6,.6l-5.87.55-6,.53-1.41.14c-.94,0-1.88.12-2.74.22-1,.09-2,.18-3.13.26l-5.47.37-5.55.36c-3.75.24-7.58.48-11.49.65-3.36.19-6.79.31-10.23.44-3.12.13-6.33.27-9.53.34-2.57,0-5.15.12-7.72.21-.63,0-1.25,0-1.88.06-1.71,0-3.51.06-5.3.05-4.68.14-9.44.15-14.28.16h-8.65c-2.26,0-4.44,0-6.7-.06h-3.59c-6.31-.12-12.62-.23-19.09-.42h-.62c-1.24-.05-2.49,0-3.74-.08l-14.17-.55c-.46,0-.85-.09-1.32-.11h-.04c-6.15-.24-12.29-.61-18.52-1s-12.68-.81-19-1.38c-3.81-.27-7.54-.55-11.35-.88l-17-1.62c-3.34-.32-6.68-.71-10-1.09l-4.81-.57c-4.19-.42-8.3-1-12.26-1.5l-1.94-.27c-2.33-.28-4.66-.56-6.91-.9-2.56-.3-5-.65-7.52-1.06-3.33-.45-6.59-1-9.84-1.47l-1.63-.26-2.79-.49c-3.26-.51-6.43-1.08-9.61-1.59v-.06h-.24l-1.31-.25c-2.33-.34-4.67-.75-7-1.23-1.09-.17-2.25-.4-3.33-.64l-7.2-1.43c-1.78-.32-3.48-.71-5.18-1-.08-.07-.16-.07-.31-.08l-5.34-1.16c-.62-.09-1.24-.25-1.85-.4-3.64-.78-7.11-1.62-10.59-2.46-.7-.15-1.39-.37-2.09-.53-2.85-.68-5.63-1.43-8.33-2.11-1-.3-1.93-.53-2.86-.82-.54-.15-1.08-.3-1.54-.38v-.06l-3.48-.91c-1.07-.29-2.08-.59-3.08-.88-1.77-.52-3.47-1-5.16-1.61l-2.32-.67c-1.69-.51-3.31-1.09-4.92-1.6-2.31-.79-4.54-1.59-6.7-2.37-.38-.15-.84-.29-1.23-.44-3.07-1.14-6.07-2.28-8.91-3.42-.58-.19-1.14-.43-1.69-.7-1.3-.57-2.61-1.13-3.83-1.69s-2.45-1.12-3.6-1.68c-.29-.09-.58-.2-.85-.35-2.52-1.19-4.89-2.43-7.11-3.74-.91-.55-1.83-1-2.74-1.58-.42-.23-.83-.48-1.22-.75-.46-.27-.91-.55-1.29-.82-.22-.12-.42-.25-.61-.41-.38-.18-.74-.41-1.07-.68l-1-.68c-.69-.48-1.29-1-1.9-1.42l-1.14-.81c-1.17-.86-2.28-1.81-3.32-2.82-.14-.11-.27-.25-.37-.4-.3-.25-.57-.51-.83-.8-.22-.27-.53-.54-.75-.8-.49-.49-.94-1.03-1.34-1.59l-.67-.8c-.65-.86-1.24-1.76-1.77-2.7-.08-.13-.18-.24-.3-.33-.02-.1-.07-.19-.15-.26-.07-.13-.14-.2-.14-.33-.19-.31-.34-.65-.43-1-.08-.12-.12-.25-.14-.39-.2-.37-.37-.77-.5-1.17-.12-.38-.21-.77-.27-1.17-.13-.52-.19-1.09-.32-1.61-.12-.44-.16-.9-.11-1.35l-4.01,85.19Z"/>
      <path class="cls-14" d="M1598.49,2376l-3.31,86.12c.87-.22,1.81-.37,2.6-.6,2-.5,4.09-1,6.06-1.56,1-.22,2-.5,2.92-.72,2.59-.67,5-1.41,7.41-2.16.32-.06.64-.15.94-.28,2.69-.79,5.21-1.66,7.66-2.53.72-.23,1.35-.52,2.06-.82,1.66-.57,3.32-1.21,4.91-1.86.79-.35,1.59-.71,2.3-1.06s1.43-.59,2.14-.95l3.31-85.93c-.46.24-.94.46-1.43.65-.72.36-1.51.71-2.3,1.07-1.59.64-3.25,1.28-4.91,1.86-.71.29-1.35.59-2.06.82-1.19.47-2.45.87-3.71,1.27-2.13.75-4.5,1.43-6.87,2.11-1.57.51-3.23,1-5,1.47-3,.84-6.15,1.62-9.37,2.4-1.07.23-2.25.44-3.35.7Z"/>
      <path class="cls-14" d="M1540.52,2385.2l-3.32,86.18c3.29-.38,6.5-.77,9.64-1.16.62,0,1.17-.09,1.8-.19.47-.05.94-.16,1.41-.2,5.17-.64,10.27-1.34,15.21-2.11.25-.07.52-.1.78-.1,1.1-.21,2.12-.37,3.22-.58l5.65-.94,1-.15,3.31-86.12c-.1.05-.2.06-.31.05l-5.65.94c-1.33.2-2.67.47-4,.68l-9.26,1.37c-2.19.3-4.54.53-6.81.83-.79.1-1.57.26-2.35.29l-7.13.88c-1,.13-2.1.24-3.19.33Z"/>
      <path class="cls-14" d="M1482.66,2389.32l-3.31,86.18,7.41-.29c.11.02.22,0,.32-.05.6.02,1.2,0,1.79-.06,3.91-.23,7.74-.41,11.49-.65.47,0,1,0,1.49-.07.93-.09,1.79-.12,2.73-.21,3.28-.2,6.57-.45,9.85-.71.86-.1,1.72-.13,2.51-.16.33-.06.66-.09,1-.09l3.32-86.19c-.94,0-1.88.12-2.74.22-2.82.21-5.79.41-8.6.63l-5.55.36c-3.75.24-7.58.48-11.49.65-3.35.19-6.78.31-10.22.44Z"/>
      <path class="cls-14" d="M1425,2390.05l-3.31,86.18c1.4.06,2.72.05,4.13.1h19.55c3,0,5.92,0,8.81-.11l3.36-.06h1.79c.31,0,.55-.05.86,0l3.31-86.19c-1.71,0-3.51.06-5.3.05-4.68.14-9.44.15-14.28.16h-8.65c-3.4-.06-6.83-.06-10.27-.13Z"/>
      <path class="cls-14" d="M1367.47,2387.9l-3.31,86.25h.31c1.17,0,2.25.15,3.42.2.33.06.66.1,1,.1,4.36.23,8.71.46,13,.63.46,0,.93.1,1.32.11h.15l14.8.57c1.16,0,2.33,0,3.5.07h.94l3.31-86.25h-.38c-1.33,0-2.66,0-4-.09l-14.17-.55c-.46,0-.93-.1-1.4-.11-6.12-.2-12.26-.57-18.49-.93Z"/>
      <path class="cls-14" d="M1310,2382.93l-3.32,86.31c3,.31,6.14.69,9.32,1,4.89.51,9.87,1,14.76,1.4.31,0,.7.1,1,.11.78.09,1.63.12,2.41.22,3.65.27,7.23.6,10.88.87l3.32-86.32c-9.41-.68-18.88-1.56-28.36-2.5-3.29-.32-6.63-.71-10.01-1.09Z"/>
      <path class="cls-14" d="M1252.73,2374.82l-3.32,86.32,8.91,1.49,1.16.24c.24,0,.55.09.86.1,5.58.92,11.31,1.78,17.13,2.58.85.1,1.78.26,2.64.36,2.48.35,5,.71,7.6,1l3.32-86.32c-2.33-.28-4.66-.56-6.91-.9-2.56-.3-5-.65-7.52-1.06-3.33-.45-6.59-1-9.84-1.47l-4.42-.75c-3.26-.51-6.43-1.08-9.61-1.59Z"/>
      <path class="cls-14" d="M1195.6,2362.23l-3.33,86.38.78.22c.45.16.91.29,1.38.38l1.55.44c2.7.68,5.48,1.43,8.26,2.11.77.16,1.46.38,2.16.54,3.48.84,6.95,1.68,10.59,2.46.31.07.54.15.85.22.34.03.67.09,1,.17,3.79.85,7.58,1.64,11.53,2.43l3.32-86.38c-1.78-.32-3.48-.71-5.18-1-.08-.07-.16-.07-.31-.08l-5.34-1.16c-.62-.09-1.24-.25-1.85-.4-3.64-.78-7.11-1.62-10.59-2.46-.7-.15-1.39-.37-2.09-.53-2.85-.68-5.63-1.43-8.33-2.11-1-.3-1.93-.53-2.86-.82-.54-.18-1.08-.33-1.54-.41Z"/>
      <path class="cls-14" d="M1138.76,2339.78l-3.33,86.63c1.06.69,2.13,1.31,3.28,1.93.19.14.39.25.61.34.27.18.55.34.84.48,1.83,1,3.66,1.94,5.65,2.91.24.08.39.21.62.28.06.05.15.08.23.08,2.37,1.11,4.83,2.23,7.43,3.36.29.09.58.21.85.35.23.08.53.22.84.36,2.84,1.13,5.76,2.27,8.91,3.42.12.07.25.12.39.14.28.12.56.22.85.29,2.38.86,4.84,1.73,7.38,2.59l3.33-86.44c-2.31-.79-4.54-1.59-6.7-2.37-.38-.15-.84-.29-1.23-.44-3.07-1.14-6.07-2.28-8.91-3.42-.58-.19-1.14-.43-1.69-.7-1.3-.57-2.61-1.13-3.83-1.69s-2.45-1.12-3.6-1.68c-.29-.09-.58-.2-.85-.35-2.52-1.19-4.89-2.43-7.11-3.74-.91-.55-1.83-1-2.74-1.58-.42-.23-.83-.48-1.22-.75Z"/>
      <path class="cls-32" d="M1560.88,2243.14l-.05.05c-.32.32-.58.7-.77,1.11-.22.49-.55,1-.77,1.46-.21.34-.38.7-.53,1.07-.15.4-.26.81-.35,1.23-.08.11-.13.25-.14.39-.19.33-.3.7-.33,1.08-.08.09-.06.19-.09.34.03.1.03.2,0,.3-.22,1.2-.32,2.43-.32,3.65-.11,1.04-.11,2.08,0,3.12,0,.35.07.75.08,1.1-.02.57.04,1.14.17,1.69.17,1.44.43,2.87.79,4.28.19,1.24.51,2.47.94,3.65.12.45.23.8.33,1.15.26,1.16.62,2.3,1.05,3.41.13.45.3.89.51,1.31.36,1,.77,1.95,1.13,3,.89,2.41,1.94,4.88,3.14,7.39.63,1.41,1.37,2.92,2.16,4.39.6,1.21,1.25,2.47,1.91,3.73.24.56.53,1.1.86,1.61,1.48,2.68,3.08,5.46,4.74,8.29.2.36.47.76.68,1.12,1.17,2,2.39,4,3.68,6.07.93,1.42,1.82,2.89,2.8,4.36l1.38,2c.94,1.52,1.93,3,3,4.52l1.82,2.64c.67,1,1.38,2,2.08,2.94.31.36.63.82,1,1.27.53.82,1.1,1.58,1.69,2.44,1.67,2.24,3.34,4.58,5.12,6.92.45.56.84,1.17,1.28,1.73,2.17,2.85,4.33,5.7,6.65,8.6.37.51.77,1.01,1.19,1.48l3.39,4.28c.12.11.18.16.19.26,1.08,1.37,2.19,2.7,3.32,4.13,1.5,1.83,3.06,3.72,4.72,5.61.69.87,1.44,1.79,2.17,2.61,1.54,1.79,3,3.57,4.62,5.36l.87,1,.11.1v.1c2.65,3.12,5.41,6.24,8.28,9.46l1.1,1.23c2.2,2.45,4.4,4.91,6.7,7.37,1.66,1.89,3.36,3.73,5.16,5.58,1.52,1.69,3.15,3.38,4.77,5.07h0c.43.49.9.95,1.38,1.39,2.72,2.92,5.56,5.94,8.55,8.92l3.36,3.48c2.34,2.41,4.69,4.83,7.07,7.19,4,4.05,8.1,8,12.16,12,2.73,2.67,5.45,5.24,8.23,7.87,4.57,4.47,9.24,8.84,13.88,13.12s9.12,8.4,13.73,12.47l.06.05c2.18,2,4.4,4,6.62,5.93,2.63,2.33,5.2,4.6,7.81,6.82l.47.41c4.89,4.23,9.7,8.32,14.52,12.4.87.78,1.85,1.55,2.77,2.28,1.69,1.5,3.41,2.84,5.15,4.29,2.25,1.82,4.45,3.68,6.69,5.49,3.75,3.06,7.44,6.06,11.16,8.91,1.39,1.14,2.81,2.23,4.14,3.32.51.37,1,.78,1.49,1.14,2,1.56,4.11,3.12,6.12,4.73,2.52,2,5.09,3.89,7.59,5.76,2.74,2.08,5.48,4.16,8.2,6.14,3.14,2.34,6.25,4.58,9.31,6.77l4.53,3.23,4.47,3.18c1.69,1.15,3.22,2.24,4.8,3.39v-.05l1.17.78,5,3.4,4.89,3.29c1.69,1.15,3.32,2.25,5,3.3.9.63,1.8,1.25,2.69,1.78l6.08,3.83c.32.24.65.45,1,.63,1,.68,1.91,1.26,2.91,1.88l3.9,2.42c2.71,1.63,5.37,3.21,8,4.79,1.17.69,2.37,1.32,3.53,2l5,2.85c.08.08.17.13.28.16,1.1.63,2.26,1.32,3.41,1.9,1.6.9,3.18,1.7,4.72,2.55,1.1.63,2.19,1.16,3.34,1.75,1.91,1,3.83,2,5.73,2.93q0,.1.12.1c.35.2.71.38,1.08.53.66.32,1.37.7,2,1,3,1.45,5.92,2.84,8.78,4.08s5.55,2.42,8.23,3.51c1.07.43,2.2.92,3.26,1.25,1.23.49,2.46,1,3.67,1.37.7.27,1.38.45,2.12.67,1.65.6,3.34,1.16,5,1.66,1.32.39,2.64.79,3.89,1.13.94.27,1.89.49,2.86.65l2.34.52c1.4.3,2.79.5,4.13.74.64.15,1.29.24,1.95.27,1,.08,1.89.22,2.75.3.89.09,1.78.14,2.68.14.95.04,1.9.02,2.85-.05,1.34-.1,2.57-.2,3.79-.41,2.15-.27,4.24-.95,6.14-2,.88-.43,1.7-.97,2.45-1.6.55-.39,1.05-.83,1.49-1.33l.13-.15c5.74-6.38,5.2-18.14-1.05-33.91-4.12-10.4-10.64-22.57-19.44-36.16-3.4-5.22-7.11-10.55-11.17-16.19-7.04-9.81-15.04-20.15-24-31-4-4.79-8.2-9.69-12.59-14.71-8-9.25-16.76-18.82-26.1-28.61-4.29-4.56-8.74-9.17-13.34-13.75-1.39-1.48-2.82-2.92-4.31-4.41-7.6-7.65-15.38-15.2-23.18-22.61-2.66-2.52-5.38-5.1-8.08-7.57l-5.89-5.46c-9.49-8.8-19.12-17.32-28.77-25.58-4.89-4.24-9.71-8.32-14.52-12.4-10.07-8.38-20.13-16.42-30-24.15-5.11-4-10.13-7.84-15.2-11.63-10.71-8-21.22-15.49-31.53-22.46-5.41-3.76-10.8-7.32-16.1-10.73-11.7-7.59-22.9-14.33-33.5-20.1-6.06-3.39-11.91-6.42-17.55-9.09-14.68-7.16-27.74-12-38.65-14.39-4.06-.97-8.21-1.52-12.38-1.63-8.51-.18-14.28,2-17.5,6.24Z"/>
      <path class="cls-14" d="M1604.06,2281.53c-.23.27-.44.56-.61.87-.18.39-.43.77-.6,1.15-.19.25-.33.54-.42.84-.12.32-.22.66-.28,1-.11,0-.13.15-.11.31-.15.26-.24.54-.26.84,0,.17-.05.35-.11.51-.17.95-.25,1.91-.25,2.87-.09.82-.09,1.64,0,2.46-.02.29,0,.58.06.86-.02.45.03.9.14,1.33.13,1.14.34,2.26.62,3.37.15.98.4,1.94.73,2.87.03.32.12.63.27.91.2.91.48,1.81.82,2.68.1.35.24.68.41,1,.28.79.6,1.55.88,2.34.67,1.89,1.49,3.82,2.48,5.81.49,1.11,1.07,2.3,1.69,3.45.47,1,1,2,1.5,2.94.2.44.42.86.68,1.27,2.08,3.85,4.47,7.91,7.16,12.18.73,1.11,1.43,2.27,2.21,3.43,1.1,1.71,2.24,3.39,3.42,5.1.47.68.93,1.36,1.44,2.08s1.08,1.56,1.63,2.32c.68,1,1.38,2,2.09,2.92,3.15,4.4,6.6,8.92,10.26,13.57,1.21,1.6,2.48,3.13,3.76,4.73.84,1.09,1.72,2.13,2.61,3.25,1.18,1.45,2.41,2.93,3.71,4.42.39.48.79,1,1.18,1.45,1.36,1.6,2.72,3.21,4.16,4.82.22.33.48.62.78.88v.08c5.23,6,10.76,12.27,16.71,18.6,1.2,1.32,2.48,2.66,3.76,4h0c.34.37.67.73,1.08,1.1,3,3.22,6.13,6.49,9.38,9.76,1.84,1.89,3.68,3.79,5.56,5.65,3.43,3.43,6.89,6.83,10.36,10.22,1.87,1.86,3.74,3.64,5.68,5.43,3.6,3.52,7.27,7,10.92,10.32s7.22,6.65,10.85,9.85c1.72,1.58,3.46,3.13,5.21,4.67,2.07,1.83,4.09,3.61,6.14,5.36l.37.33c3.85,3.33,7.64,6.54,11.43,9.75,2,1.75,4.14,3.46,6.23,5.17,1.77,1.43,3.5,2.89,5.27,4.32,1.49,1.18,3,2.4,4.39,3.54,2.53,2,5.1,4,7.64,6.08.49.37,1,.74,1.44,1.14,1.53,1.15,3,2.29,4.54,3.47,2,1.56,4,3.07,6,4.54,2.15,1.64,4.31,3.27,6.45,4.83,2.46,1.84,4.92,3.6,7.32,5.32l7.08,5c1.33.9,2.53,1.76,3.78,2.66h0c2.93,2.05,5.85,4,8.71,5.88,1.33.9,2.61,1.76,3.92,2.59.71.49,1.42,1,2.12,1.4,2.64,1.73,5.28,3.38,7.86,5,3.19,1.95,6.3,3.89,9.39,5.67,2.26,1.33,4.48,2.62,6.68,3.82,0,0,.14.13.22.13.87.5,1.78,1,2.69,1.5,3.72,2.08,7.3,4,10.85,5.68q0,.08.09.08c.31.2.65.36,1,.46,1.63.84,3.3,1.64,4.92,2.4,3.41,1.6,6.72,3,9.87,4.28.85.35,1.73.73,2.57,1s1.93.77,2.89,1.08c1.92.69,3.76,1.3,5.58,1.83,1,.31,2.07.62,3.06.89.74.22,1.49.39,2.25.51l1.84.41c1.1.24,2.19.39,3.25.58.51.1,1.02.17,1.53.21.76.07,1.48.17,2.16.24.7.07,1.41.11,2.11.11.75.05,1.49.05,2.24,0,1-.08,2-.16,3-.32,1.69-.22,3.33-.76,4.83-1.58.69-.34,1.33-.77,1.92-1.26.43-.31.83-.66,1.18-1.05,4.59-5,4.2-14.31-.73-26.8-3.24-8.18-8.37-17.75-15.29-28.44-2.67-4.11-5.6-8.3-8.79-12.74-5.54-7.72-11.84-15.84-18.9-24.36-3.13-3.78-6.44-7.64-9.91-11.58-6.33-7.27-13.18-14.8-20.53-22.51-3.37-3.58-6.88-7.22-10.49-10.81-1.09-1.17-2.22-2.3-3.4-3.47-6-6-12.09-12-18.23-17.79-3.64-3.48-7.34-6.89-11-10.25-7.47-6.93-15.05-13.63-22.64-20.13-3.84-3.33-7.63-6.54-11.42-9.76-7.92-6.59-15.84-12.91-23.64-19-4-3.14-8-6.17-12-9.15-8.43-6.3-16.7-12.19-24.81-17.68-4.26-2.95-8.48-5.76-12.67-8.43-9.2-6-18-11.28-26.35-15.82-4.77-2.67-9.37-5.05-13.81-7.15-11.55-5.63-21.82-9.46-30.4-11.32-3.2-.76-6.46-1.19-9.75-1.28-6.51-.18-11.07,1.57-13.61,4.91Z"/>
      <path class="cls-13" d="M1503.85,2306.71l-.47.53c-.66.86-1.24,1.78-1.71,2.76,0,.15-.21.24-.24.39s-.06.2-.11.24c-.43,1.11-.76,2.26-1,3.43.02.07-.01.15-.07.2.04.2.04.4,0,.59-.18,1.06-.29,2.13-.34,3.21.02.18,0,.37-.06.54,0,.17.03.34.08.5-.03,1.44.05,2.89.24,4.32h0c0,.2.11.35.12.45.16,1.46.41,2.9.75,4.33l.1.6.27.75c.35,1.58.78,3.13,1.3,4.66,0,.19.04.38.14.55,0,.05,0,.1.07.15.21.7.48,1.45.76,2.2.39,1.21.83,2.36,1.32,3.57.06.23.14.45.26.65.08.31.2.61.34.9.81,1.91,1.62,3.83,2.54,5.84.14.2.17.4.3.61.02.08.07.15.13.2,1.14,2.37,2.33,4.79,3.64,7.31.17.25.32.53.43.81.13.2.28.5.43.8,1.48,2.68,3,5.41,4.74,8.3.04.13.11.25.2.35.14.26.3.52.48.76,1.3,2.18,2.66,4.4,4.08,6.68l2.39,3.65c.06.1.11.2.15.31.4.6.85,1.26,1.25,1.87.93,1.42,1.93,2.89,3,4.42.59.86,1.24,1.77,1.83,2.64.83,1.17,1.67,2.33,2.51,3.5.14.21.33.46.46.66.25.41.54.8.84,1.17.27.41.59.87.91,1.32,1.67,2.24,3.34,4.58,5.07,6.87.49.61.89,1.22,1.34,1.78,2.16,2.85,4.32,5.7,6.64,8.61.19.25.32.45.52.71.24.24.47.49.67.76,2.39,3.06,4.83,6.07,7.39,9.18,1.42,1.69,2.8,3.42,4.23,5.1.44.56.92,1.08,1.36,1.64,2.23,2.65,4.52,5.36,6.91,8.07,2,2.25,3.93,4.5,6,6.8l.74.91c.18.16.37.41.6.62,3.74,4.24,7.64,8.54,11.64,12.84.6.62,1.22,1.33,1.82,2,1.7,1.84,3.46,3.74,5.26,5.58,2.29,2.46,4.71,5,7.11,7.49.31.36.64.69,1,1,.42.47.86.92,1.32,1.34,1.31,1.33,2.57,2.61,3.85,4,2.15,2.15,4.31,4.41,6.58,6.67,3.47,3.49,7,7,10.55,10.43.23.2.48.51.71.72.55.56,1.19,1.13,1.73,1.69,2.66,2.52,5.22,5,7.88,7.56.83.82,1.77,1.65,2.6,2.47.65.57,1.24,1.18,1.85,1.8s1.16,1,1.7,1.6c2.65,2.42,5.19,4.84,7.78,7.2l.23.21c.88.78,1.65,1.55,2.53,2.32.22.26.46.5.72.72,3.23,2.94,6.45,5.87,9.67,8.71.35.31.65.67,1,.93l.11.1,11.1,9.8c.88.78,1.8,1.5,2.67,2.28l.7.62c2.32,2,4.6,4,6.92,5.94l1,.87c1,.78,2,1.66,3,2.49,1.21,1,2.44,2.07,3.65,3,1,.93,2.08,1.76,3.13,2.69.47.41,1,.82,1.57,1.29.91.72,1.79,1.5,2.65,2.17,2.25,1.82,4.45,3.68,6.7,5.49.74.57,1.44,1.19,2.18,1.76s1.39,1.14,2.07,1.66c2.31,1.86,4.61,3.73,6.9,5.49l2.64,2.08c.47.41.92.73,1.39,1.14.23.2.45.31.68.52l7,5.39,2.64,2.08c.23.13.44.29.63.47,1.7,1.25,3.3,2.49,5,3.69l5.93,4.47c.08.08.17.13.28.16.45.39.92.76,1.42,1.09,3.18,2.29,6.25,4.58,9.31,6.77.39.26.8.62,1.19.88.79.52,1.48,1,2.26,1.57,2.67,1.92,5.37,3.8,8.08,5.68.73.47,1.41,1,2,1.46.29.17.57.36.84.57.22.1.42.22.61.37l11.31,7.68c.06.06.1,0,.16.06h.06c1.29.89,2.63,1.73,3.93,2.62,2.79,1.78,5.53,3.51,8.2,5.19.49.36.99.69,1.51,1,.39.26.83.48,1.22.74,4.41,2.78,8.8,5.46,13.11,8,.24.11.46.25.67.42,1,.53,1.88,1.06,2.86,1.59l5,2.85.89.53c.89.52,1.81,1,2.8,1.53,1.6.9,3.18,1.7,4.72,2.55.49.26.89.52,1.32.74.71.37,1.31.64,2,1,1.91,1,3.83,2,5.73,2.93l.77.42c.81.38,1.64.85,2.39,1.17,1.9.91,3.8,1.82,5.69,2.63.93.48,1.84.86,2.71,1.29,2.44,1.12,4.8,2.1,7.1,3,.29.15.6.28.91.38,2.58,1.08,5.09,2,7.53,2.89.7.27,1.38.45,2.12.67,1.65.6,3.34,1.16,5,1.66.84.23,1.68.46,2.46.63s1.48.45,2.26.63l2,.52,2.34.52c1.4.3,2.79.5,4.13.75.66.07,1.29.19,2,.26,1.89.22,3.72.38,5.43.44,7.89.13,13.44-1.8,16.85-5.54l57.49-64.1c-.44.5-.94.94-1.49,1.33-.75.63-1.57,1.17-2.45,1.6-1.93.99-4,1.66-6.14,2-1.22.21-2.45.31-3.79.41-.95.07-1.9.09-2.85.05-.9,0-1.79-.05-2.68-.14-.86-.08-1.79-.22-2.75-.3-.66-.03-1.31-.12-1.95-.27-1.34-.24-2.73-.44-4.13-.74l-2.34-.52c-.94-.24-1.87-.47-2.77-.75-.51-.1-1.02-.23-1.52-.4-.78-.17-1.62-.4-2.46-.63-1.63-.5-3.32-1.06-5-1.66-.74-.22-1.42-.4-2.12-.67-1.21-.39-2.44-.88-3.67-1.37-1.06-.33-2.19-.82-3.26-1.25l-3.39-1.46c-1.55-.6-3.16-1.25-4.84-2.05-2.86-1.24-5.79-2.63-8.78-4.08-.59-.26-1.3-.64-2-1-.33-.21-.71-.37-1-.58h0q-.1,0-.12-.1c-1.9-.91-3.82-1.92-5.73-2.93-1.15-.59-2.24-1.12-3.34-1.75-1.54-.85-3.12-1.65-4.72-2.55-1.15-.58-2.31-1.27-3.41-1.9-.11-.03-.2-.08-.28-.16l-5-2.85c-1.16-.69-2.36-1.32-3.53-2-2.66-1.58-5.32-3.16-8-4.79l-3.9-2.42c-.63-.46-1.24-.83-1.91-1.25l-1-.63c-.35-.18-.68-.39-1-.63l-6.08-3.83c-.89-.53-1.79-1.15-2.69-1.78-1.67-1-3.3-2.15-5-3.3l-4.89-3.29-5-3.4-1.17-.78c-.75-.57-1.53-1.1-2.26-1.57l-2.59-1.77-4.47-3.18-4.53-3.23c-3.06-2.19-6.17-4.43-9.31-6.77-2.72-2-5.46-4.06-8.2-6.14-2.5-1.87-5.07-3.79-7.59-5.76-2-1.61-4.07-3.17-6.12-4.73-.51-.36-1-.77-1.49-1.14-1.33-1.09-2.75-2.18-4.14-3.32-3.72-2.85-7.41-5.85-11.16-8.91-2.24-1.81-4.44-3.67-6.69-5.49-1.74-1.45-3.46-2.79-5.15-4.29-.92-.73-1.9-1.5-2.77-2.28-4.82-4.08-9.63-8.17-14.52-12.4l-.47-.41c-.93-.83-1.91-1.6-2.85-2.43l-10.63-9.39c-.35-.31-.6-.62-1-.93l-.06-.05c-4.61-4.07-9.14-8.25-13.73-12.47s-9.31-8.65-13.88-13.12c-2.78-2.63-5.5-5.2-8.23-7.87l-12.16-12c-2.38-2.36-4.73-4.78-7.07-7.19l-3.36-3.48c-3-3-5.83-6-8.55-8.92l-1.34-1.44c-1.62-1.69-3.25-3.38-4.77-5.07-1.8-1.85-3.5-3.69-5.16-5.58-2.3-2.46-4.5-4.92-6.7-7.37l-1.1-1.23-1.84-2.15c-2.2-2.45-4.3-4.9-6.44-7.31h0l-.06-.06-.11-.1-.87-1c-1.58-1.74-3.12-3.53-4.62-5.36-.73-.82-1.48-1.74-2.17-2.61-1.56-1.88-3.12-3.77-4.67-5.66-1.18-1.38-2.25-2.75-3.37-4.08,0-.1-.07-.15-.19-.26l-3.39-4.28c-.42-.47-.82-.97-1.19-1.48-2.32-2.9-4.48-5.75-6.65-8.6-.44-.56-.83-1.17-1.28-1.73-1.78-2.34-3.45-4.68-5.12-6.92-.59-.86-1.16-1.62-1.69-2.44-.33-.45-.65-.91-1-1.27v-.05l-2.12-2.89-1.82-2.64c-1-1.53-2-3-3-4.52l-1.38-2c-1-1.47-1.87-2.94-2.8-4.36-1.29-2.07-2.51-4.1-3.68-6.07-.21-.36-.48-.76-.68-1.12-1.66-2.83-3.26-5.61-4.74-8.29-.33-.51-.62-1.05-.86-1.61-.66-1.26-1.31-2.52-1.91-3.73s-1.19-2.42-1.73-3.58c-.17-.26-.31-.53-.43-.81-1.2-2.52-2.25-4.98-3.14-7.39-.36-1-.77-2-1.13-3-.16-.41-.34-.91-.47-1.36s-.36-1-.48-1.45c-.09-.23-.16-.46-.21-.7-.18-.39-.31-.79-.4-1.21-.1-.35-.21-.7-.33-1.15-.23-.8-.4-1.55-.57-2.3-.12-.45-.25-.9-.37-1.35-.36-1.41-.62-2.84-.79-4.28-.02-.18-.02-.37,0-.55-.07-.38-.11-.76-.13-1.14,0-.35-.07-.75-.08-1.1-.06-.69-.06-1.39,0-2.08v-1c.05-1.08.16-2.15.34-3.21.02-.15.02-.29,0-.44.03-.1.03-.2,0-.3,0-.15,0-.25.09-.34.06-.37.17-.74.33-1.08,0-.14.06-.28.14-.39.09-.42.2-.83.35-1.23.15-.37.32-.73.53-1.07.22-.49.55-1,.77-1.46.19-.41.45-.79.77-1.11l-57.19,63.68Z"/>
      <path class="cls-14" d="M1894.15,2591.15l-57,64.61c.81.38,1.64.85,2.39,1.17,1.9.91,3.8,1.82,5.69,2.63.93.48,1.84.86,2.71,1.29,2.44,1.12,4.8,2.1,7.1,3,.29.15.6.28.91.38,2.58,1.08,5.09,2,7.53,2.89.7.27,1.38.45,2.12.67,1.65.6,3.34,1.16,5,1.66.84.23,1.68.46,2.46.63s1.48.45,2.26.63l56.88-64.47c-.51-.1-1.02-.23-1.52-.4-.78-.17-1.62-.4-2.46-.63-1.63-.5-3.32-1.06-5-1.66-.74-.22-1.42-.4-2.12-.67-1.21-.39-2.44-.88-3.67-1.37-2.13-.77-4.39-1.74-6.65-2.71-1.55-.6-3.16-1.25-4.84-2.05-2.86-1.24-5.79-2.63-8.78-4.08-.98-.41-2.02-.99-3.01-1.52Z"/>
      <path class="cls-14" d="M1843.4,2561.62l-57.05,64.66c2.79,1.78,5.53,3.51,8.2,5.19.49.36.99.69,1.51,1,.39.26.83.48,1.22.74,4.41,2.78,8.8,5.46,13.11,8,.24.11.46.25.67.42,1,.53,1.88,1.06,2.86,1.59l5,2.85.89.53,57-64.61c-.11-.03-.2-.08-.28-.16l-5-2.85c-1.16-.69-2.36-1.32-3.53-2-2.66-1.58-5.32-3.16-8-4.79-1.89-1.16-3.86-2.46-5.81-3.67-.66-.42-1.38-.79-2-1.26l-6.08-3.83c-.91-.56-1.81-1.18-2.71-1.81Z"/>
      <path class="cls-14" d="M1796,2528.19l-57,64.66,5.93,4.47c.08.08.17.13.28.16.45.39.92.76,1.42,1.09,3.18,2.29,6.25,4.58,9.31,6.77.39.26.8.62,1.19.88.79.52,1.48,1,2.26,1.57,2.67,1.92,5.37,3.8,8.08,5.68.73.47,1.41,1,2,1.46.29.17.57.36.84.57l57.06-64.65c-.75-.57-1.53-1.1-2.26-1.57l-7.06-5-4.53-3.23c-3.06-2.19-6.17-4.43-9.31-6.77-2.75-1.93-5.49-4.01-8.21-6.09Z"/>
      <path class="cls-14" d="M1750.87,2492.27l-57,64.66c1,.93,2.08,1.76,3.13,2.69.47.41,1,.82,1.57,1.29.91.72,1.79,1.5,2.65,2.17,2.25,1.82,4.45,3.68,6.7,5.49.74.57,1.44,1.19,2.18,1.76s1.39,1.14,2.07,1.66c2.31,1.86,4.61,3.73,6.9,5.49l2.64,2.08c.47.41.92.73,1.39,1.14.23.2.45.31.68.52l57-64.66c-1.33-1.09-2.75-2.18-4.14-3.32-3.72-2.85-7.41-5.85-11.16-8.91-2.24-1.81-4.44-3.67-6.69-5.49-2.65-2.17-5.31-4.35-7.92-6.57Z"/>
      <path class="cls-14" d="M1707.66,2454.19l-57.09,64.7.23.21c.88.78,1.65,1.55,2.53,2.32.22.26.46.5.72.72,3.23,2.94,6.45,5.87,9.67,8.71.35.31.65.67,1,.93l.11.1,11.1,9.8c.88.78,1.8,1.5,2.67,2.28l.7.62,57.1-64.71-.3-.26c-1-.87-2-1.7-3-2.58l-10.63-9.39c-.35-.31-.65-.67-1-1-4.69-4.05-9.22-8.23-13.81-12.45Z"/>
      <path class="cls-14" d="M1666.32,2414l-57.13,64.76c2.15,2.15,4.31,4.41,6.58,6.67,3.47,3.49,7,7,10.55,10.43.23.2.48.51.71.72.55.56,1.19,1.13,1.73,1.69,2.66,2.52,5.22,5,7.88,7.56l57.14-64.75c-6.86-6.49-13.65-13.16-20.39-19.89-2.39-2.37-4.73-4.79-7.07-7.19Z"/>
      <path class="cls-14" d="M1627.06,2371.44l-57.14,64.76c2,2.25,3.93,4.5,6,6.8l.74.91c.18.16.37.41.6.62,3.74,4.24,7.64,8.54,11.64,12.84.6.62,1.22,1.33,1.82,2,1.7,1.84,3.46,3.74,5.26,5.58l57.13-64.75c-1.62-1.69-3.25-3.38-4.77-5.07-1.8-1.85-3.5-3.69-5.16-5.58-2.3-2.46-4.5-4.92-6.7-7.37l-2.94-3.38c-2.24-2.5-4.34-4.95-6.48-7.36Z"/>
      <path class="cls-14" d="M1590.76,2325.53l-57.18,64.8c.14.21.33.46.46.66.25.41.54.8.84,1.17.27.41.59.87.91,1.32,1.67,2.24,3.34,4.58,5.07,6.87.49.61.89,1.22,1.34,1.78,2.16,2.85,4.32,5.7,6.64,8.61.19.25.32.45.52.71.24.24.47.49.67.76,2.39,3.06,4.83,6.07,7.39,9.18l57.18-64.8c-1.18-1.38-2.25-2.75-3.37-4.08,0-.1-.07-.15-.19-.26l-3.39-4.28c-.42-.47-.82-.97-1.19-1.48-2.32-2.9-4.48-5.75-6.65-8.6-.44-.56-.83-1.17-1.28-1.73-1.78-2.34-3.45-4.68-5.12-6.92-.59-.86-1.16-1.62-1.69-2.44-.33-.45-.65-.91-.96-1.27Z"/>
      <path class="cls-14" d="M1560.93,2272.17l-57.34,65c.39,1.21.83,2.36,1.32,3.57.06.23.14.45.26.65.08.31.2.61.34.9.81,1.91,1.62,3.83,2.54,5.84.14.2.17.4.3.61.02.08.07.15.13.2,1.14,2.37,2.33,4.79,3.64,7.31.17.25.32.53.43.81.13.2.28.5.43.8,1.48,2.68,3,5.41,4.74,8.3.04.13.11.25.2.35.14.26.3.52.48.76,1.3,2.18,2.66,4.4,4.08,6.68l57.22-64.85c-1.29-2.07-2.51-4.1-3.68-6.07-.21-.36-.48-.76-.68-1.12-1.66-2.83-3.26-5.61-4.74-8.29-.33-.51-.62-1.05-.86-1.61-.66-1.26-1.31-2.52-1.91-3.73s-1.19-2.42-1.73-3.58c-.17-.26-.31-.53-.43-.81-1.2-2.52-2.25-4.98-3.14-7.39-.36-1-.77-2-1.13-3-.16-.38-.34-.88-.47-1.33Z"/>
    </g>
  </g>
  <path class="cls-7" d="M1976.4,716.12c.16,1.22-.86,1.93-1.47,2.86-1.71,2.6-16.32,21.34-17.67,21.7-14.26-.68-28.86-1.02-43.2-.59-1.81.05-4.06.15-5.83.34-.69.07-1.13-.47-1.78.68,5.07,5.6,9.51,12.64,12.3,19.67,1.84,4.63,2.4,9.73,4.68,13.98h52.97l-18.32,23.99h-33.65c.28,26.2-10.36,51.45-33.97,64.31-17.05,9.3-34.03,10.76-52.99,12.32-.98.08-1.94-.54-1.66.98l110.6,139.6-48.01-.3-1.64-1.02-110.93-139.6v-23.65c28.62-1.14,65.59,6.04,86.64-18.31,8.08-9.34,12.28-22.03,12.64-34.33h-117.27l18.32-23.99h94.95c-2.46-11.01-11.47-20.93-21.31-26.33-20.37-11.18-64.63-9.17-88.34-8.35-1.28.04-2.38.55-3.62.7-.2-1.1.52-1.79,1.05-2.61,3.24-4.99,10.87-14.67,14.95-19.02,1.16-1.24,2.47-3.02,4.31-3.02h188.23Z"/>
  <path class="cls-7" d="M1588.37,1410.24c.09.68-.48,1.07-.82,1.59-.95,1.45-9.08,11.88-9.83,12.07-7.94-.38-16.06-.57-24.04-.33-1.01.03-2.26.09-3.24.19-.38.04-.63-.26-.99.38,2.82,3.12,5.29,7.03,6.85,10.94,1.02,2.58,1.34,5.42,2.6,7.78h29.48l-10.2,13.35h-18.72c.16,14.58-5.77,28.63-18.9,35.79-9.49,5.17-18.93,5.99-29.48,6.86-.55.04-1.08-.3-.92.55l61.54,77.68-26.71-.16-.91-.57-61.72-77.68v-13.16c15.92-.63,36.5,3.36,48.21-10.19,4.49-5.2,6.84-12.26,7.03-19.1h-65.25l10.2-13.35h52.83c-1.37-6.13-6.38-11.65-11.86-14.65-11.34-6.22-35.96-5.1-49.15-4.65-.71.02-1.33.31-2.02.39-.11-.61.29-1,.59-1.45,1.8-2.78,6.05-8.16,8.32-10.59.65-.69,1.37-1.68,2.4-1.68h104.74Z"/>
  <path class="cls-7" d="M2228.86,1449.93c.06.44-.31.7-.53,1.04-.62.94-5.91,7.73-6.4,7.86-5.16-.25-10.45-.37-15.64-.21-.65.02-1.47.06-2.11.12-.25.03-.41-.17-.65.25,1.84,2.03,3.44,4.58,4.45,7.12.67,1.68.87,3.52,1.69,5.06h19.18l-6.63,8.69h-12.18c.1,9.48-3.75,18.63-12.3,23.29-6.18,3.37-12.32,3.9-19.19,4.46-.36.03-.7-.2-.6.36l40.05,50.55-17.38-.11-.59-.37-40.17-50.55v-8.56c10.36-.41,23.75,2.19,31.37-6.63,2.92-3.38,4.45-7.98,4.58-12.43h-42.46l6.63-8.69h34.38c-.89-3.99-4.15-7.58-7.72-9.53-7.38-4.05-23.4-3.32-31.98-3.03-.46.02-.86.2-1.31.25-.07-.4.19-.65.38-.94,1.17-1.81,3.93-5.31,5.41-6.89.42-.45.89-1.09,1.56-1.09h68.16Z"/>
  <path class="cls-7" d="M2631.92,1037.78c.09.65-.46,1.03-.78,1.52-.91,1.39-8.69,11.37-9.41,11.56-7.6-.36-15.37-.54-23.01-.31-.96.03-2.16.08-3.1.18-.36.04-.6-.25-.95.36,2.7,2.98,5.07,6.73,6.55,10.48.98,2.47,1.28,5.18,2.49,7.45h28.21l-9.76,12.78h-17.92c.15,13.95-5.52,27.4-18.09,34.25-9.08,4.95-18.12,5.73-28.22,6.56-.52.04-1.03-.29-.88.52l58.91,74.35-25.57-.16-.87-.55-59.08-74.36v-12.6c15.24-.61,34.93,3.22,46.15-9.75,4.3-4.98,6.54-11.73,6.73-18.29h-62.46l9.76-12.78h50.57c-1.31-5.86-6.11-11.15-11.35-14.02-10.85-5.95-34.42-4.89-47.05-4.45-.68.02-1.27.29-1.93.37-.1-.58.28-.95.56-1.39,1.73-2.66,5.79-7.81,7.96-10.13.62-.66,1.31-1.61,2.3-1.61h100.26Z"/>
</svg>